<svg class="main-svg" xmlns="http://www.w3.org/2000/svg" xmlns:xlink="http://www.w3.org/1999/xlink" width="700" height="500" style="" viewBox="0 0 700 500"><rect x="0" y="0" width="700" height="500" style="fill: rgb(255, 255, 255); fill-opacity: 1;"/><defs id="defs-8e6375"><g class="clips"/><g class="gradients"/><g class="patterns"/></defs><g class="bglayer"/><g class="layer-below"><g class="imagelayer"/><g class="shapelayer"/></g><g class="cartesianlayer"/><g class="polarlayer"/><g class="smithlayer"/><g class="ternarylayer"/><g class="geolayer"/><g class="funnelarealayer"/><g class="pielayer"/><g class="iciclelayer"/><g class="treemaplayer"/><g class="sunburstlayer"/><g class="glimages"/><g class="sankey" transform="translate(80,100)matrix(1 0 0 1 0 0)" style="box-sizing: content-box; position: absolute; left: 0px; shape-rendering: geometricprecision; pointer-events: none;"><g class="sankey-links" style="fill: none;"><path class="sankey-link" d="M20,195.59659090909088C270,195.59659090909088 270,177.61363636363635 520,177.61363636363635L520,178.83522727272728C270,178.83522727272728 270,196.8181818181818 20,196.8181818181818Z" style="stroke: rgb(68, 68, 68); stroke-opacity: 1; fill: rgb(0, 0, 0); fill-opacity: 0.2; stroke-width: 0; opacity: 1;"/><path class="sankey-link" d="M20,211.8181818181818C270,211.8181818181818 270,178.83522727272725 520,178.83522727272725L520,180.0568181818182C270,180.0568181818182 270,213.03977272727275 20,213.03977272727275Z" style="stroke: rgb(68, 68, 68); stroke-opacity: 1; fill: rgb(0, 0, 0); fill-opacity: 0.2; stroke-width: 0; opacity: 1;"/><path class="sankey-link" d="M20,161.05113636363626C270,161.05113636363626 270,84.43181818181824 520,84.43181818181824L520,91.76136363636371C270,91.76136363636371 270,168.3806818181817 20,168.3806818181817Z" style="stroke: rgb(68, 68, 68); stroke-opacity: 1; fill: rgb(0, 0, 0); fill-opacity: 0.2; stroke-width: 0; opacity: 1;"/><path class="sankey-link" d="M20,168.38068181818173C270,168.38068181818173 270,171.5056818181818 520,171.5056818181818L520,177.61363636363637C270,177.61363636363637 270,174.4886363636363 20,174.4886363636363Z" style="stroke: rgb(68, 68, 68); stroke-opacity: 1; fill: rgb(0, 0, 0); fill-opacity: 0.2; stroke-width: 0; opacity: 1;"/><path class="sankey-link" d="M20,174.48863636363626C270,174.48863636363626 270,254.91477272727272 520,254.91477272727272L520,257.35795454545456C270,257.35795454545456 270,176.93181818181807 20,176.93181818181807Z" style="stroke: rgb(68, 68, 68); stroke-opacity: 1; fill: rgb(0, 0, 0); fill-opacity: 0.2; stroke-width: 0; opacity: 1;"/><path class="sankey-link" d="M20,176.93181818181807C270,176.93181818181807 270,294.3465909090908 520,294.3465909090908L520,298.01136363636357C270,298.01136363636357 270,180.59659090909082 20,180.59659090909082Z" style="stroke: rgb(68, 68, 68); stroke-opacity: 1; fill: rgb(0, 0, 0); fill-opacity: 0.2; stroke-width: 0; opacity: 1;"/><path class="sankey-link" d="M20,58.977272727272606C270,58.977272727272606 270,72.21590909090916 520,72.21590909090916L520,81.98863636363645C270,81.98863636363645 270,68.74999999999989 20,68.74999999999989Z" style="stroke: rgb(68, 68, 68); stroke-opacity: 1; fill: rgb(0, 0, 0); fill-opacity: 0.2; stroke-width: 0; opacity: 1;"/><path class="sankey-link" d="M20,68.74999999999989C270,68.74999999999989 270,132.41477272727272 520,132.41477272727272L520,162.95454545454547C270,162.95454545454547 270,99.2897727272726 20,99.2897727272726Z" style="stroke: rgb(68, 68, 68); stroke-opacity: 1; fill: rgb(0, 0, 0); fill-opacity: 0.2; stroke-width: 0; opacity: 1;"/><path class="sankey-link" d="M20,57.7556818181817C270,57.7556818181817 270,45.00000000000007 520,45.00000000000007L520,46.22159090909098C270,46.22159090909098 270,58.977272727272606 20,58.977272727272606Z" style="stroke: rgb(68, 68, 68); stroke-opacity: 1; fill: rgb(0, 0, 0); fill-opacity: 0.2; stroke-width: 0; opacity: 1;"/><path class="sankey-link" d="M20,99.28977272727262C270,99.28977272727262 270,239.0340909090909 520,239.0340909090909L520,252.4715909090909C270,252.4715909090909 270,112.72727272727262 20,112.72727272727262Z" style="stroke: rgb(68, 68, 68); stroke-opacity: 1; fill: rgb(0, 0, 0); fill-opacity: 0.2; stroke-width: 0; opacity: 1;"/><path class="sankey-link" d="M20,112.72727272727262C270,112.72727272727262 270,289.4602272727272 520,289.4602272727272L520,294.3465909090908C270,294.3465909090908 270,117.61363636363625 20,117.61363636363625Z" style="stroke: rgb(68, 68, 68); stroke-opacity: 1; fill: rgb(0, 0, 0); fill-opacity: 0.2; stroke-width: 0; opacity: 1;"/><path class="sankey-link" d="M20,37.86931818181823C270,37.86931818181823 270,284.57386363636357 520,284.57386363636357L520,289.4602272727272C270,289.4602272727272 270,42.75568181818187 20,42.75568181818187Z" style="stroke: rgb(68, 68, 68); stroke-opacity: 1; fill: rgb(0, 0, 0); fill-opacity: 0.2; stroke-width: 0; opacity: 1;"/><path class="sankey-link" d="M20,31.761363636363683C270,31.761363636363683 270,232.92613636363637 520,232.92613636363637L520,239.03409090909093C270,239.03409090909093 270,37.86931818181823 20,37.86931818181823Z" style="stroke: rgb(68, 68, 68); stroke-opacity: 1; fill: rgb(0, 0, 0); fill-opacity: 0.2; stroke-width: 0; opacity: 1;"/><path class="sankey-link" d="M20,4.263256414560601e-14C270,4.263256414560601e-14 270,61.22159090909098 520,61.22159090909098L520,72.21590909090916C270,72.21590909090916 270,10.994318181818226 20,10.994318181818226Z" style="stroke: rgb(68, 68, 68); stroke-opacity: 1; fill: rgb(0, 0, 0); fill-opacity: 0.2; stroke-width: 0; opacity: 1;"/><path class="sankey-link" d="M20,10.994318181818228C270,10.994318181818228 270,111.64772727272725 520,111.64772727272725L520,132.41477272727272C270,132.41477272727272 270,31.761363636363683 20,31.761363636363683Z" style="stroke: rgb(68, 68, 68); stroke-opacity: 1; fill: rgb(0, 0, 0); fill-opacity: 0.2; stroke-width: 0; opacity: 1;"/><path class="sankey-link" d="M20,228.03977272727275C270,228.03977272727275 270,91.7613636363637 520,91.7613636363637L520,96.64772727272732C270,96.64772727272732 270,232.92613636363637 20,232.92613636363637Z" style="stroke: rgb(68, 68, 68); stroke-opacity: 1; fill: rgb(0, 0, 0); fill-opacity: 0.2; stroke-width: 0; opacity: 1;"/><path class="sankey-link" d="M20,232.92613636363637C270,232.92613636363637 270,180.05681818181813 520,180.05681818181813L520,205.71022727272725C270,205.71022727272725 270,258.5795454545455 20,258.5795454545455Z" style="stroke: rgb(68, 68, 68); stroke-opacity: 1; fill: rgb(0, 0, 0); fill-opacity: 0.2; stroke-width: 0; opacity: 1;"/><path class="sankey-link" d="M20,258.5795454545455C270,258.5795454545455 270,257.35795454545456 520,257.35795454545456L520,269.5738636363637C270,269.5738636363637 270,270.7954545454546 20,270.7954545454546Z" style="stroke: rgb(68, 68, 68); stroke-opacity: 1; fill: rgb(0, 0, 0); fill-opacity: 0.2; stroke-width: 0; opacity: 1;"/><path class="sankey-link" d="M20,270.79545454545456C270,270.79545454545456 270,298.01136363636357 520,298.01136363636357L520,309.0056818181817C270,309.0056818181817 270,281.7897727272727 20,281.7897727272727Z" style="stroke: rgb(68, 68, 68); stroke-opacity: 1; fill: rgb(0, 0, 0); fill-opacity: 0.2; stroke-width: 0; opacity: 1;"/><path class="sankey-link" d="M20,296.7897727272727C270,296.7897727272727 270,205.71022727272725 520,205.71022727272725L520,217.92613636363632C270,217.92613636363632 270,309.0056818181818 20,309.0056818181818Z" style="stroke: rgb(68, 68, 68); stroke-opacity: 1; fill: rgb(0, 0, 0); fill-opacity: 0.2; stroke-width: 0; opacity: 1;"/><path class="sankey-link" d="M20,309.00568181818176C270,309.00568181818176 270,309.00568181818176 520,309.00568181818176L520,319.9999999999999C270,319.9999999999999 270,319.9999999999999 20,319.9999999999999Z" style="stroke: rgb(68, 68, 68); stroke-opacity: 1; fill: rgb(0, 0, 0); fill-opacity: 0.2; stroke-width: 0; opacity: 1;"/><path class="sankey-link" d="M20,135.05681818181807C270,135.05681818181807 270,162.95454545454544 520,162.95454545454544L520,171.5056818181818C270,171.5056818181818 270,143.60795454545445 20,143.60795454545445Z" style="stroke: rgb(68, 68, 68); stroke-opacity: 1; fill: rgb(0, 0, 0); fill-opacity: 0.2; stroke-width: 0; opacity: 1;"/><path class="sankey-link" d="M20,132.61363636363626C270,132.61363636363626 270,81.98863636363643 520,81.98863636363643L520,84.43181818181824C270,84.43181818181824 270,135.05681818181807 20,135.05681818181807Z" style="stroke: rgb(68, 68, 68); stroke-opacity: 1; fill: rgb(0, 0, 0); fill-opacity: 0.2; stroke-width: 0; opacity: 1;"/><path class="sankey-link" d="M20,143.60795454545445C270,143.60795454545445 270,252.4715909090909 520,252.4715909090909L520,254.91477272727272C270,254.91477272727272 270,146.05113636363626 20,146.05113636363626Z" style="stroke: rgb(68, 68, 68); stroke-opacity: 1; fill: rgb(0, 0, 0); fill-opacity: 0.2; stroke-width: 0; opacity: 1;"/></g><g class="sankey-node-set" style="cursor: move;"><g class="sankey-node" transform="translate(0.000,195.597)" style="opacity: 1;"><rect class="node-rect" width="20" height="1.221590909090935" style="stroke-width: 0.5; stroke: rgb(0, 0, 0); stroke-opacity: 1; fill: rgb(0, 0, 255); fill-opacity: 1;"/><text class="node-label" data-notex="1" x="0" y="0" text-anchor="start" transform="translate(23.25,4.810795454545467)" style="cursor: default; font-family: 'Open Sans', verdana, arial, sans-serif; font-size: 12px; fill: rgb(42, 63, 95); fill-opacity: 1; white-space: pre; text-shadow: white 1px 1px 1px, white -1px -1px 1px, white 1px -1px 1px, white -1px 1px 1px;">(2, 3]</text></g><g class="sankey-node" transform="translate(0.000,211.818)" style="opacity: 1;"><rect class="node-rect" width="20" height="1.221590909090935" style="stroke-width: 0.5; stroke: rgb(0, 0, 0); stroke-opacity: 1; fill: rgb(0, 0, 255); fill-opacity: 1;"/><text class="node-label" data-notex="1" x="0" y="0" text-anchor="start" transform="translate(23.25,4.810795454545467)" style="cursor: default; font-family: 'Open Sans', verdana, arial, sans-serif; font-size: 12px; fill: rgb(42, 63, 95); fill-opacity: 1; white-space: pre; text-shadow: white 1px 1px 1px, white -1px -1px 1px, white 1px -1px 1px, white -1px 1px 1px;">(4, 5]</text></g><g class="sankey-node" transform="translate(0.000,161.051)" style="opacity: 1;"><rect class="node-rect" width="20" height="19.545454545454618" style="stroke-width: 0.5; stroke: rgb(0, 0, 0); stroke-opacity: 1; fill: rgb(0, 0, 255); fill-opacity: 1;"/><text class="node-label" data-notex="1" x="0" y="0" text-anchor="start" transform="translate(23.25,13.972727272727308)" style="cursor: default; font-family: 'Open Sans', verdana, arial, sans-serif; font-size: 12px; fill: rgb(42, 63, 95); fill-opacity: 1; white-space: pre; text-shadow: white 1px 1px 1px, white -1px -1px 1px, white 1px -1px 1px, white -1px 1px 1px;">(5, 6]</text></g><g class="sankey-node" transform="translate(0.000,57.756)" style="opacity: 1;"><rect class="node-rect" width="20" height="59.85795454545456" style="stroke-width: 0.5; stroke: rgb(0, 0, 0); stroke-opacity: 1; fill: rgb(0, 0, 255); fill-opacity: 1;"/><text class="node-label" data-notex="1" x="0" y="0" text-anchor="start" transform="translate(23.25,34.12897727272728)" style="cursor: default; font-family: 'Open Sans', verdana, arial, sans-serif; font-size: 12px; fill: rgb(42, 63, 95); fill-opacity: 1; white-space: pre; text-shadow: white 1px 1px 1px, white -1px -1px 1px, white 1px -1px 1px, white -1px 1px 1px;">(6, 7]</text></g><g class="sankey-node" transform="translate(0.000,0.000)" style="opacity: 1;"><rect class="node-rect" width="20" height="42.75568181818166" style="stroke-width: 0.5; stroke: rgb(0, 0, 0); stroke-opacity: 1; fill: rgb(0, 0, 255); fill-opacity: 1;"/><text class="node-label" data-notex="1" x="0" y="0" text-anchor="start" transform="translate(23.25,25.577840909090828)" style="cursor: default; font-family: 'Open Sans', verdana, arial, sans-serif; font-size: 12px; fill: rgb(42, 63, 95); fill-opacity: 1; white-space: pre; text-shadow: white 1px 1px 1px, white -1px -1px 1px, white 1px -1px 1px, white -1px 1px 1px;">(7, 8]</text></g><g class="sankey-node" transform="translate(0.000,228.040)" style="opacity: 1;"><rect class="node-rect" width="20" height="53.74999999999994" style="stroke-width: 0.5; stroke: rgb(0, 0, 0); stroke-opacity: 1; fill: rgb(0, 0, 255); fill-opacity: 1;"/><text class="node-label" data-notex="1" x="0" y="0" text-anchor="start" transform="translate(23.25,31.07499999999997)" style="cursor: default; font-family: 'Open Sans', verdana, arial, sans-serif; font-size: 12px; fill: rgb(42, 63, 95); fill-opacity: 1; white-space: pre; text-shadow: white 1px 1px 1px, white -1px -1px 1px, white 1px -1px 1px, white -1px 1px 1px;">(8, 9]</text></g><g class="sankey-node" transform="translate(0.000,296.790)" style="opacity: 1;"><rect class="node-rect" width="20" height="23.21022727272731" style="stroke-width: 0.5; stroke: rgb(0, 0, 0); stroke-opacity: 1; fill: rgb(0, 0, 255); fill-opacity: 1;"/><text class="node-label" data-notex="1" x="0" y="0" text-anchor="start" transform="translate(23.25,15.805113636363654)" style="cursor: default; font-family: 'Open Sans', verdana, arial, sans-serif; font-size: 12px; fill: rgb(42, 63, 95); fill-opacity: 1; white-space: pre; text-shadow: white 1px 1px 1px, white -1px -1px 1px, white 1px -1px 1px, white -1px 1px 1px;">(9, 10]</text></g><g class="sankey-node" transform="translate(0.000,132.614)" style="opacity: 1;"><rect class="node-rect" width="20" height="13.4375" style="stroke-width: 0.5; stroke: rgb(0, 0, 0); stroke-opacity: 1; fill: rgb(0, 0, 255); fill-opacity: 1;"/><text class="node-label" data-notex="1" x="0" y="0" text-anchor="start" transform="translate(23.25,10.91875)" style="cursor: default; font-family: 'Open Sans', verdana, arial, sans-serif; font-size: 12px; fill: rgb(42, 63, 95); fill-opacity: 1; white-space: pre; text-shadow: white 1px 1px 1px, white -1px -1px 1px, white 1px -1px 1px, white -1px 1px 1px;">NA</text></g><g class="sankey-node" transform="translate(520.000,61.222)" style="opacity: 1;"><rect class="node-rect" width="20" height="35.42613636363626" style="stroke-width: 0.5; stroke: rgb(0, 0, 0); stroke-opacity: 1; fill: rgb(0, 0, 255); fill-opacity: 1;"/><text class="node-label" data-notex="1" x="0" y="0" text-anchor="end" transform="translate(-3.25,21.91306818181813)" style="cursor: default; font-family: 'Open Sans', verdana, arial, sans-serif; font-size: 12px; fill: rgb(42, 63, 95); fill-opacity: 1; white-space: pre; text-shadow: white 1px 1px 1px, white -1px -1px 1px, white 1px -1px 1px, white -1px 1px 1px;">Days</text></g><g class="sankey-node" transform="translate(520.000,111.648)" style="opacity: 1;"><rect class="node-rect" width="20" height="106.27840909090915" style="stroke-width: 0.5; stroke: rgb(0, 0, 0); stroke-opacity: 1; fill: rgb(0, 0, 255); fill-opacity: 1;"/><text class="node-label" data-notex="1" x="0" y="0" text-anchor="end" transform="translate(-3.25,57.33920454545458)" style="cursor: default; font-family: 'Open Sans', verdana, arial, sans-serif; font-size: 12px; fill: rgb(42, 63, 95); fill-opacity: 1; white-space: pre; text-shadow: white 1px 1px 1px, white -1px -1px 1px, white 1px -1px 1px, white -1px 1px 1px;">Months</text></g><g class="sankey-node" transform="translate(520.000,45.000)" style="opacity: 1;"><rect class="node-rect" width="20" height="1.2215909090909065" style="stroke-width: 0.5; stroke: rgb(0, 0, 0); stroke-opacity: 1; fill: rgb(0, 0, 255); fill-opacity: 1;"/><text class="node-label" data-notex="1" x="0" y="0" text-anchor="end" transform="translate(-3.25,4.8107954545454525)" style="cursor: default; font-family: 'Open Sans', verdana, arial, sans-serif; font-size: 12px; fill: rgb(42, 63, 95); fill-opacity: 1; white-space: pre; text-shadow: white 1px 1px 1px, white -1px -1px 1px, white 1px -1px 1px, white -1px 1px 1px;">NA</text></g><g class="sankey-node" transform="translate(520.000,232.926)" style="opacity: 1;"><rect class="node-rect" width="20" height="36.647727272727195" style="stroke-width: 0.5; stroke: rgb(0, 0, 0); stroke-opacity: 1; fill: rgb(0, 0, 255); fill-opacity: 1;"/><text class="node-label" data-notex="1" x="0" y="0" text-anchor="end" transform="translate(-3.25,22.523863636363597)" style="cursor: default; font-family: 'Open Sans', verdana, arial, sans-serif; font-size: 12px; fill: rgb(42, 63, 95); fill-opacity: 1; white-space: pre; text-shadow: white 1px 1px 1px, white -1px -1px 1px, white 1px -1px 1px, white -1px 1px 1px;">Weeks</text></g><g class="sankey-node" transform="translate(520.000,284.574)" style="opacity: 1;"><rect class="node-rect" width="20" height="35.42613636363643" style="stroke-width: 0.5; stroke: rgb(0, 0, 0); stroke-opacity: 1; fill: rgb(0, 0, 255); fill-opacity: 1;"/><text class="node-label" data-notex="1" x="0" y="0" text-anchor="end" transform="translate(-3.25,21.913068181818215)" style="cursor: default; font-family: 'Open Sans', verdana, arial, sans-serif; font-size: 12px; fill: rgb(42, 63, 95); fill-opacity: 1; white-space: pre; text-shadow: white 1px 1px 1px, white -1px -1px 1px, white 1px -1px 1px, white -1px 1px 1px;">Year(s)</text></g></g></g><defs id="topdefs-8e6375"><g class="clips"/></defs><g class="layer-above"><g class="imagelayer"/><g class="shapelayer"/></g><g class="infolayer"><g class="g-gtitle"><text class="gtitle" x="35" y="50" text-anchor="start" dy="0em" style="font-family: 'Open Sans', verdana, arial, sans-serif; font-size: 17px; fill: rgb(42, 63, 95); opacity: 1; font-weight: normal; white-space: pre;">Basic Sankey Diagram</text></g><g class="first-render"/></g></svg>