<svg class="main-svg" xmlns="http://www.w3.org/2000/svg" xmlns:xlink="http://www.w3.org/1999/xlink" width="700" height="500" style="" viewBox="0 0 700 500"><rect x="0" y="0" width="700" height="500" style="fill: rgb(255, 255, 255); fill-opacity: 1;"/><defs id="defs-7ea93c"><g class="clips"/><g class="gradients"/><g class="patterns"/></defs><g class="bglayer"/><g class="layer-below"><g class="imagelayer"/><g class="shapelayer"/></g><g class="cartesianlayer"/><g class="polarlayer"/><g class="smithlayer"/><g class="ternarylayer"/><g class="geolayer"/><g class="funnelarealayer"/><g class="pielayer"/><g class="iciclelayer"/><g class="treemaplayer"/><g class="sunburstlayer"/><g class="glimages"/><g class="sankey" transform="translate(80,100)matrix(1 0 0 1 0 0)" style="box-sizing: content-box; position: absolute; left: 0px; shape-rendering: geometricprecision; pointer-events: none;"><g class="sankey-links" style="fill: none;"><path class="sankey-link" d="M20,221.27906976744177C140,221.27906976744177 140,211.18217054263567 260,211.18217054263567L260,211.89922480620157C140,211.89922480620157 140,221.99612403100767 20,221.99612403100767Z" style="stroke: rgb(0, 0, 0); stroke-opacity: 0.2; fill: rgb(0, 0, 0); fill-opacity: 0.2; stroke-width: 1; opacity: 1;"/><path class="sankey-link" d="M20,317.1317829457364C140,317.1317829457364 140,153.93410852713197 260,153.93410852713197L260,154.65116279069787C140,154.65116279069787 140,317.84883720930225 20,317.84883720930225Z" style="stroke: rgb(0, 0, 0); stroke-opacity: 0.2; fill: rgb(0, 0, 0); fill-opacity: 0.2; stroke-width: 1; opacity: 1;"/><path class="sankey-link" d="M20,317.8488372093023C140,317.8488372093023 140,258.4496124031008 260,258.4496124031008L260,259.16666666666663C140,259.16666666666663 140,318.56589147286815 20,318.56589147286815Z" style="stroke: rgb(0, 0, 0); stroke-opacity: 0.2; fill: rgb(0, 0, 0); fill-opacity: 0.2; stroke-width: 1; opacity: 1;"/><path class="sankey-link" d="M20,175.50387596899213C140,175.50387596899213 140,249.1279069767442 260,249.1279069767442L260,249.8449612403101C140,249.8449612403101 140,176.22093023255803 20,176.22093023255803Z" style="stroke: rgb(0, 0, 0); stroke-opacity: 0.2; fill: rgb(0, 0, 0); fill-opacity: 0.2; stroke-width: 1; opacity: 1;"/><path class="sankey-link" d="M20,156.2015503875969C140,156.2015503875969 140,313.54651162790697 260,313.54651162790697L260,314.2635658914728C140,314.2635658914728 140,156.9186046511628 20,156.9186046511628Z" style="stroke: rgb(0, 0, 0); stroke-opacity: 0.2; fill: rgb(0, 0, 0); fill-opacity: 0.2; stroke-width: 1; opacity: 1;"/><path class="sankey-link" d="M20,292.8100775193798C140,292.8100775193798 140,183.9922480620156 260,183.9922480620156L260,184.7093023255815C140,184.7093023255815 140,293.5271317829456 20,293.5271317829456Z" style="stroke: rgb(0, 0, 0); stroke-opacity: 0.2; fill: rgb(0, 0, 0); fill-opacity: 0.2; stroke-width: 1; opacity: 1;"/><path class="sankey-link" d="M20,293.5271317829457C140,293.5271317829457 140,214.05038759689924 260,214.05038759689924L260,214.76744186046514C140,214.76744186046514 140,294.2441860465115 20,294.2441860465115Z" style="stroke: rgb(0, 0, 0); stroke-opacity: 0.2; fill: rgb(0, 0, 0); fill-opacity: 0.2; stroke-width: 1; opacity: 1;"/><path class="sankey-link" d="M20,41.58914728682183C140,41.58914728682183 140,308.52713178294573 260,308.52713178294573L260,309.2441860465116C140,309.2441860465116 140,42.30620155038771 20,42.30620155038771Z" style="stroke: rgb(0, 0, 0); stroke-opacity: 0.2; fill: rgb(0, 0, 0); fill-opacity: 0.2; stroke-width: 1; opacity: 1;"/><path class="sankey-link" d="M20,32.984496124031125C140,32.984496124031125 140,143.1782945736436 260,143.1782945736436L260,143.8953488372095C140,143.8953488372095 140,33.70155038759701 20,33.70155038759701Z" style="stroke: rgb(0, 0, 0); stroke-opacity: 0.2; fill: rgb(0, 0, 0); fill-opacity: 0.2; stroke-width: 1; opacity: 1;"/><path class="sankey-link" d="M20,33.70155038759702C140,33.70155038759702 140,169.65116279069775 260,169.65116279069775L260,170.36821705426365C140,170.36821705426365 140,34.4186046511629 20,34.4186046511629Z" style="stroke: rgb(0, 0, 0); stroke-opacity: 0.2; fill: rgb(0, 0, 0); fill-opacity: 0.2; stroke-width: 1; opacity: 1;"/><path class="sankey-link" d="M20,296.39534883720927C140,296.39534883720927 140,292.81007751937983 260,292.81007751937983L260,293.5271317829457C140,293.5271317829457 140,297.1124031007751 20,297.1124031007751Z" style="stroke: rgb(0, 0, 0); stroke-opacity: 0.2; fill: rgb(0, 0, 0); fill-opacity: 0.2; stroke-width: 1; opacity: 1;"/><path class="sankey-link" d="M20,223.43023255813944C140,223.43023255813944 140,314.26356589147287 260,314.26356589147287L260,314.9806201550387C140,314.9806201550387 140,224.14728682170534 20,224.14728682170534Z" style="stroke: rgb(0, 0, 0); stroke-opacity: 0.2; fill: rgb(0, 0, 0); fill-opacity: 0.2; stroke-width: 1; opacity: 1;"/><path class="sankey-link" d="M20,267.7713178294573C140,267.7713178294573 140,183.2751937984497 260,183.2751937984497L260,183.9922480620156C140,183.9922480620156 140,268.48837209302314 20,268.48837209302314Z" style="stroke: rgb(0, 0, 0); stroke-opacity: 0.2; fill: rgb(0, 0, 0); fill-opacity: 0.2; stroke-width: 1; opacity: 1;"/><path class="sankey-link" d="M20,239.14728682170534C140,239.14728682170534 140,52.22868217054287 260,52.22868217054287L260,52.94573643410875C140,52.94573643410875 140,239.86434108527123 20,239.86434108527123Z" style="stroke: rgb(0, 0, 0); stroke-opacity: 0.2; fill: rgb(0, 0, 0); fill-opacity: 0.2; stroke-width: 1; opacity: 1;"/><path class="sankey-link" d="M20,272.7906976744186C140,272.7906976744186 140,315.69767441860466 260,315.69767441860466L260,316.4147286821705C140,316.4147286821705 140,273.50775193798444 20,273.50775193798444Z" style="stroke: rgb(0, 0, 0); stroke-opacity: 0.2; fill: rgb(0, 0, 0); fill-opacity: 0.2; stroke-width: 1; opacity: 1;"/><path class="sankey-link" d="M20,249.9031007751937C140,249.9031007751937 140,314.98062015503876 260,314.98062015503876L260,315.6976744186046C140,315.6976744186046 140,250.6201550387596 20,250.6201550387596Z" style="stroke: rgb(0, 0, 0); stroke-opacity: 0.2; fill: rgb(0, 0, 0); fill-opacity: 0.2; stroke-width: 1; opacity: 1;"/><path class="sankey-link" d="M20,242.0155038759689C140,242.0155038759689 140,152.50000000000017 260,152.50000000000017L260,153.21705426356607C140,153.21705426356607 140,242.7325581395348 20,242.7325581395348Z" style="stroke: rgb(0, 0, 0); stroke-opacity: 0.2; fill: rgb(0, 0, 0); fill-opacity: 0.2; stroke-width: 1; opacity: 1;"/><path class="sankey-link" d="M20,267.0542635658914C140,267.0542635658914 140,153.21705426356607 260,153.21705426356607L260,153.93410852713197C140,153.93410852713197 140,267.77131782945725 20,267.77131782945725Z" style="stroke: rgb(0, 0, 0); stroke-opacity: 0.2; fill: rgb(0, 0, 0); fill-opacity: 0.2; stroke-width: 1; opacity: 1;"/><path class="sankey-link" d="M20,272.0736434108527C140,272.0736434108527 140,292.09302325581393 260,292.09302325581393L260,292.8100775193798C140,292.8100775193798 140,272.79069767441854 20,272.79069767441854Z" style="stroke: rgb(0, 0, 0); stroke-opacity: 0.2; fill: rgb(0, 0, 0); fill-opacity: 0.2; stroke-width: 1; opacity: 1;"/><path class="sankey-link" d="M20,221.99612403100767C140,221.99612403100767 140,251.27906976744188 260,251.27906976744188L260,252.71317829457368C140,252.71317829457368 140,223.43023255813947 20,223.43023255813947Z" style="stroke: rgb(68, 68, 68); stroke-opacity: 1; fill: rgb(0, 0, 0); fill-opacity: 0.2; stroke-width: 0; opacity: 1;"/><path class="sankey-link" d="M20,198.39147286821694C140,198.39147286821694 140,285.6395348837209 260,285.6395348837209L260,287.0736434108527C140,287.0736434108527 140,199.82558139534873 20,199.82558139534873Z" style="stroke: rgb(68, 68, 68); stroke-opacity: 1; fill: rgb(0, 0, 0); fill-opacity: 0.2; stroke-width: 0; opacity: 1;"/><path class="sankey-link" d="M20,318.5658914728682C140,318.5658914728682 140,318.56589147286826 260,318.56589147286826L260,320.00000000000006C140,320.00000000000006 140,320 20,320Z" style="stroke: rgb(68, 68, 68); stroke-opacity: 1; fill: rgb(0, 0, 0); fill-opacity: 0.2; stroke-width: 0; opacity: 1;"/><path class="sankey-link" d="M20,314.2635658914728C140,314.2635658914728 140,54.37984496124054 260,54.37984496124054L260,55.81395348837233C140,55.81395348837233 140,315.6976744186046 20,315.6976744186046Z" style="stroke: rgb(68, 68, 68); stroke-opacity: 1; fill: rgb(0, 0, 0); fill-opacity: 0.2; stroke-width: 0; opacity: 1;"/><path class="sankey-link" d="M20,315.6976744186046C140,315.6976744186046 140,126.74418604651189 260,126.74418604651189L260,128.17829457364365C140,128.17829457364365 140,317.1317829457364 20,317.1317829457364Z" style="stroke: rgb(68, 68, 68); stroke-opacity: 1; fill: rgb(0, 0, 0); fill-opacity: 0.2; stroke-width: 0; opacity: 1;"/><path class="sankey-link" d="M20,176.22093023255803C140,176.22093023255803 140,284.2054263565891 260,284.2054263565891L260,285.6395348837209C140,285.6395348837209 140,177.65503875968983 20,177.65503875968983Z" style="stroke: rgb(68, 68, 68); stroke-opacity: 1; fill: rgb(0, 0, 0); fill-opacity: 0.2; stroke-width: 0; opacity: 1;"/><path class="sankey-link" d="M20,196.95736434108517C140,196.95736434108517 140,249.8449612403101 260,249.8449612403101L260,251.2790697674419C140,251.2790697674419 140,198.39147286821697 20,198.39147286821697Z" style="stroke: rgb(68, 68, 68); stroke-opacity: 1; fill: rgb(0, 0, 0); fill-opacity: 0.2; stroke-width: 0; opacity: 1;"/><path class="sankey-link" d="M20,217.69379844961233C140,217.69379844961233 140,151.0658914728684 260,151.0658914728684L260,152.5000000000002C140,152.5000000000002 140,219.12790697674413 20,219.12790697674413Z" style="stroke: rgb(68, 68, 68); stroke-opacity: 1; fill: rgb(0, 0, 0); fill-opacity: 0.2; stroke-width: 0; opacity: 1;"/><path class="sankey-link" d="M20,270.6395348837209C140,270.6395348837209 140,254.86434108527132 260,254.86434108527132L260,256.2984496124031C140,256.2984496124031 140,272.0736434108527 20,272.0736434108527Z" style="stroke: rgb(68, 68, 68); stroke-opacity: 1; fill: rgb(0, 0, 0); fill-opacity: 0.2; stroke-width: 0; opacity: 1;"/><path class="sankey-link" d="M20,288.50775193798444C140,288.50775193798444 140,52.94573643410876 260,52.94573643410876L260,54.37984496124054C140,54.37984496124054 140,289.94186046511624 20,289.94186046511624Z" style="stroke: rgb(68, 68, 68); stroke-opacity: 1; fill: rgb(0, 0, 0); fill-opacity: 0.2; stroke-width: 0; opacity: 1;"/><path class="sankey-link" d="M20,265.6201550387596C140,265.6201550387596 140,122.44186046511653 260,122.44186046511653L260,123.8759689922483C140,123.8759689922483 140,267.0542635658914 20,267.0542635658914Z" style="stroke: rgb(68, 68, 68); stroke-opacity: 1; fill: rgb(0, 0, 0); fill-opacity: 0.2; stroke-width: 0; opacity: 1;"/><path class="sankey-link" d="M20,34.41860465116291C140,34.41860465116291 140,199.70930232558143 260,199.70930232558143L260,201.14341085271323C140,201.14341085271323 140,35.85271317829469 20,35.85271317829469Z" style="stroke: rgb(68, 68, 68); stroke-opacity: 1; fill: rgb(0, 0, 0); fill-opacity: 0.2; stroke-width: 0; opacity: 1;"/><path class="sankey-link" d="M20,171.9186046511627C140,171.9186046511627 140,50.794573643411084 260,50.794573643411084L260,52.22868217054287C140,52.22868217054287 140,173.3527131782945 20,173.3527131782945Z" style="stroke: rgb(68, 68, 68); stroke-opacity: 1; fill: rgb(0, 0, 0); fill-opacity: 0.2; stroke-width: 0; opacity: 1;"/><path class="sankey-link" d="M20,129.67054263565893C140,129.67054263565893 140,148.91472868217073 260,148.91472868217073L260,151.06589147286843C140,151.06589147286843 140,131.82170542635663 20,131.82170542635663Z" style="stroke: rgb(68, 68, 68); stroke-opacity: 1; fill: rgb(0, 0, 0); fill-opacity: 0.2; stroke-width: 0; opacity: 1;"/><path class="sankey-link" d="M20,194.8062015503875C140,194.8062015503875 140,178.97286821705436 260,178.97286821705436L260,181.12403100775205C140,181.12403100775205 140,196.9573643410852 20,196.9573643410852Z" style="stroke: rgb(68, 68, 68); stroke-opacity: 1; fill: rgb(0, 0, 0); fill-opacity: 0.2; stroke-width: 0; opacity: 1;"/><path class="sankey-link" d="M20,192.65503875968983C140,192.65503875968983 140,115.27131782945763 260,115.27131782945763L260,117.4224806201553C140,117.4224806201553 140,194.80620155038753 20,194.80620155038753Z" style="stroke: rgb(68, 68, 68); stroke-opacity: 1; fill: rgb(0, 0, 0); fill-opacity: 0.2; stroke-width: 0; opacity: 1;"/><path class="sankey-link" d="M20,268.4883720930232C140,268.4883720930232 140,211.89922480620157 260,211.89922480620157L260,214.05038759689927C140,214.05038759689927 140,270.63953488372084 20,270.63953488372084Z" style="stroke: rgb(68, 68, 68); stroke-opacity: 1; fill: rgb(0, 0, 0); fill-opacity: 0.2; stroke-width: 0; opacity: 1;"/><path class="sankey-link" d="M20,239.86434108527123C140,239.86434108527123 140,120.29069767441887 260,120.29069767441887L260,122.44186046511653C140,122.44186046511653 140,242.01550387596893 20,242.01550387596893Z" style="stroke: rgb(68, 68, 68); stroke-opacity: 1; fill: rgb(0, 0, 0); fill-opacity: 0.2; stroke-width: 0; opacity: 1;"/><path class="sankey-link" d="M20,173.35271317829447C140,173.35271317829447 140,113.12015503875996 260,113.12015503875996L260,115.27131782945763C140,115.27131782945763 140,175.50387596899216 20,175.50387596899216Z" style="stroke: rgb(68, 68, 68); stroke-opacity: 1; fill: rgb(0, 0, 0); fill-opacity: 0.2; stroke-width: 0; opacity: 1;"/><path class="sankey-link" d="M20,242.7325581395348C140,242.7325581395348 140,252.71317829457365 260,252.71317829457365L260,254.86434108527135C140,254.86434108527135 140,244.8837209302325 20,244.8837209302325Z" style="stroke: rgb(68, 68, 68); stroke-opacity: 1; fill: rgb(0, 0, 0); fill-opacity: 0.2; stroke-width: 0; opacity: 1;"/><path class="sankey-link" d="M20,297.11240310077517C140,297.11240310077517 140,316.41472868217056 260,316.41472868217056L260,318.5658914728682C140,318.5658914728682 140,299.2635658914728 20,299.2635658914728Z" style="stroke: rgb(68, 68, 68); stroke-opacity: 1; fill: rgb(0, 0, 0); fill-opacity: 0.2; stroke-width: 0; opacity: 1;"/><path class="sankey-link" d="M20,294.2441860465116C140,294.2441860465116 140,256.2984496124031 260,256.2984496124031L260,258.44961240310073C140,258.44961240310073 140,296.3953488372092 20,296.3953488372092Z" style="stroke: rgb(68, 68, 68); stroke-opacity: 1; fill: rgb(0, 0, 0); fill-opacity: 0.2; stroke-width: 0; opacity: 1;"/><path class="sankey-link" d="M20,219.1279069767441C140,219.1279069767441 140,181.12403100775202 260,181.12403100775202L260,183.27519379844972C140,183.27519379844972 140,221.2790697674418 20,221.2790697674418Z" style="stroke: rgb(68, 68, 68); stroke-opacity: 1; fill: rgb(0, 0, 0); fill-opacity: 0.2; stroke-width: 0; opacity: 1;"/><path class="sankey-link" d="M20,39.43798449612415C140,39.43798449612415 140,274.16666666666663 260,274.16666666666663L260,276.31782945736427C140,276.31782945736427 140,41.58914728682182 20,41.58914728682182Z" style="stroke: rgb(68, 68, 68); stroke-opacity: 1; fill: rgb(0, 0, 0); fill-opacity: 0.2; stroke-width: 0; opacity: 1;"/><path class="sankey-link" d="M20,214.82558139534876C140,214.82558139534876 140,117.4224806201553 260,117.4224806201553L260,120.29069767441887C140,120.29069767441887 140,217.6937984496123 20,217.6937984496123Z" style="stroke: rgb(68, 68, 68); stroke-opacity: 1; fill: rgb(0, 0, 0); fill-opacity: 0.2; stroke-width: 0; opacity: 1;"/><path class="sankey-link" d="M20,117.48062015503876C140,117.48062015503876 140,47.92635658914752 260,47.92635658914752L260,50.794573643411084C140,50.794573643411084 140,120.34883720930233 20,120.34883720930233Z" style="stroke: rgb(68, 68, 68); stroke-opacity: 1; fill: rgb(0, 0, 0); fill-opacity: 0.2; stroke-width: 0; opacity: 1;"/><path class="sankey-link" d="M20,57.306201550387726C140,57.306201550387726 140,45.05813953488395 260,45.05813953488395L260,47.92635658914752C140,47.92635658914752 140,60.174418604651294 20,60.174418604651294Z" style="stroke: rgb(68, 68, 68); stroke-opacity: 1; fill: rgb(0, 0, 0); fill-opacity: 0.2; stroke-width: 0; opacity: 1;"/><path class="sankey-link" d="M20,289.94186046511624C140,289.94186046511624 140,123.87596899224832 260,123.87596899224832L260,126.74418604651189C140,126.74418604651189 140,292.81007751937983 20,292.81007751937983Z" style="stroke: rgb(68, 68, 68); stroke-opacity: 1; fill: rgb(0, 0, 0); fill-opacity: 0.2; stroke-width: 0; opacity: 1;"/><path class="sankey-link" d="M20,35.85271317829469C140,35.85271317829469 140,229.7674418604651 260,229.7674418604651L260,233.35271317829455C140,233.35271317829455 140,39.437984496124145 20,39.437984496124145Z" style="stroke: rgb(68, 68, 68); stroke-opacity: 1; fill: rgb(0, 0, 0); fill-opacity: 0.2; stroke-width: 0; opacity: 1;"/><path class="sankey-link" d="M20,80.25193798449625C140,80.25193798449625 140,170.36821705426365 260,170.36821705426365L260,173.9534883720931C140,173.9534883720931 140,83.83720930232572 20,83.83720930232572Z" style="stroke: rgb(68, 68, 68); stroke-opacity: 1; fill: rgb(0, 0, 0); fill-opacity: 0.2; stroke-width: 0; opacity: 1;"/><path class="sankey-link" d="M20,94.59302325581407C140,94.59302325581407 140,276.3178294573643 260,276.3178294573643L260,279.90310077519376C140,279.90310077519376 140,98.17829457364354 20,98.17829457364354Z" style="stroke: rgb(68, 68, 68); stroke-opacity: 1; fill: rgb(0, 0, 0); fill-opacity: 0.2; stroke-width: 0; opacity: 1;"/><path class="sankey-link" d="M20,83.8372093023257C140,83.8372093023257 140,201.1434108527132 260,201.1434108527132L260,205.44573643410854C140,205.44573643410854 140,88.13953488372104 20,88.13953488372104Z" style="stroke: rgb(68, 68, 68); stroke-opacity: 1; fill: rgb(0, 0, 0); fill-opacity: 0.2; stroke-width: 0; opacity: 1;"/><path class="sankey-link" d="M20,98.17829457364353C140,98.17829457364353 140,309.24418604651163 260,309.24418604651163L260,313.546511627907C140,313.546511627907 140,102.48062015503886 20,102.48062015503886Z" style="stroke: rgb(68, 68, 68); stroke-opacity: 1; fill: rgb(0, 0, 0); fill-opacity: 0.2; stroke-width: 0; opacity: 1;"/><path class="sankey-link" d="M20,151.89922480620157C140,151.89922480620157 140,279.90310077519376 260,279.90310077519376L260,284.20542635658916C140,284.20542635658916 140,156.2015503875969 20,156.2015503875969Z" style="stroke: rgb(68, 68, 68); stroke-opacity: 1; fill: rgb(0, 0, 0); fill-opacity: 0.2; stroke-width: 0; opacity: 1;"/><path class="sankey-link" d="M20,244.88372093023247C140,244.88372093023247 140,287.0736434108527 260,287.0736434108527L260,292.09302325581393C140,292.09302325581393 140,249.9031007751937 20,249.9031007751937Z" style="stroke: rgb(68, 68, 68); stroke-opacity: 1; fill: rgb(0, 0, 0); fill-opacity: 0.2; stroke-width: 0; opacity: 1;"/><path class="sankey-link" d="M20,131.8217054263566C140,131.8217054263566 140,173.95348837209312 260,173.95348837209312L260,178.97286821705436C140,178.97286821705436 140,136.84108527131784 20,136.84108527131784Z" style="stroke: rgb(68, 68, 68); stroke-opacity: 1; fill: rgb(0, 0, 0); fill-opacity: 0.2; stroke-width: 0; opacity: 1;"/><path class="sankey-link" d="M20,75.23255813953502C140,75.23255813953502 140,143.8953488372095 260,143.8953488372095L260,148.91472868217073C140,148.91472868217073 140,80.25193798449625 20,80.25193798449625Z" style="stroke: rgb(68, 68, 68); stroke-opacity: 1; fill: rgb(0, 0, 0); fill-opacity: 0.2; stroke-width: 0; opacity: 1;"/><path class="sankey-link" d="M20,136.84108527131784C140,136.84108527131784 140,205.44573643410854 260,205.44573643410854L260,211.18217054263567C140,211.18217054263567 140,142.57751937984497 20,142.57751937984497Z" style="stroke: rgb(68, 68, 68); stroke-opacity: 1; fill: rgb(0, 0, 0); fill-opacity: 0.2; stroke-width: 0; opacity: 1;"/><path class="sankey-link" d="M20,88.13953488372105C140,88.13953488372105 140,233.35271317829458 260,233.35271317829458L260,239.8062015503876C140,239.8062015503876 140,94.59302325581409 20,94.59302325581409Z" style="stroke: rgb(68, 68, 68); stroke-opacity: 1; fill: rgb(0, 0, 0); fill-opacity: 0.2; stroke-width: 0; opacity: 1;"/><path class="sankey-link" d="M20,142.57751937984497C140,142.57751937984497 140,239.8062015503876 260,239.8062015503876L260,249.12790697674419C140,249.12790697674419 140,151.89922480620154 20,151.89922480620154Z" style="stroke: rgb(68, 68, 68); stroke-opacity: 1; fill: rgb(0, 0, 0); fill-opacity: 0.2; stroke-width: 0; opacity: 1;"/><path class="sankey-link" d="M20,120.34883720930233C140,120.34883720930233 140,103.79844961240337 260,103.79844961240337L260,113.12015503875998C140,113.12015503875998 140,129.67054263565893 20,129.67054263565893Z" style="stroke: rgb(68, 68, 68); stroke-opacity: 1; fill: rgb(0, 0, 0); fill-opacity: 0.2; stroke-width: 0; opacity: 1;"/><path class="sankey-link" d="M20,60.17441860465129C140,60.17441860465129 140,88.74031007751967 260,88.74031007751967L260,103.79844961240337C140,103.79844961240337 140,75.232558139535 20,75.232558139535Z" style="stroke: rgb(68, 68, 68); stroke-opacity: 1; fill: rgb(0, 0, 0); fill-opacity: 0.2; stroke-width: 0; opacity: 1;"/><path class="sankey-link" d="M20,1.1368683772161603e-13C140,1.1368683772161603e-13 140,30.000000000000227 260,30.000000000000227L260,45.05813953488395C140,45.05813953488395 140,15.058139534883836 20,15.058139534883836Z" style="stroke: rgb(68, 68, 68); stroke-opacity: 1; fill: rgb(0, 0, 0); fill-opacity: 0.2; stroke-width: 0; opacity: 1;"/><path class="sankey-link" d="M20,15.058139534883836C140,15.058139534883836 140,70.81395348837236 260,70.81395348837236L260,88.74031007751967C140,88.74031007751967 140,32.984496124031125 20,32.984496124031125Z" style="stroke: rgb(68, 68, 68); stroke-opacity: 1; fill: rgb(0, 0, 0); fill-opacity: 0.2; stroke-width: 0; opacity: 1;"/><path class="sankey-link" d="M280,244.1085271317829C400,244.1085271317829 400,317.13178294573646 520,317.13178294573646L520,317.8488372093023C400,317.8488372093023 400,244.8255813953488 280,244.8255813953488Z" style="stroke: rgb(0, 0, 0); stroke-opacity: 0.2; fill: rgb(0, 0, 0); fill-opacity: 0.2; stroke-width: 1; opacity: 1;"/><path class="sankey-link" d="M280,148.19767441860483C400,148.19767441860483 400,267.0542635658916 520,267.0542635658916L520,267.7713178294574C400,267.7713178294574 400,148.91472868217073 280,148.91472868217073Z" style="stroke: rgb(0, 0, 0); stroke-opacity: 0.2; fill: rgb(0, 0, 0); fill-opacity: 0.2; stroke-width: 1; opacity: 1;"/><path class="sankey-link" d="M280,143.1782945736436C400,143.1782945736436 400,109.65116279069763 520,109.65116279069763L520,110.36821705426352C400,110.36821705426352 400,143.8953488372095 280,143.8953488372095Z" style="stroke: rgb(0, 0, 0); stroke-opacity: 0.2; fill: rgb(0, 0, 0); fill-opacity: 0.2; stroke-width: 1; opacity: 1;"/><path class="sankey-link" d="M280,173.9534883720931C400,173.9534883720931 400,267.7713178294575 520,267.7713178294575L520,268.4883720930233C400,268.4883720930233 400,174.670542635659 280,174.670542635659Z" style="stroke: rgb(0, 0, 0); stroke-opacity: 0.2; fill: rgb(0, 0, 0); fill-opacity: 0.2; stroke-width: 1; opacity: 1;"/><path class="sankey-link" d="M280,174.670542635659C400,174.670542635659 400,316.41472868217056 520,316.41472868217056L520,317.1317829457364C400,317.1317829457364 400,175.3875968992249 280,175.3875968992249Z" style="stroke: rgb(0, 0, 0); stroke-opacity: 0.2; fill: rgb(0, 0, 0); fill-opacity: 0.2; stroke-width: 1; opacity: 1;"/><path class="sankey-link" d="M280,202.577519379845C400,202.577519379845 400,168.3333333333333 520,168.3333333333333L520,169.05038759689918C400,169.05038759689918 400,203.2945736434109 280,203.2945736434109Z" style="stroke: rgb(0, 0, 0); stroke-opacity: 0.2; fill: rgb(0, 0, 0); fill-opacity: 0.2; stroke-width: 1; opacity: 1;"/><path class="sankey-link" d="M280,143.8953488372095C400,143.8953488372095 400,137.55813953488374 520,137.55813953488374L520,138.27519379844964C400,138.27519379844964 400,144.6124031007754 280,144.6124031007754Z" style="stroke: rgb(0, 0, 0); stroke-opacity: 0.2; fill: rgb(0, 0, 0); fill-opacity: 0.2; stroke-width: 1; opacity: 1;"/><path class="sankey-link" d="M280,144.6124031007754C400,144.6124031007754 400,167.6162790697674 520,167.6162790697674L520,168.3333333333333C400,168.3333333333333 400,145.3294573643413 280,145.3294573643413Z" style="stroke: rgb(0, 0, 0); stroke-opacity: 0.2; fill: rgb(0, 0, 0); fill-opacity: 0.2; stroke-width: 1; opacity: 1;"/><path class="sankey-link" d="M280,203.2945736434109C400,203.2945736434109 400,195.52325581395345 520,195.52325581395345L520,196.24031007751935C400,196.24031007751935 400,204.0116279069768 280,204.0116279069768Z" style="stroke: rgb(0, 0, 0); stroke-opacity: 0.2; fill: rgb(0, 0, 0); fill-opacity: 0.2; stroke-width: 1; opacity: 1;"/><path class="sankey-link" d="M280,236.22093023255812C400,236.22093023255812 400,196.24031007751935 520,196.24031007751935L520,196.95736434108525C400,196.95736434108525 400,236.93798449612402 280,236.93798449612402Z" style="stroke: rgb(0, 0, 0); stroke-opacity: 0.2; fill: rgb(0, 0, 0); fill-opacity: 0.2; stroke-width: 1; opacity: 1;"/><path class="sankey-link" d="M280,274.16666666666663C400,274.16666666666663 400,113.95348837209296 520,113.95348837209296L520,114.67054263565886C400,114.67054263565886 400,274.88372093023247 280,274.88372093023247Z" style="stroke: rgb(0, 0, 0); stroke-opacity: 0.2; fill: rgb(0, 0, 0); fill-opacity: 0.2; stroke-width: 1; opacity: 1;"/><path class="sankey-link" d="M280,208.31395348837214C400,208.31395348837214 400,295.6782945736434 520,295.6782945736434L520,296.39534883720927C400,296.39534883720927 400,209.03100775193803 280,209.03100775193803Z" style="stroke: rgb(0, 0, 0); stroke-opacity: 0.2; fill: rgb(0, 0, 0); fill-opacity: 0.2; stroke-width: 1; opacity: 1;"/><path class="sankey-link" d="M280,311.3953488372093C400,311.3953488372093 400,299.2635658914729 520,299.2635658914729L520,299.98062015503876C400,299.98062015503876 400,312.11240310077517 280,312.11240310077517Z" style="stroke: rgb(0, 0, 0); stroke-opacity: 0.2; fill: rgb(0, 0, 0); fill-opacity: 0.2; stroke-width: 1; opacity: 1;"/><path class="sankey-link" d="M280,199.70930232558143C400,199.70930232558143 400,111.8023255813953 520,111.8023255813953L520,112.5193798449612C400,112.5193798449612 400,200.42635658914733 280,200.42635658914733Z" style="stroke: rgb(0, 0, 0); stroke-opacity: 0.2; fill: rgb(0, 0, 0); fill-opacity: 0.2; stroke-width: 1; opacity: 1;"/><path class="sankey-link" d="M280,37.88759689922504C400,37.88759689922504 400,214.82558139534876 520,214.82558139534876L520,215.54263565891466C400,215.54263565891466 400,38.60465116279092 280,38.60465116279092Z" style="stroke: rgb(0, 0, 0); stroke-opacity: 0.2; fill: rgb(0, 0, 0); fill-opacity: 0.2; stroke-width: 1; opacity: 1;"/><path class="sankey-link" d="M280,204.0116279069768C400,204.0116279069768 400,218.41085271317823 520,218.41085271317823L520,219.12790697674413C400,219.12790697674413 400,204.7286821705427 280,204.7286821705427Z" style="stroke: rgb(0, 0, 0); stroke-opacity: 0.2; fill: rgb(0, 0, 0); fill-opacity: 0.2; stroke-width: 1; opacity: 1;"/><path class="sankey-link" d="M280,173.2364341085272C400,173.2364341085272 400,242.01550387596893 520,242.01550387596893L520,242.73255813953483C400,242.73255813953483 400,173.9534883720931 280,173.9534883720931Z" style="stroke: rgb(0, 0, 0); stroke-opacity: 0.2; fill: rgb(0, 0, 0); fill-opacity: 0.2; stroke-width: 1; opacity: 1;"/><path class="sankey-link" d="M280,172.5193798449613C400,172.5193798449613 400,217.69379844961233 520,217.69379844961233L520,218.41085271317823C400,218.41085271317823 400,173.2364341085272 280,173.2364341085272Z" style="stroke: rgb(0, 0, 0); stroke-opacity: 0.2; fill: rgb(0, 0, 0); fill-opacity: 0.2; stroke-width: 1; opacity: 1;"/><path class="sankey-link" d="M280,38.60465116279093C400,38.60465116279093 400,236.2790697674418 520,236.2790697674418L520,236.9961240310077C400,236.9961240310077 400,39.321705426356814 280,39.321705426356814Z" style="stroke: rgb(0, 0, 0); stroke-opacity: 0.2; fill: rgb(0, 0, 0); fill-opacity: 0.2; stroke-width: 1; opacity: 1;"/><path class="sankey-link" d="M280,308.52713178294573C400,308.52713178294573 400,247.03488372093014 520,247.03488372093014L520,247.75193798449604C400,247.75193798449604 400,309.2441860465116 280,309.2441860465116Z" style="stroke: rgb(0, 0, 0); stroke-opacity: 0.2; fill: rgb(0, 0, 0); fill-opacity: 0.2; stroke-width: 1; opacity: 1;"/><path class="sankey-link" d="M280,169.65116279069775C400,169.65116279069775 400,110.36821705426351 520,110.36821705426351L520,111.80232558139528C400,111.80232558139528 400,171.08527131782955 280,171.08527131782955Z" style="stroke: rgb(68, 68, 68); stroke-opacity: 1; fill: rgb(0, 0, 0); fill-opacity: 0.2; stroke-width: 0; opacity: 1;"/><path class="sankey-link" d="M280,229.7674418604651C400,229.7674418604651 400,112.51937984496118 520,112.51937984496118L520,113.95348837209295C400,113.95348837209295 400,231.2015503875969 280,231.2015503875969Z" style="stroke: rgb(68, 68, 68); stroke-opacity: 1; fill: rgb(0, 0, 0); fill-opacity: 0.2; stroke-width: 0; opacity: 1;"/><path class="sankey-link" d="M280,34.30232558139558C400,34.30232558139558 400,161.16279069767438 520,161.16279069767438L520,162.59689922480618C400,162.59689922480618 400,35.73643410852736 280,35.73643410852736Z" style="stroke: rgb(68, 68, 68); stroke-opacity: 1; fill: rgb(0, 0, 0); fill-opacity: 0.2; stroke-width: 0; opacity: 1;"/><path class="sankey-link" d="M280,99.496124031008C400,99.496124031008 400,314.98062015503876 520,314.98062015503876L520,316.41472868217056C400,316.41472868217056 400,100.93023255813976 280,100.93023255813976Z" style="stroke: rgb(68, 68, 68); stroke-opacity: 1; fill: rgb(0, 0, 0); fill-opacity: 0.2; stroke-width: 0; opacity: 1;"/><path class="sankey-link" d="M280,145.3294573643413C400,145.3294573643413 400,194.08914728682169 520,194.08914728682169L520,195.52325581395348C400,195.52325581395348 400,146.7635658914731 280,146.7635658914731Z" style="stroke: rgb(68, 68, 68); stroke-opacity: 1; fill: rgb(0, 0, 0); fill-opacity: 0.2; stroke-width: 0; opacity: 1;"/><path class="sankey-link" d="M280,284.922480620155C400,284.922480620155 400,245.60077519379837 520,245.60077519379837L520,247.03488372093017C400,247.03488372093017 400,286.3565891472868 280,286.3565891472868Z" style="stroke: rgb(68, 68, 68); stroke-opacity: 1; fill: rgb(0, 0, 0); fill-opacity: 0.2; stroke-width: 0; opacity: 1;"/><path class="sankey-link" d="M280,236.93798449612402C400,236.93798449612402 400,244.1666666666666 520,244.1666666666666L520,245.6007751937984C400,245.6007751937984 400,238.37209302325581 280,238.37209302325581Z" style="stroke: rgb(68, 68, 68); stroke-opacity: 1; fill: rgb(0, 0, 0); fill-opacity: 0.2; stroke-width: 0; opacity: 1;"/><path class="sankey-link" d="M280,242.67441860465112C400,242.67441860465112 400,296.3953488372093 520,296.3953488372093L520,297.8294573643411C400,297.8294573643411 400,244.10852713178292 280,244.10852713178292Z" style="stroke: rgb(68, 68, 68); stroke-opacity: 1; fill: rgb(0, 0, 0); fill-opacity: 0.2; stroke-width: 0; opacity: 1;"/><path class="sankey-link" d="M280,286.3565891472868C400,286.3565891472868 400,297.8294573643411 520,297.8294573643411L520,299.2635658914729C400,299.2635658914729 400,287.7906976744186 280,287.7906976744186Z" style="stroke: rgb(68, 68, 68); stroke-opacity: 1; fill: rgb(0, 0, 0); fill-opacity: 0.2; stroke-width: 0; opacity: 1;"/><path class="sankey-link" d="M280,146.76356589147306C400,146.76356589147306 400,240.58139534883716 520,240.58139534883716L520,242.01550387596896C400,242.01550387596896 400,148.19767441860486 280,148.19767441860486Z" style="stroke: rgb(68, 68, 68); stroke-opacity: 1; fill: rgb(0, 0, 0); fill-opacity: 0.2; stroke-width: 0; opacity: 1;"/><path class="sankey-link" d="M280,171.08527131782952C400,171.08527131782952 400,138.27519379844964 520,138.27519379844964L520,139.70930232558143C400,139.70930232558143 400,172.51937984496132 280,172.51937984496132Z" style="stroke: rgb(68, 68, 68); stroke-opacity: 1; fill: rgb(0, 0, 0); fill-opacity: 0.2; stroke-width: 0; opacity: 1;"/><path class="sankey-link" d="M280,204.7286821705427C400,204.7286821705427 400,242.73255813953483 520,242.73255813953483L520,244.16666666666663C400,244.16666666666663 400,206.1627906976745 280,206.1627906976745Z" style="stroke: rgb(68, 68, 68); stroke-opacity: 1; fill: rgb(0, 0, 0); fill-opacity: 0.2; stroke-width: 0; opacity: 1;"/><path class="sankey-link" d="M280,85.87209302325608C400,85.87209302325608 400,191.93798449612402 520,191.93798449612402L520,194.0891472868217C400,194.0891472868217 400,88.02325581395375 280,88.02325581395375Z" style="stroke: rgb(68, 68, 68); stroke-opacity: 1; fill: rgb(0, 0, 0); fill-opacity: 0.2; stroke-width: 0; opacity: 1;"/><path class="sankey-link" d="M280,35.73643410852736C400,35.73643410852736 400,189.78682170542635 520,189.78682170542635L520,191.93798449612405C400,191.93798449612405 400,37.88759689922503 280,37.88759689922503Z" style="stroke: rgb(68, 68, 68); stroke-opacity: 1; fill: rgb(0, 0, 0); fill-opacity: 0.2; stroke-width: 0; opacity: 1;"/><path class="sankey-link" d="M280,287.7906976744186C400,287.7906976744186 400,317.84883720930236 520,317.84883720930236L520,320C400,320 400,289.94186046511624 280,289.94186046511624Z" style="stroke: rgb(68, 68, 68); stroke-opacity: 1; fill: rgb(0, 0, 0); fill-opacity: 0.2; stroke-width: 0; opacity: 1;"/><path class="sankey-link" d="M280,88.02325581395375C400,88.02325581395375 400,215.54263565891466 520,215.54263565891466L520,217.69379844961236C400,217.69379844961236 400,90.17441860465142 280,90.17441860465142Z" style="stroke: rgb(68, 68, 68); stroke-opacity: 1; fill: rgb(0, 0, 0); fill-opacity: 0.2; stroke-width: 0; opacity: 1;"/><path class="sankey-link" d="M280,274.8837209302325C400,274.8837209302325 400,144.01162790697674 520,144.01162790697674L520,146.16279069767444C400,146.16279069767444 400,277.03488372093017 280,277.03488372093017Z" style="stroke: rgb(68, 68, 68); stroke-opacity: 1; fill: rgb(0, 0, 0); fill-opacity: 0.2; stroke-width: 0; opacity: 1;"/><path class="sankey-link" d="M280,282.7713178294573C400,282.7713178294573 400,219.12790697674413 520,219.12790697674413L520,221.27906976744183C400,221.27906976744183 400,284.92248062015494 280,284.92248062015494Z" style="stroke: rgb(68, 68, 68); stroke-opacity: 1; fill: rgb(0, 0, 0); fill-opacity: 0.2; stroke-width: 0; opacity: 1;"/><path class="sankey-link" d="M280,32.1511627906979C400,32.1511627906979 400,129.67054263565893 520,129.67054263565893L520,131.82170542635663C400,131.82170542635663 400,34.30232558139557 280,34.30232558139557Z" style="stroke: rgb(68, 68, 68); stroke-opacity: 1; fill: rgb(0, 0, 0); fill-opacity: 0.2; stroke-width: 0; opacity: 1;"/><path class="sankey-link" d="M280,200.42635658914733C400,200.42635658914733 400,139.7093023255814 520,139.7093023255814L520,141.8604651162791C400,141.8604651162791 400,202.57751937984503 280,202.57751937984503Z" style="stroke: rgb(68, 68, 68); stroke-opacity: 1; fill: rgb(0, 0, 0); fill-opacity: 0.2; stroke-width: 0; opacity: 1;"/><path class="sankey-link" d="M280,30.000000000000227C400,30.000000000000227 400,103.1976744186046 520,103.1976744186046L520,105.34883720930227C400,105.34883720930227 400,32.1511627906979 280,32.1511627906979Z" style="stroke: rgb(68, 68, 68); stroke-opacity: 1; fill: rgb(0, 0, 0); fill-opacity: 0.2; stroke-width: 0; opacity: 1;"/><path class="sankey-link" d="M280,231.20155038759688C400,231.20155038759688 400,141.86046511627907 520,141.86046511627907L520,144.01162790697677C400,144.01162790697677 400,233.35271317829458 280,233.35271317829458Z" style="stroke: rgb(68, 68, 68); stroke-opacity: 1; fill: rgb(0, 0, 0); fill-opacity: 0.2; stroke-width: 0; opacity: 1;"/><path class="sankey-link" d="M280,206.16279069767447C400,206.16279069767447 400,268.4883720930234 520,268.4883720930234L520,270.639534883721C400,270.639534883721 400,208.31395348837216 280,208.31395348837216Z" style="stroke: rgb(68, 68, 68); stroke-opacity: 1; fill: rgb(0, 0, 0); fill-opacity: 0.2; stroke-width: 0; opacity: 1;"/><path class="sankey-link" d="M280,93.75968992248087C400,93.75968992248087 400,264.9031007751939 520,264.9031007751939L520,267.0542635658915C400,267.0542635658915 400,95.91085271317854 280,95.91085271317854Z" style="stroke: rgb(68, 68, 68); stroke-opacity: 1; fill: rgb(0, 0, 0); fill-opacity: 0.2; stroke-width: 0; opacity: 1;"/><path class="sankey-link" d="M280,39.32170542635682C400,39.32170542635682 400,262.7519379844962 520,262.7519379844962L520,264.9031007751938C400,264.9031007751938 400,41.47286821705449 280,41.47286821705449Z" style="stroke: rgb(68, 68, 68); stroke-opacity: 1; fill: rgb(0, 0, 0); fill-opacity: 0.2; stroke-width: 0; opacity: 1;"/><path class="sankey-link" d="M280,309.24418604651163C400,309.24418604651163 400,274.9418604651164 520,274.9418604651164L520,277.09302325581405C400,277.09302325581405 400,311.39534883720927 280,311.39534883720927Z" style="stroke: rgb(68, 68, 68); stroke-opacity: 1; fill: rgb(0, 0, 0); fill-opacity: 0.2; stroke-width: 0; opacity: 1;"/><path class="sankey-link" d="M280,233.35271317829455C400,233.35271317829455 400,169.05038759689918 520,169.05038759689918L520,171.91860465116272C400,171.91860465116272 400,236.2209302325581 280,236.2209302325581Z" style="stroke: rgb(68, 68, 68); stroke-opacity: 1; fill: rgb(0, 0, 0); fill-opacity: 0.2; stroke-width: 0; opacity: 1;"/><path class="sankey-link" d="M280,279.90310077519376C400,279.90310077519376 400,196.95736434108525 520,196.95736434108525L520,199.8255813953488C400,199.8255813953488 400,282.77131782945736 280,282.77131782945736Z" style="stroke: rgb(68, 68, 68); stroke-opacity: 1; fill: rgb(0, 0, 0); fill-opacity: 0.2; stroke-width: 0; opacity: 1;"/><path class="sankey-link" d="M280,277.0348837209302C400,277.0348837209302 400,171.91860465116275 520,171.91860465116275L520,174.7868217054263C400,174.7868217054263 400,279.9031007751938 280,279.9031007751938Z" style="stroke: rgb(68, 68, 68); stroke-opacity: 1; fill: rgb(0, 0, 0); fill-opacity: 0.2; stroke-width: 0; opacity: 1;"/><path class="sankey-link" d="M280,95.91085271317854C400,95.91085271317854 400,292.093023255814 520,292.093023255814L520,295.6782945736434C400,295.6782945736434 400,99.49612403100801 280,99.49612403100801Z" style="stroke: rgb(68, 68, 68); stroke-opacity: 1; fill: rgb(0, 0, 0); fill-opacity: 0.2; stroke-width: 0; opacity: 1;"/><path class="sankey-link" d="M280,90.17441860465142C400,90.17441860465142 400,236.9961240310077 520,236.9961240310077L520,240.58139534883713C400,240.58139534883713 400,93.75968992248089 280,93.75968992248089Z" style="stroke: rgb(68, 68, 68); stroke-opacity: 1; fill: rgb(0, 0, 0); fill-opacity: 0.2; stroke-width: 0; opacity: 1;"/><path class="sankey-link" d="M280,238.3720930232558C400,238.3720930232558 400,270.63953488372107 520,270.63953488372107L520,274.94186046511646C400,274.94186046511646 400,242.67441860465112 280,242.67441860465112Z" style="stroke: rgb(68, 68, 68); stroke-opacity: 1; fill: rgb(0, 0, 0); fill-opacity: 0.2; stroke-width: 0; opacity: 1;"/><path class="sankey-link" d="M280,70.81395348837236C400,70.81395348837236 400,105.34883720930227 520,105.34883720930227L520,109.65116279069761C400,109.65116279069761 400,75.1162790697677 280,75.1162790697677Z" style="stroke: rgb(68, 68, 68); stroke-opacity: 1; fill: rgb(0, 0, 0); fill-opacity: 0.2; stroke-width: 0; opacity: 1;"/><path class="sankey-link" d="M280,80.85271317829485C400,80.85271317829485 400,162.59689922480615 520,162.59689922480615L520,167.6162790697674C400,167.6162790697674 400,85.87209302325608 280,85.87209302325608Z" style="stroke: rgb(68, 68, 68); stroke-opacity: 1; fill: rgb(0, 0, 0); fill-opacity: 0.2; stroke-width: 0; opacity: 1;"/><path class="sankey-link" d="M280,75.11627906976771C400,75.11627906976771 400,131.8217054263566 520,131.8217054263566L520,137.55813953488374C400,137.55813953488374 400,80.85271317829485 280,80.85271317829485Z" style="stroke: rgb(68, 68, 68); stroke-opacity: 1; fill: rgb(0, 0, 0); fill-opacity: 0.2; stroke-width: 0; opacity: 1;"/></g><g class="sankey-node-set" style="cursor: move;"><g class="sankey-node" transform="translate(0.000,239.147)" style="opacity: 1;"><rect class="node-rect" width="20" height="11.47286821705427" style="stroke-width: 0.5; stroke: rgb(0, 0, 0); stroke-opacity: 1; fill: rgb(0, 0, 255); fill-opacity: 1;"/><text class="node-label" data-notex="1" x="0" y="0" text-anchor="start" transform="translate(23.25,9.936434108527134)" style="cursor: default; font-family: 'Open Sans', verdana, arial, sans-serif; font-size: 12px; fill: rgb(42, 63, 95); fill-opacity: 1; white-space: pre; text-shadow: white 1px 1px 1px, white -1px -1px 1px, white 1px -1px 1px, white -1px 1px 1px;">Classification</text></g><g class="sankey-node" transform="translate(0.000,0.000)" style="opacity: 1;"><rect class="node-rect" width="20" height="42.30620155038761" style="stroke-width: 0.5; stroke: rgb(0, 0, 0); stroke-opacity: 1; fill: rgb(0, 0, 255); fill-opacity: 1;"/><text class="node-label" data-notex="1" x="0" y="0" text-anchor="start" transform="translate(23.25,25.353100775193806)" style="cursor: default; font-family: 'Open Sans', verdana, arial, sans-serif; font-size: 12px; fill: rgb(42, 63, 95); fill-opacity: 1; white-space: pre; text-shadow: white 1px 1px 1px, white -1px -1px 1px, white 1px -1px 1px, white -1px 1px 1px;">Clustering</text></g><g class="sankey-node" transform="translate(0.000,288.508)" style="opacity: 1;"><rect class="node-rect" width="20" height="10.75581395348837" style="stroke-width: 0.5; stroke: rgb(0, 0, 0); stroke-opacity: 1; fill: rgb(0, 0, 255); fill-opacity: 1;"/><text class="node-label" data-notex="1" x="0" y="0" text-anchor="start" transform="translate(23.25,9.577906976744185)" style="cursor: default; font-family: 'Open Sans', verdana, arial, sans-serif; font-size: 12px; fill: rgb(42, 63, 95); fill-opacity: 1; white-space: pre; text-shadow: white 1px 1px 1px, white -1px -1px 1px, white 1px -1px 1px, white -1px 1px 1px;">Deep learning</text></g><g class="sankey-node" transform="translate(0.000,171.919)" style="opacity: 1;"><rect class="node-rect" width="20" height="5.736434108527135" style="stroke-width: 0.5; stroke: rgb(0, 0, 0); stroke-opacity: 1; fill: rgb(0, 0, 255); fill-opacity: 1;"/><text class="node-label" data-notex="1" x="0" y="0" text-anchor="start" transform="translate(23.25,7.068217054263567)" style="cursor: default; font-family: 'Open Sans', verdana, arial, sans-serif; font-size: 12px; fill: rgb(42, 63, 95); fill-opacity: 1; white-space: pre; text-shadow: white 1px 1px 1px, white -1px -1px 1px, white 1px -1px 1px, white -1px 1px 1px;">Descriptive statistics</text></g><g class="sankey-node" transform="translate(0.000,314.264)" style="opacity: 1;"><rect class="node-rect" width="20" height="5.736434108527192" style="stroke-width: 0.5; stroke: rgb(0, 0, 0); stroke-opacity: 1; fill: rgb(0, 0, 255); fill-opacity: 1;"/><text class="node-label" data-notex="1" x="0" y="0" text-anchor="start" transform="translate(23.25,7.068217054263595)" style="cursor: default; font-family: 'Open Sans', verdana, arial, sans-serif; font-size: 12px; fill: rgb(42, 63, 95); fill-opacity: 1; white-space: pre; text-shadow: white 1px 1px 1px, white -1px -1px 1px, white 1px -1px 1px, white -1px 1px 1px;">Language model</text></g><g class="sankey-node" transform="translate(0.000,214.826)" style="opacity: 1;"><rect class="node-rect" width="20" height="9.321705426356573" style="stroke-width: 0.5; stroke: rgb(0, 0, 0); stroke-opacity: 1; fill: rgb(0, 0, 255); fill-opacity: 1;"/><text class="node-label" data-notex="1" x="0" y="0" text-anchor="start" transform="translate(23.25,8.860852713178286)" style="cursor: default; font-family: 'Open Sans', verdana, arial, sans-serif; font-size: 12px; fill: rgb(42, 63, 95); fill-opacity: 1; white-space: pre; text-shadow: white 1px 1px 1px, white -1px -1px 1px, white 1px -1px 1px, white -1px 1px 1px;">Modelo propio</text></g><g class="sankey-node" transform="translate(0.000,192.655)" style="opacity: 1;"><rect class="node-rect" width="20" height="7.170542635658933" style="stroke-width: 0.5; stroke: rgb(0, 0, 0); stroke-opacity: 1; fill: rgb(0, 0, 255); fill-opacity: 1;"/><text class="node-label" data-notex="1" x="0" y="0" text-anchor="start" transform="translate(23.25,7.785271317829466)" style="cursor: default; font-family: 'Open Sans', verdana, arial, sans-serif; font-size: 12px; fill: rgb(42, 63, 95); fill-opacity: 1; white-space: pre; text-shadow: white 1px 1px 1px, white -1px -1px 1px, white 1px -1px 1px, white -1px 1px 1px;">OD matrix</text></g><g class="sankey-node" transform="translate(0.000,265.620)" style="opacity: 1;"><rect class="node-rect" width="20" height="7.887596899224832" style="stroke-width: 0.5; stroke: rgb(0, 0, 0); stroke-opacity: 1; fill: rgb(0, 0, 255); fill-opacity: 1;"/><text class="node-label" data-notex="1" x="0" y="0" text-anchor="start" transform="translate(23.25,8.143798449612415)" style="cursor: default; font-family: 'Open Sans', verdana, arial, sans-serif; font-size: 12px; fill: rgb(42, 63, 95); fill-opacity: 1; white-space: pre; text-shadow: white 1px 1px 1px, white -1px -1px 1px, white 1px -1px 1px, white -1px 1px 1px;">Probability model</text></g><g class="sankey-node" transform="translate(0.000,57.306)" style="opacity: 1;"><rect class="node-rect" width="20" height="45.17441860465104" style="stroke-width: 0.5; stroke: rgb(0, 0, 0); stroke-opacity: 1; fill: rgb(0, 0, 255); fill-opacity: 1;"/><text class="node-label" data-notex="1" x="0" y="0" text-anchor="start" transform="translate(23.25,26.787209302325518)" style="cursor: default; font-family: 'Open Sans', verdana, arial, sans-serif; font-size: 12px; fill: rgb(42, 63, 95); fill-opacity: 1; white-space: pre; text-shadow: white 1px 1px 1px, white -1px -1px 1px, white 1px -1px 1px, white -1px 1px 1px;">Regression</text></g><g class="sankey-node" transform="translate(0.000,117.481)" style="opacity: 1;"><rect class="node-rect" width="20" height="39.43798449612393" style="stroke-width: 0.5; stroke: rgb(0, 0, 0); stroke-opacity: 1; fill: rgb(0, 0, 255); fill-opacity: 1;"/><text class="node-label" data-notex="1" x="0" y="0" text-anchor="start" transform="translate(23.25,23.918992248061965)" style="cursor: default; font-family: 'Open Sans', verdana, arial, sans-serif; font-size: 12px; fill: rgb(42, 63, 95); fill-opacity: 1; white-space: pre; text-shadow: white 1px 1px 1px, white -1px -1px 1px, white 1px -1px 1px, white -1px 1px 1px;">Other</text></g><g class="sankey-node" transform="translate(260.000,70.814)" style="opacity: 1;"><rect class="node-rect" width="20" height="57.364341085271235" style="stroke-width: 0.5; stroke: rgb(0, 0, 0); stroke-opacity: 1; fill: rgb(0, 0, 255); fill-opacity: 1;"/><text class="node-label" data-notex="1" x="0" y="0" text-anchor="start" transform="translate(23.25,32.88217054263562)" style="cursor: default; font-family: 'Open Sans', verdana, arial, sans-serif; font-size: 12px; fill: rgb(42, 63, 95); fill-opacity: 1; white-space: pre; text-shadow: white 1px 1px 1px, white -1px -1px 1px, white 1px -1px 1px, white -1px 1px 1px;">Analisis de patrones</text></g><g class="sankey-node" transform="translate(260.000,30.000)" style="opacity: 1;"><rect class="node-rect" width="20" height="25.813953488372135" style="stroke-width: 0.5; stroke: rgb(0, 0, 0); stroke-opacity: 1; fill: rgb(0, 0, 255); fill-opacity: 1;"/><text class="node-label" data-notex="1" x="0" y="0" text-anchor="start" transform="translate(23.25,17.106976744186067)" style="cursor: default; font-family: 'Open Sans', verdana, arial, sans-serif; font-size: 12px; fill: rgb(42, 63, 95); fill-opacity: 1; white-space: pre; text-shadow: white 1px 1px 1px, white -1px -1px 1px, white 1px -1px 1px, white -1px 1px 1px;">Clasificación</text></g><g class="sankey-node" transform="translate(260.000,199.709)" style="opacity: 1;"><rect class="node-rect" width="20" height="15.058139534883708" style="stroke-width: 0.5; stroke: rgb(0, 0, 0); stroke-opacity: 1; fill: rgb(0, 0, 255); fill-opacity: 1;"/><text class="node-label" data-notex="1" x="0" y="0" text-anchor="start" transform="translate(23.25,11.729069767441853)" style="cursor: default; font-family: 'Open Sans', verdana, arial, sans-serif; font-size: 12px; fill: rgb(42, 63, 95); fill-opacity: 1; white-space: pre; text-shadow: white 1px 1px 1px, white -1px -1px 1px, white 1px -1px 1px, white -1px 1px 1px;">Flujo de pasajeros</text></g><g class="sankey-node" transform="translate(260.000,274.167)" style="opacity: 1;"><rect class="node-rect" width="20" height="19.3604651162791" style="stroke-width: 0.5; stroke: rgb(0, 0, 0); stroke-opacity: 1; fill: rgb(0, 0, 255); fill-opacity: 1;"/><text class="node-label" data-notex="1" x="0" y="0" text-anchor="start" transform="translate(23.25,13.88023255813955)" style="cursor: default; font-family: 'Open Sans', verdana, arial, sans-serif; font-size: 12px; fill: rgb(42, 63, 95); fill-opacity: 1; white-space: pre; text-shadow: white 1px 1px 1px, white -1px -1px 1px, white 1px -1px 1px, white -1px 1px 1px;">Indicadores rendimiento</text></g><g class="sankey-node" transform="translate(260.000,169.651)" style="opacity: 1;"><rect class="node-rect" width="20" height="15.05813953488368" style="stroke-width: 0.5; stroke: rgb(0, 0, 0); stroke-opacity: 1; fill: rgb(0, 0, 255); fill-opacity: 1;"/><text class="node-label" data-notex="1" x="0" y="0" text-anchor="start" transform="translate(23.25,11.729069767441839)" style="cursor: default; font-family: 'Open Sans', verdana, arial, sans-serif; font-size: 12px; fill: rgb(42, 63, 95); fill-opacity: 1; white-space: pre; text-shadow: white 1px 1px 1px, white -1px -1px 1px, white 1px -1px 1px, white -1px 1px 1px;">OD matrix</text></g><g class="sankey-node" transform="translate(260.000,229.767)" style="opacity: 1;"><rect class="node-rect" width="20" height="29.399224806201516" style="stroke-width: 0.5; stroke: rgb(0, 0, 0); stroke-opacity: 1; fill: rgb(0, 0, 255); fill-opacity: 1;"/><text class="node-label" data-notex="1" x="0" y="0" text-anchor="start" transform="translate(23.25,18.899612403100758)" style="cursor: default; font-family: 'Open Sans', verdana, arial, sans-serif; font-size: 12px; fill: rgb(42, 63, 95); fill-opacity: 1; white-space: pre; text-shadow: white 1px 1px 1px, white -1px -1px 1px, white 1px -1px 1px, white -1px 1px 1px;">Other</text></g><g class="sankey-node" transform="translate(260.000,143.178)" style="opacity: 1;"><rect class="node-rect" width="20" height="11.472868217054156" style="stroke-width: 0.5; stroke: rgb(0, 0, 0); stroke-opacity: 1; fill: rgb(0, 0, 255); fill-opacity: 1;"/><text class="node-label" data-notex="1" x="0" y="0" text-anchor="start" transform="translate(23.25,9.936434108527077)" style="cursor: default; font-family: 'Open Sans', verdana, arial, sans-serif; font-size: 12px; fill: rgb(42, 63, 95); fill-opacity: 1; white-space: pre; text-shadow: white 1px 1px 1px, white -1px -1px 1px, white 1px -1px 1px, white -1px 1px 1px;">Path planning/finding</text></g><g class="sankey-node" transform="translate(260.000,308.527)" style="opacity: 1;"><rect class="node-rect" width="20" height="11.47286821705427" style="stroke-width: 0.5; stroke: rgb(0, 0, 0); stroke-opacity: 1; fill: rgb(0, 0, 255); fill-opacity: 1;"/><text class="node-label" data-notex="1" x="0" y="0" text-anchor="start" transform="translate(23.25,9.936434108527134)" style="cursor: default; font-family: 'Open Sans', verdana, arial, sans-serif; font-size: 12px; fill: rgb(42, 63, 95); fill-opacity: 1; white-space: pre; text-shadow: white 1px 1px 1px, white -1px -1px 1px, white 1px -1px 1px, white -1px 1px 1px;">Prediccion demanda</text></g><g class="sankey-node" transform="translate(520.000,214.826)" style="opacity: 1;"><rect class="node-rect" width="20" height="6.453488372093034" style="stroke-width: 0.5; stroke: rgb(0, 0, 0); stroke-opacity: 1; fill: rgb(0, 0, 255); fill-opacity: 1;"/><text class="node-label" data-notex="1" x="0" y="0" text-anchor="end" transform="translate(-3.25,7.426744186046516)" style="cursor: default; font-family: 'Open Sans', verdana, arial, sans-serif; font-size: 12px; fill: rgb(42, 63, 95); fill-opacity: 1; white-space: pre; text-shadow: white 1px 1px 1px, white -1px -1px 1px, white 1px -1px 1px, white -1px 1px 1px;">Land use</text></g><g class="sankey-node" transform="translate(520.000,236.279)" style="opacity: 1;"><rect class="node-rect" width="20" height="11.472868217054383" style="stroke-width: 0.5; stroke: rgb(0, 0, 0); stroke-opacity: 1; fill: rgb(0, 0, 255); fill-opacity: 1;"/><text class="node-label" data-notex="1" x="0" y="0" text-anchor="end" transform="translate(-3.25,9.936434108527191)" style="cursor: default; font-family: 'Open Sans', verdana, arial, sans-serif; font-size: 12px; fill: rgb(42, 63, 95); fill-opacity: 1; white-space: pre; text-shadow: white 1px 1px 1px, white -1px -1px 1px, white 1px -1px 1px, white -1px 1px 1px;">Layers</text></g><g class="sankey-node" transform="translate(520.000,292.093)" style="opacity: 1;"><rect class="node-rect" width="20" height="7.887596899224775" style="stroke-width: 0.5; stroke: rgb(0, 0, 0); stroke-opacity: 1; fill: rgb(0, 0, 255); fill-opacity: 1;"/><text class="node-label" data-notex="1" x="0" y="0" text-anchor="end" transform="translate(-3.25,8.143798449612387)" style="cursor: default; font-family: 'Open Sans', verdana, arial, sans-serif; font-size: 12px; fill: rgb(42, 63, 95); fill-opacity: 1; white-space: pre; text-shadow: white 1px 1px 1px, white -1px -1px 1px, white 1px -1px 1px, white -1px 1px 1px;">Meteorological</text></g><g class="sankey-node" transform="translate(520.000,129.671)" style="opacity: 1;"><rect class="node-rect" width="20" height="16.49224806201545" style="stroke-width: 0.5; stroke: rgb(0, 0, 0); stroke-opacity: 1; fill: rgb(0, 0, 255); fill-opacity: 1;"/><text class="node-label" data-notex="1" x="0" y="0" text-anchor="end" transform="translate(-3.25,12.446124031007724)" style="cursor: default; font-family: 'Open Sans', verdana, arial, sans-serif; font-size: 12px; fill: rgb(42, 63, 95); fill-opacity: 1; white-space: pre; text-shadow: white 1px 1px 1px, white -1px -1px 1px, white 1px -1px 1px, white -1px 1px 1px;">Network</text></g><g class="sankey-node" transform="translate(520.000,103.198)" style="opacity: 1;"><rect class="node-rect" width="20" height="11.472868217054312" style="stroke-width: 0.5; stroke: rgb(0, 0, 0); stroke-opacity: 1; fill: rgb(0, 0, 255); fill-opacity: 1;"/><text class="node-label" data-notex="1" x="0" y="0" text-anchor="end" transform="translate(-3.25,9.936434108527155)" style="cursor: default; font-family: 'Open Sans', verdana, arial, sans-serif; font-size: 12px; fill: rgb(42, 63, 95); fill-opacity: 1; white-space: pre; text-shadow: white 1px 1px 1px, white -1px -1px 1px, white 1px -1px 1px, white -1px 1px 1px;">POI</text></g><g class="sankey-node" transform="translate(520.000,161.163)" style="opacity: 1;"><rect class="node-rect" width="20" height="13.624031007751967" style="stroke-width: 0.5; stroke: rgb(0, 0, 0); stroke-opacity: 1; fill: rgb(0, 0, 255); fill-opacity: 1;"/><text class="node-label" data-notex="1" x="0" y="0" text-anchor="end" transform="translate(-3.25,11.012015503875983)" style="cursor: default; font-family: 'Open Sans', verdana, arial, sans-serif; font-size: 12px; fill: rgb(42, 63, 95); fill-opacity: 1; white-space: pre; text-shadow: white 1px 1px 1px, white -1px -1px 1px, white 1px -1px 1px, white -1px 1px 1px;">Social/Demographic/Economic</text></g><g class="sankey-node" transform="translate(520.000,189.787)" style="opacity: 1;"><rect class="node-rect" width="20" height="10.038759689922415" style="stroke-width: 0.5; stroke: rgb(0, 0, 0); stroke-opacity: 1; fill: rgb(0, 0, 255); fill-opacity: 1;"/><text class="node-label" data-notex="1" x="0" y="0" text-anchor="end" transform="translate(-3.25,9.219379844961207)" style="cursor: default; font-family: 'Open Sans', verdana, arial, sans-serif; font-size: 12px; fill: rgb(42, 63, 95); fill-opacity: 1; white-space: pre; text-shadow: white 1px 1px 1px, white -1px -1px 1px, white 1px -1px 1px, white -1px 1px 1px;">Transit Feed</text></g><g class="sankey-node" transform="translate(520.000,314.981)" style="opacity: 1;"><rect class="node-rect" width="20" height="5.019379844961236" style="stroke-width: 0.5; stroke: rgb(0, 0, 0); stroke-opacity: 1; fill: rgb(0, 0, 255); fill-opacity: 1;"/><text class="node-label" data-notex="1" x="0" y="0" text-anchor="end" transform="translate(-3.25,6.709689922480617)" style="cursor: default; font-family: 'Open Sans', verdana, arial, sans-serif; font-size: 12px; fill: rgb(42, 63, 95); fill-opacity: 1; white-space: pre; text-shadow: white 1px 1px 1px, white -1px -1px 1px, white 1px -1px 1px, white -1px 1px 1px;">Travel data</text></g><g class="sankey-node" transform="translate(520.000,262.752)" style="opacity: 1;"><rect class="node-rect" width="20" height="14.341085271317809" style="stroke-width: 0.5; stroke: rgb(0, 0, 0); stroke-opacity: 1; fill: rgb(0, 0, 255); fill-opacity: 1;"/><text class="node-label" data-notex="1" x="0" y="0" text-anchor="end" transform="translate(-3.25,11.370542635658904)" style="cursor: default; font-family: 'Open Sans', verdana, arial, sans-serif; font-size: 12px; fill: rgb(42, 63, 95); fill-opacity: 1; white-space: pre; text-shadow: white 1px 1px 1px, white -1px -1px 1px, white 1px -1px 1px, white -1px 1px 1px;">Other</text></g></g></g><defs id="topdefs-7ea93c"><g class="clips"/></defs><g class="layer-above"><g class="imagelayer"/><g class="shapelayer"/></g><g class="infolayer"><g class="g-gtitle"><text class="gtitle" x="35" y="50" text-anchor="start" dy="0em" style="font-family: 'Open Sans', verdana, arial, sans-serif; font-size: 17px; fill: rgb(42, 63, 95); opacity: 1; font-weight: normal; white-space: pre;">Basic Sankey Diagram</text></g><g class="first-render"/></g></svg>