<svg class="main-svg" xmlns="http://www.w3.org/2000/svg" xmlns:xlink="http://www.w3.org/1999/xlink" width="700" height="500" style="" viewBox="0 0 700 500"><rect x="0" y="0" width="700" height="500" style="fill: rgb(255, 255, 255); fill-opacity: 1;"/><defs id="defs-dab43a"><g class="clips"/><g class="gradients"/><g class="patterns"/></defs><g class="bglayer"/><g class="layer-below"><g class="imagelayer"/><g class="shapelayer"/></g><g class="cartesianlayer"/><g class="polarlayer"/><g class="smithlayer"/><g class="ternarylayer"/><g class="geolayer"/><g class="funnelarealayer"/><g class="pielayer"/><g class="iciclelayer"/><g class="treemaplayer"/><g class="sunburstlayer"/><g class="glimages"/><g class="sankey" transform="translate(80,100)matrix(1 0 0 1 0 0)" style="box-sizing: content-box; position: absolute; left: 0px; shape-rendering: geometricprecision; pointer-events: none;"><g class="sankey-links" style="fill: none;"><path class="sankey-link" d="M20,272.07364341085264C270,272.07364341085264 270,287.0736434108527 520,287.0736434108527L520,287.79069767441854C270,287.79069767441854 270,272.7906976744185 20,272.7906976744185Z" style="stroke: rgb(0, 0, 0); stroke-opacity: 0.2; fill: rgb(0, 0, 0); fill-opacity: 0.2; stroke-width: 1; opacity: 1;"/><path class="sankey-link" d="M20,62.325581395348884C270,62.325581395348884 270,214.76744186046488 520,214.76744186046488L520,215.48449612403078C270,215.48449612403078 270,63.04263565891477 20,63.04263565891477Z" style="stroke: rgb(0, 0, 0); stroke-opacity: 0.2; fill: rgb(0, 0, 0); fill-opacity: 0.2; stroke-width: 1; opacity: 1;"/><path class="sankey-link" d="M20,61.60852713178299C270,61.60852713178299 270,173.23643410852694 520,173.23643410852694L520,173.95348837209283C270,173.95348837209283 270,62.32558139534888 20,62.32558139534888Z" style="stroke: rgb(0, 0, 0); stroke-opacity: 0.2; fill: rgb(0, 0, 0); fill-opacity: 0.2; stroke-width: 1; opacity: 1;"/><path class="sankey-link" d="M20,81.62790697674423C270,81.62790697674423 270,173.95348837209283 520,173.95348837209283L520,174.67054263565873C270,174.67054263565873 270,82.34496124031013 20,82.34496124031013Z" style="stroke: rgb(0, 0, 0); stroke-opacity: 0.2; fill: rgb(0, 0, 0); fill-opacity: 0.2; stroke-width: 1; opacity: 1;"/><path class="sankey-link" d="M20,196.89922480620146C270,196.89922480620146 270,151.78294573643387 520,151.78294573643387L520,152.49999999999977C270,152.49999999999977 270,197.61627906976736 20,197.61627906976736Z" style="stroke: rgb(0, 0, 0); stroke-opacity: 0.2; fill: rgb(0, 0, 0); fill-opacity: 0.2; stroke-width: 1; opacity: 1;"/><path class="sankey-link" d="M20,168.9922480620154C270,168.9922480620154 270,309.24418604651163 520,309.24418604651163L520,309.96124031007747C270,309.96124031007747 270,169.7093023255813 20,169.7093023255813Z" style="stroke: rgb(0, 0, 0); stroke-opacity: 0.2; fill: rgb(0, 0, 0); fill-opacity: 0.2; stroke-width: 1; opacity: 1;"/><path class="sankey-link" d="M20,168.2751937984495C270,168.2751937984495 270,280.62015503875966 520,280.62015503875966L520,281.3372093023255C270,281.3372093023255 270,168.9922480620154 20,168.9922480620154Z" style="stroke: rgb(0, 0, 0); stroke-opacity: 0.2; fill: rgb(0, 0, 0); fill-opacity: 0.2; stroke-width: 1; opacity: 1;"/><path class="sankey-link" d="M20,32.98449612403106C270,32.98449612403106 270,143.1782945736432 520,143.1782945736432L520,143.8953488372091C270,143.8953488372091 270,33.701550387596946 20,33.701550387596946Z" style="stroke: rgb(0, 0, 0); stroke-opacity: 0.2; fill: rgb(0, 0, 0); fill-opacity: 0.2; stroke-width: 1; opacity: 1;"/><path class="sankey-link" d="M20,37.28682170542641C270,37.28682170542641 270,214.050387596899 520,214.050387596899L520,214.76744186046488C270,214.76744186046488 270,38.0038759689923 20,38.0038759689923Z" style="stroke: rgb(0, 0, 0); stroke-opacity: 0.2; fill: rgb(0, 0, 0); fill-opacity: 0.2; stroke-width: 1; opacity: 1;"/><path class="sankey-link" d="M20,41.58914728682176C270,41.58914728682176 270,304.9418604651163 520,304.9418604651163L520,305.65891472868213C270,305.65891472868213 270,42.30620155038765 20,42.30620155038765Z" style="stroke: rgb(0, 0, 0); stroke-opacity: 0.2; fill: rgb(0, 0, 0); fill-opacity: 0.2; stroke-width: 1; opacity: 1;"/><path class="sankey-link" d="M20,167.5581395348836C270,167.5581395348836 270,247.69379844961216 520,247.69379844961216L520,248.41085271317806C270,248.41085271317806 270,168.2751937984495 20,168.2751937984495Z" style="stroke: rgb(0, 0, 0); stroke-opacity: 0.2; fill: rgb(0, 0, 0); fill-opacity: 0.2; stroke-width: 1; opacity: 1;"/><path class="sankey-link" d="M20,268.48837209302314C270,268.48837209302314 270,153.21705426356567 520,153.21705426356567L520,153.93410852713157C270,153.93410852713157 270,269.205426356589 20,269.205426356589Z" style="stroke: rgb(0, 0, 0); stroke-opacity: 0.2; fill: rgb(0, 0, 0); fill-opacity: 0.2; stroke-width: 1; opacity: 1;"/><path class="sankey-link" d="M20,319.28294573643416C270,319.28294573643416 270,319.28294573643416 520,319.28294573643416L520,320C270,320 270,320 20,320Z" style="stroke: rgb(0, 0, 0); stroke-opacity: 0.2; fill: rgb(0, 0, 0); fill-opacity: 0.2; stroke-width: 1; opacity: 1;"/><path class="sankey-link" d="M20,239.14728682170534C270,239.14728682170534 270,55.096899224805895 520,55.096899224805895L520,55.81395348837178C270,55.81395348837178 270,239.86434108527123 20,239.86434108527123Z" style="stroke: rgb(0, 0, 0); stroke-opacity: 0.2; fill: rgb(0, 0, 0); fill-opacity: 0.2; stroke-width: 1; opacity: 1;"/><path class="sankey-link" d="M20,313.54651162790697C270,313.54651162790697 270,153.93410852713157 520,153.93410852713157L520,154.65116279069747C270,154.65116279069747 270,314.2635658914728 20,314.2635658914728Z" style="stroke: rgb(0, 0, 0); stroke-opacity: 0.2; fill: rgb(0, 0, 0); fill-opacity: 0.2; stroke-width: 1; opacity: 1;"/><path class="sankey-link" d="M20,242.0155038759689C270,242.0155038759689 270,152.49999999999977 520,152.49999999999977L520,153.21705426356567C270,153.21705426356567 270,242.7325581395348 20,242.7325581395348Z" style="stroke: rgb(0, 0, 0); stroke-opacity: 0.2; fill: rgb(0, 0, 0); fill-opacity: 0.2; stroke-width: 1; opacity: 1;"/><path class="sankey-link" d="M20,244.88372093023247C270,244.88372093023247 270,222.6550387596897 520,222.6550387596897L520,223.3720930232556C270,223.3720930232556 270,245.60077519379837 20,245.60077519379837Z" style="stroke: rgb(0, 0, 0); stroke-opacity: 0.2; fill: rgb(0, 0, 0); fill-opacity: 0.2; stroke-width: 1; opacity: 1;"/><path class="sankey-link" d="M20,315.69767441860466C270,315.69767441860466 270,224.80620155038736 520,224.80620155038736L520,225.52325581395326C270,225.52325581395326 270,316.4147286821705 20,316.4147286821705Z" style="stroke: rgb(0, 0, 0); stroke-opacity: 0.2; fill: rgb(0, 0, 0); fill-opacity: 0.2; stroke-width: 1; opacity: 1;"/><path class="sankey-link" d="M20,316.41472868217056C270,316.41472868217056 270,259.16666666666646 520,259.16666666666646L520,259.8837209302323C270,259.8837209302323 270,317.1317829457364 20,317.1317829457364Z" style="stroke: rgb(0, 0, 0); stroke-opacity: 0.2; fill: rgb(0, 0, 0); fill-opacity: 0.2; stroke-width: 1; opacity: 1;"/><path class="sankey-link" d="M20,269.20542635658904C270,269.20542635658904 270,194.7480620155037 520,194.7480620155037L520,196.1821705426355C270,196.1821705426355 270,270.63953488372084 20,270.63953488372084Z" style="stroke: rgb(68, 68, 68); stroke-opacity: 1; fill: rgb(0, 0, 0); fill-opacity: 0.2; stroke-width: 0; opacity: 1;"/><path class="sankey-link" d="M20,293.52713178294573C270,293.52713178294573 270,257.73255813953466 520,257.73255813953466L520,259.16666666666646C270,259.16666666666646 270,294.9612403100775 20,294.9612403100775Z" style="stroke: rgb(68, 68, 68); stroke-opacity: 1; fill: rgb(0, 0, 0); fill-opacity: 0.2; stroke-width: 0; opacity: 1;"/><path class="sankey-link" d="M20,60.17441860465121C270,60.17441860465121 270,143.8953488372091 520,143.8953488372091L520,145.3294573643409C270,145.3294573643409 270,61.60852713178299 20,61.60852713178299Z" style="stroke: rgb(68, 68, 68); stroke-opacity: 1; fill: rgb(0, 0, 0); fill-opacity: 0.2; stroke-width: 0; opacity: 1;"/><path class="sankey-link" d="M20,57.30620155038764C270,57.30620155038764 270,45.05813953488341 520,45.05813953488341L520,46.49224806201519C270,46.49224806201519 270,58.740310077519425 20,58.740310077519425Z" style="stroke: rgb(68, 68, 68); stroke-opacity: 1; fill: rgb(0, 0, 0); fill-opacity: 0.2; stroke-width: 0; opacity: 1;"/><path class="sankey-link" d="M20,58.740310077519425C270,58.740310077519425 270,88.74031007751908 520,88.74031007751908L520,90.17441860465085C270,90.17441860465085 270,60.17441860465121 20,60.17441860465121Z" style="stroke: rgb(68, 68, 68); stroke-opacity: 1; fill: rgb(0, 0, 0); fill-opacity: 0.2; stroke-width: 0; opacity: 1;"/><path class="sankey-link" d="M20,82.34496124031011C270,82.34496124031011 270,242.67441860465092 520,242.67441860465092L520,244.10852713178272C270,244.10852713178272 270,83.77906976744188 20,83.77906976744188Z" style="stroke: rgb(68, 68, 68); stroke-opacity: 1; fill: rgb(0, 0, 0); fill-opacity: 0.2; stroke-width: 0; opacity: 1;"/><path class="sankey-link" d="M20,292.09302325581393C270,292.09302325581393 270,196.18217054263548 520,196.18217054263548L520,197.61627906976727C270,197.61627906976727 270,293.52713178294573 20,293.52713178294573Z" style="stroke: rgb(68, 68, 68); stroke-opacity: 1; fill: rgb(0, 0, 0); fill-opacity: 0.2; stroke-width: 0; opacity: 1;"/><path class="sankey-link" d="M20,270.63953488372084C270,270.63953488372084 270,223.3720930232556 520,223.3720930232556L520,224.80620155038739C270,224.80620155038739 270,272.07364341085264 20,272.07364341085264Z" style="stroke: rgb(68, 68, 68); stroke-opacity: 1; fill: rgb(0, 0, 0); fill-opacity: 0.2; stroke-width: 0; opacity: 1;"/><path class="sankey-link" d="M20,314.26356589147287C270,314.26356589147287 270,197.61627906976724 520,197.61627906976724L520,199.05038759689904C270,199.05038759689904 270,315.69767441860466 20,315.69767441860466Z" style="stroke: rgb(68, 68, 68); stroke-opacity: 1; fill: rgb(0, 0, 0); fill-opacity: 0.2; stroke-width: 0; opacity: 1;"/><path class="sankey-link" d="M20,158.95348837209292C270,158.95348837209292 270,50.794573643410544 520,50.794573643410544L520,52.22868217054233C270,52.22868217054233 270,160.38759689922472 20,160.38759689922472Z" style="stroke: rgb(68, 68, 68); stroke-opacity: 1; fill: rgb(0, 0, 0); fill-opacity: 0.2; stroke-width: 0; opacity: 1;"/><path class="sankey-link" d="M20,312.11240310077517C270,312.11240310077517 270,126.74418604651132 520,126.74418604651132L520,128.1782945736431C270,128.1782945736431 270,313.54651162790697 20,313.54651162790697Z" style="stroke: rgb(68, 68, 68); stroke-opacity: 1; fill: rgb(0, 0, 0); fill-opacity: 0.2; stroke-width: 0; opacity: 1;"/><path class="sankey-link" d="M20,40.15503875968998C270,40.15503875968998 270,274.8837209302325 520,274.8837209302325L520,276.3178294573643C270,276.3178294573643 270,41.58914728682176 20,41.58914728682176Z" style="stroke: rgb(68, 68, 68); stroke-opacity: 1; fill: rgb(0, 0, 0); fill-opacity: 0.2; stroke-width: 0; opacity: 1;"/><path class="sankey-link" d="M20,78.04263565891478C270,78.04263565891478 270,46.49224806201519 520,46.49224806201519L520,47.92635658914698C270,47.92635658914698 270,79.47674418604655 20,79.47674418604655Z" style="stroke: rgb(68, 68, 68); stroke-opacity: 1; fill: rgb(0, 0, 0); fill-opacity: 0.2; stroke-width: 0; opacity: 1;"/><path class="sankey-link" d="M20,206.93798449612396C270,206.93798449612396 270,220.50387596899202 520,220.50387596899202L520,222.65503875968972C270,222.65503875968972 270,209.08914728682166 20,209.08914728682166Z" style="stroke: rgb(68, 68, 68); stroke-opacity: 1; fill: rgb(0, 0, 0); fill-opacity: 0.2; stroke-width: 0; opacity: 1;"/><path class="sankey-link" d="M20,294.9612403100775C270,294.9612403100775 270,317.13178294573646 520,317.13178294573646L520,319.2829457364341C270,319.2829457364341 270,297.11240310077517 20,297.11240310077517Z" style="stroke: rgb(68, 68, 68); stroke-opacity: 1; fill: rgb(0, 0, 0); fill-opacity: 0.2; stroke-width: 0; opacity: 1;"/><path class="sankey-link" d="M20,289.94186046511624C270,289.94186046511624 270,124.59302325581365 520,124.59302325581365L520,126.74418604651132C270,126.74418604651132 270,292.0930232558139 20,292.0930232558139Z" style="stroke: rgb(68, 68, 68); stroke-opacity: 1; fill: rgb(0, 0, 0); fill-opacity: 0.2; stroke-width: 0; opacity: 1;"/><path class="sankey-link" d="M20,317.13178294573646C270,317.13178294573646 270,287.7906976744186 520,287.7906976744186L520,289.94186046511624C270,289.94186046511624 270,319.2829457364341 20,319.2829457364341Z" style="stroke: rgb(68, 68, 68); stroke-opacity: 1; fill: rgb(0, 0, 0); fill-opacity: 0.2; stroke-width: 0; opacity: 1;"/><path class="sankey-link" d="M20,239.86434108527123C270,239.86434108527123 270,119.57364341085241 520,119.57364341085241L520,121.72480620155008C270,121.72480620155008 270,242.01550387596893 20,242.01550387596893Z" style="stroke: rgb(68, 68, 68); stroke-opacity: 1; fill: rgb(0, 0, 0); fill-opacity: 0.2; stroke-width: 0; opacity: 1;"/><path class="sankey-link" d="M20,79.47674418604656C270,79.47674418604656 270,90.17441860465087 520,90.17441860465087L520,92.32558139534854C270,92.32558139534854 270,81.62790697674423 20,81.62790697674423Z" style="stroke: rgb(68, 68, 68); stroke-opacity: 1; fill: rgb(0, 0, 0); fill-opacity: 0.2; stroke-width: 0; opacity: 1;"/><path class="sankey-link" d="M20,242.7325581395348C270,242.7325581395348 270,192.59689922480604 520,192.59689922480604L520,194.74806201550373C270,194.74806201550373 270,244.8837209302325 20,244.8837209302325Z" style="stroke: rgb(68, 68, 68); stroke-opacity: 1; fill: rgb(0, 0, 0); fill-opacity: 0.2; stroke-width: 0; opacity: 1;"/><path class="sankey-link" d="M20,163.25581395348826C270,163.25581395348826 270,149.6317829457362 520,149.6317829457362L520,151.7829457364339C270,151.7829457364339 270,165.40697674418595 20,165.40697674418595Z" style="stroke: rgb(68, 68, 68); stroke-opacity: 1; fill: rgb(0, 0, 0); fill-opacity: 0.2; stroke-width: 0; opacity: 1;"/><path class="sankey-link" d="M20,165.40697674418593C270,165.40697674418593 270,181.12403100775177 520,181.12403100775177L520,183.27519379844946C270,183.27519379844946 270,167.55813953488362 20,167.55813953488362Z" style="stroke: rgb(68, 68, 68); stroke-opacity: 1; fill: rgb(0, 0, 0); fill-opacity: 0.2; stroke-width: 0; opacity: 1;"/><path class="sankey-link" d="M20,272.79069767441854C270,272.79069767441854 270,314.98062015503876 520,314.98062015503876L520,317.1317829457364C270,317.1317829457364 270,274.9418604651162 20,274.9418604651162Z" style="stroke: rgb(68, 68, 68); stroke-opacity: 1; fill: rgb(0, 0, 0); fill-opacity: 0.2; stroke-width: 0; opacity: 1;"/><path class="sankey-link" d="M20,38.003875968992304C270,38.003875968992304 270,240.52325581395326 520,240.52325581395326L520,242.67441860465095C270,242.67441860465095 270,40.15503875968997 20,40.15503875968997Z" style="stroke: rgb(68, 68, 68); stroke-opacity: 1; fill: rgb(0, 0, 0); fill-opacity: 0.2; stroke-width: 0; opacity: 1;"/><path class="sankey-link" d="M20,265.6201550387596C270,265.6201550387596 270,121.72480620155008 520,121.72480620155008L520,124.59302325581365C270,124.59302325581365 270,268.4883720930232 20,268.4883720930232Z" style="stroke: rgb(68, 68, 68); stroke-opacity: 1; fill: rgb(0, 0, 0); fill-opacity: 0.2; stroke-width: 0; opacity: 1;"/><path class="sankey-link" d="M20,184.7093023255813C270,184.7093023255813 270,52.22868217054233 520,52.22868217054233L520,55.096899224805895C270,55.096899224805895 270,187.57751937984483 20,187.57751937984483Z" style="stroke: rgb(68, 68, 68); stroke-opacity: 1; fill: rgb(0, 0, 0); fill-opacity: 0.2; stroke-width: 0; opacity: 1;"/><path class="sankey-link" d="M20,98.77906976744191C270,98.77906976744191 270,47.92635658914698 520,47.92635658914698L520,50.794573643410544C270,50.794573643410544 270,101.64728682170548 20,101.64728682170548Z" style="stroke: rgb(68, 68, 68); stroke-opacity: 1; fill: rgb(0, 0, 0); fill-opacity: 0.2; stroke-width: 0; opacity: 1;"/><path class="sankey-link" d="M20,160.3875968992247C270,160.3875968992247 270,107.38372093023226 520,107.38372093023226L520,110.25193798449583C270,110.25193798449583 270,163.25581395348823 20,163.25581395348823Z" style="stroke: rgb(68, 68, 68); stroke-opacity: 1; fill: rgb(0, 0, 0); fill-opacity: 0.2; stroke-width: 0; opacity: 1;"/><path class="sankey-link" d="M20,33.70155038759695C270,33.70155038759695 270,169.65116279069747 520,169.65116279069747L520,173.2364341085269C270,173.2364341085269 270,37.286821705426405 20,37.286821705426405Z" style="stroke: rgb(68, 68, 68); stroke-opacity: 1; fill: rgb(0, 0, 0); fill-opacity: 0.2; stroke-width: 0; opacity: 1;"/><path class="sankey-link" d="M20,140.36821705426362C270,140.36821705426362 270,305.6589147286822 520,305.6589147286822L520,309.24418604651163C270,309.24418604651163 270,143.95348837209306 20,143.95348837209306Z" style="stroke: rgb(68, 68, 68); stroke-opacity: 1; fill: rgb(0, 0, 0); fill-opacity: 0.2; stroke-width: 0; opacity: 1;"/><path class="sankey-link" d="M20,132.48062015503882C270,132.48062015503882 270,244.1085271317827 520,244.1085271317827L520,247.69379844961213C270,247.69379844961213 270,136.06589147286826 20,136.06589147286826Z" style="stroke: rgb(68, 68, 68); stroke-opacity: 1; fill: rgb(0, 0, 0); fill-opacity: 0.2; stroke-width: 0; opacity: 1;"/><path class="sankey-link" d="M20,136.0658914728683C270,136.0658914728683 270,276.3178294573643 520,276.3178294573643L520,280.6201550387597C270,280.6201550387597 270,140.36821705426362 20,140.36821705426362Z" style="stroke: rgb(68, 68, 68); stroke-opacity: 1; fill: rgb(0, 0, 0); fill-opacity: 0.2; stroke-width: 0; opacity: 1;"/><path class="sankey-link" d="M20,116.7054263565892C270,116.7054263565892 270,145.32945736434087 520,145.32945736434087L520,149.6317829457362C270,149.6317829457362 270,121.00775193798454 20,121.00775193798454Z" style="stroke: rgb(68, 68, 68); stroke-opacity: 1; fill: rgb(0, 0, 0); fill-opacity: 0.2; stroke-width: 0; opacity: 1;"/><path class="sankey-link" d="M20,209.08914728682163C270,209.08914728682163 270,248.41085271317806 520,248.41085271317806L520,252.7131782945734C270,252.7131782945734 270,213.39147286821697 20,213.39147286821697Z" style="stroke: rgb(68, 68, 68); stroke-opacity: 1; fill: rgb(0, 0, 0); fill-opacity: 0.2; stroke-width: 0; opacity: 1;"/><path class="sankey-link" d="M20,245.60077519379837C270,245.60077519379837 270,252.7131782945734 520,252.7131782945734L520,257.73255813953466C270,257.73255813953466 270,250.6201550387596 20,250.6201550387596Z" style="stroke: rgb(68, 68, 68); stroke-opacity: 1; fill: rgb(0, 0, 0); fill-opacity: 0.2; stroke-width: 0; opacity: 1;"/><path class="sankey-link" d="M20,219.1279069767441C270,219.1279069767441 270,309.9612403100775 520,309.9612403100775L520,314.98062015503876C270,314.98062015503876 270,224.14728682170534 20,224.14728682170534Z" style="stroke: rgb(68, 68, 68); stroke-opacity: 1; fill: rgb(0, 0, 0); fill-opacity: 0.2; stroke-width: 0; opacity: 1;"/><path class="sankey-link" d="M20,127.46124031007759C270,127.46124031007759 270,215.48449612403078 520,215.48449612403078L520,220.50387596899202C270,220.50387596899202 270,132.48062015503882 20,132.48062015503882Z" style="stroke: rgb(68, 68, 68); stroke-opacity: 1; fill: rgb(0, 0, 0); fill-opacity: 0.2; stroke-width: 0; opacity: 1;"/><path class="sankey-link" d="M20,213.39147286821697C270,213.39147286821697 270,281.33720930232556 520,281.33720930232556L520,287.07364341085264C270,287.07364341085264 270,219.1279069767441 20,219.1279069767441Z" style="stroke: rgb(68, 68, 68); stroke-opacity: 1; fill: rgb(0, 0, 0); fill-opacity: 0.2; stroke-width: 0; opacity: 1;"/><path class="sankey-link" d="M20,121.00775193798455C270,121.00775193798455 270,174.67054263565873 520,174.67054263565873L520,181.12403100775177C270,181.12403100775177 270,127.46124031007759 20,127.46124031007759Z" style="stroke: rgb(68, 68, 68); stroke-opacity: 1; fill: rgb(0, 0, 0); fill-opacity: 0.2; stroke-width: 0; opacity: 1;"/><path class="sankey-link" d="M20,197.61627906976736C270,197.61627906976736 270,183.27519379844944 520,183.27519379844944L520,192.596899224806C270,192.596899224806 270,206.93798449612393 20,206.93798449612393Z" style="stroke: rgb(68, 68, 68); stroke-opacity: 1; fill: rgb(0, 0, 0); fill-opacity: 0.2; stroke-width: 0; opacity: 1;"/><path class="sankey-link" d="M20,187.57751937984486C270,187.57751937984486 270,110.25193798449583 520,110.25193798449583L520,119.57364341085243C270,119.57364341085243 270,196.89922480620143 20,196.89922480620143Z" style="stroke: rgb(68, 68, 68); stroke-opacity: 1; fill: rgb(0, 0, 0); fill-opacity: 0.2; stroke-width: 0; opacity: 1;"/><path class="sankey-link" d="M20,101.64728682170548C270,101.64728682170548 270,92.32558139534854 520,92.32558139534854L520,107.38372093023224C270,107.38372093023224 270,116.70542635658919 20,116.70542635658919Z" style="stroke: rgb(68, 68, 68); stroke-opacity: 1; fill: rgb(0, 0, 0); fill-opacity: 0.2; stroke-width: 0; opacity: 1;"/><path class="sankey-link" d="M20,4.973799150320701e-14C270,4.973799150320701e-14 270,29.999999999999687 520,29.999999999999687L520,45.05813953488341C270,45.05813953488341 270,15.058139534883772 20,15.058139534883772Z" style="stroke: rgb(68, 68, 68); stroke-opacity: 1; fill: rgb(0, 0, 0); fill-opacity: 0.2; stroke-width: 0; opacity: 1;"/><path class="sankey-link" d="M20,15.058139534883772C270,15.058139534883772 270,70.8139534883718 520,70.8139534883718L520,88.7403100775191C270,88.7403100775191 270,32.98449612403106 20,32.98449612403106Z" style="stroke: rgb(68, 68, 68); stroke-opacity: 1; fill: rgb(0, 0, 0); fill-opacity: 0.2; stroke-width: 0; opacity: 1;"/></g><g class="sankey-node-set" style="cursor: move;"><g class="sankey-node" transform="translate(0.000,239.147)" style="opacity: 1;"><rect class="node-rect" width="20" height="11.47286821705427" style="stroke-width: 0.5; stroke: rgb(0, 0, 0); stroke-opacity: 1; fill: rgb(0, 0, 255); fill-opacity: 1;"/><text class="node-label" data-notex="1" x="0" y="0" text-anchor="start" transform="translate(23.25,9.936434108527134)" style="cursor: default; font-family: 'Open Sans', verdana, arial, sans-serif; font-size: 12px; fill: rgb(42, 63, 95); fill-opacity: 1; white-space: pre; text-shadow: white 1px 1px 1px, white -1px -1px 1px, white 1px -1px 1px, white -1px 1px 1px;">Classification</text></g><g class="sankey-node" transform="translate(0.000,0.000)" style="opacity: 1;"><rect class="node-rect" width="20" height="42.30620155038759" style="stroke-width: 0.5; stroke: rgb(0, 0, 0); stroke-opacity: 1; fill: rgb(0, 0, 255); fill-opacity: 1;"/><text class="node-label" data-notex="1" x="0" y="0" text-anchor="start" transform="translate(23.25,25.353100775193795)" style="cursor: default; font-family: 'Open Sans', verdana, arial, sans-serif; font-size: 12px; fill: rgb(42, 63, 95); fill-opacity: 1; white-space: pre; text-shadow: white 1px 1px 1px, white -1px -1px 1px, white 1px -1px 1px, white -1px 1px 1px;">Clustering</text></g><g class="sankey-node" transform="translate(0.000,158.953)" style="opacity: 1;"><rect class="node-rect" width="20" height="10.75581395348837" style="stroke-width: 0.5; stroke: rgb(0, 0, 0); stroke-opacity: 1; fill: rgb(0, 0, 255); fill-opacity: 1;"/><text class="node-label" data-notex="1" x="0" y="0" text-anchor="start" transform="translate(23.25,9.577906976744185)" style="cursor: default; font-family: 'Open Sans', verdana, arial, sans-serif; font-size: 12px; fill: rgb(42, 63, 95); fill-opacity: 1; white-space: pre; text-shadow: white 1px 1px 1px, white -1px -1px 1px, white 1px -1px 1px, white -1px 1px 1px;">Deep learning</text></g><g class="sankey-node" transform="translate(0.000,78.043)" style="opacity: 1;"><rect class="node-rect" width="20" height="5.736434108527135" style="stroke-width: 0.5; stroke: rgb(0, 0, 0); stroke-opacity: 1; fill: rgb(0, 0, 255); fill-opacity: 1;"/><text class="node-label" data-notex="1" x="0" y="0" text-anchor="start" transform="translate(23.25,7.068217054263567)" style="cursor: default; font-family: 'Open Sans', verdana, arial, sans-serif; font-size: 12px; fill: rgb(42, 63, 95); fill-opacity: 1; white-space: pre; text-shadow: white 1px 1px 1px, white -1px -1px 1px, white 1px -1px 1px, white -1px 1px 1px;">Descriptive statistics</text></g><g class="sankey-node" transform="translate(0.000,57.306)" style="opacity: 1;"><rect class="node-rect" width="20" height="5.736434108527135" style="stroke-width: 0.5; stroke: rgb(0, 0, 0); stroke-opacity: 1; fill: rgb(0, 0, 255); fill-opacity: 1;"/><text class="node-label" data-notex="1" x="0" y="0" text-anchor="start" transform="translate(23.25,7.068217054263567)" style="cursor: default; font-family: 'Open Sans', verdana, arial, sans-serif; font-size: 12px; fill: rgb(42, 63, 95); fill-opacity: 1; white-space: pre; text-shadow: white 1px 1px 1px, white -1px -1px 1px, white 1px -1px 1px, white -1px 1px 1px;">Language model</text></g><g class="sankey-node" transform="translate(0.000,265.620)" style="opacity: 1;"><rect class="node-rect" width="20" height="9.32170542635663" style="stroke-width: 0.5; stroke: rgb(0, 0, 0); stroke-opacity: 1; fill: rgb(0, 0, 255); fill-opacity: 1;"/><text class="node-label" data-notex="1" x="0" y="0" text-anchor="start" transform="translate(23.25,8.860852713178314)" style="cursor: default; font-family: 'Open Sans', verdana, arial, sans-serif; font-size: 12px; fill: rgb(42, 63, 95); fill-opacity: 1; white-space: pre; text-shadow: white 1px 1px 1px, white -1px -1px 1px, white 1px -1px 1px, white -1px 1px 1px;">Modelo propio</text></g><g class="sankey-node" transform="translate(0.000,289.942)" style="opacity: 1;"><rect class="node-rect" width="20" height="7.170542635658933" style="stroke-width: 0.5; stroke: rgb(0, 0, 0); stroke-opacity: 1; fill: rgb(0, 0, 255); fill-opacity: 1;"/><text class="node-label" data-notex="1" x="0" y="0" text-anchor="start" transform="translate(23.25,7.785271317829466)" style="cursor: default; font-family: 'Open Sans', verdana, arial, sans-serif; font-size: 12px; fill: rgb(42, 63, 95); fill-opacity: 1; white-space: pre; text-shadow: white 1px 1px 1px, white -1px -1px 1px, white 1px -1px 1px, white -1px 1px 1px;">OD matrix</text></g><g class="sankey-node" transform="translate(0.000,312.112)" style="opacity: 1;"><rect class="node-rect" width="20" height="7.887596899224832" style="stroke-width: 0.5; stroke: rgb(0, 0, 0); stroke-opacity: 1; fill: rgb(0, 0, 255); fill-opacity: 1;"/><text class="node-label" data-notex="1" x="0" y="0" text-anchor="start" transform="translate(23.25,8.143798449612415)" style="cursor: default; font-family: 'Open Sans', verdana, arial, sans-serif; font-size: 12px; fill: rgb(42, 63, 95); fill-opacity: 1; white-space: pre; text-shadow: white 1px 1px 1px, white -1px -1px 1px, white 1px -1px 1px, white -1px 1px 1px;">Probability model</text></g><g class="sankey-node" transform="translate(0.000,98.779)" style="opacity: 1;"><rect class="node-rect" width="20" height="45.17441860465101" style="stroke-width: 0.5; stroke: rgb(0, 0, 0); stroke-opacity: 1; fill: rgb(0, 0, 255); fill-opacity: 1;"/><text class="node-label" data-notex="1" x="0" y="0" text-anchor="start" transform="translate(23.25,26.787209302325504)" style="cursor: default; font-family: 'Open Sans', verdana, arial, sans-serif; font-size: 12px; fill: rgb(42, 63, 95); fill-opacity: 1; white-space: pre; text-shadow: white 1px 1px 1px, white -1px -1px 1px, white 1px -1px 1px, white -1px 1px 1px;">Regression</text></g><g class="sankey-node" transform="translate(0.000,184.709)" style="opacity: 1;"><rect class="node-rect" width="20" height="39.437984496124045" style="stroke-width: 0.5; stroke: rgb(0, 0, 0); stroke-opacity: 1; fill: rgb(0, 0, 255); fill-opacity: 1;"/><text class="node-label" data-notex="1" x="0" y="0" text-anchor="start" transform="translate(23.25,23.918992248062022)" style="cursor: default; font-family: 'Open Sans', verdana, arial, sans-serif; font-size: 12px; fill: rgb(42, 63, 95); fill-opacity: 1; white-space: pre; text-shadow: white 1px 1px 1px, white -1px -1px 1px, white 1px -1px 1px, white -1px 1px 1px;">Other</text></g><g class="sankey-node" transform="translate(520.000,70.814)" style="opacity: 1;"><rect class="node-rect" width="20" height="57.364341085271406" style="stroke-width: 0.5; stroke: rgb(0, 0, 0); stroke-opacity: 1; fill: rgb(0, 0, 255); fill-opacity: 1;"/><text class="node-label" data-notex="1" x="0" y="0" text-anchor="end" transform="translate(-3.25,32.882170542635706)" style="cursor: default; font-family: 'Open Sans', verdana, arial, sans-serif; font-size: 12px; fill: rgb(42, 63, 95); fill-opacity: 1; white-space: pre; text-shadow: white 1px 1px 1px, white -1px -1px 1px, white 1px -1px 1px, white -1px 1px 1px;">Analisis de patrones</text></g><g class="sankey-node" transform="translate(520.000,30.000)" style="opacity: 1;"><rect class="node-rect" width="20" height="25.813953488372107" style="stroke-width: 0.5; stroke: rgb(0, 0, 0); stroke-opacity: 1; fill: rgb(0, 0, 255); fill-opacity: 1;"/><text class="node-label" data-notex="1" x="0" y="0" text-anchor="end" transform="translate(-3.25,17.106976744186053)" style="cursor: default; font-family: 'Open Sans', verdana, arial, sans-serif; font-size: 12px; fill: rgb(42, 63, 95); fill-opacity: 1; white-space: pre; text-shadow: white 1px 1px 1px, white -1px -1px 1px, white 1px -1px 1px, white -1px 1px 1px;">Clasificación</text></g><g class="sankey-node" transform="translate(520.000,274.884)" style="opacity: 1;"><rect class="node-rect" width="20" height="15.058139534883765" style="stroke-width: 0.5; stroke: rgb(0, 0, 0); stroke-opacity: 1; fill: rgb(0, 0, 255); fill-opacity: 1;"/><text class="node-label" data-notex="1" x="0" y="0" text-anchor="end" transform="translate(-3.25,11.729069767441882)" style="cursor: default; font-family: 'Open Sans', verdana, arial, sans-serif; font-size: 12px; fill: rgb(42, 63, 95); fill-opacity: 1; white-space: pre; text-shadow: white 1px 1px 1px, white -1px -1px 1px, white 1px -1px 1px, white -1px 1px 1px;">Flujo de pasajeros</text></g><g class="sankey-node" transform="translate(520.000,240.523)" style="opacity: 1;"><rect class="node-rect" width="20" height="19.360465116279272" style="stroke-width: 0.5; stroke: rgb(0, 0, 0); stroke-opacity: 1; fill: rgb(0, 0, 255); fill-opacity: 1;"/><text class="node-label" data-notex="1" x="0" y="0" text-anchor="end" transform="translate(-3.25,13.880232558139635)" style="cursor: default; font-family: 'Open Sans', verdana, arial, sans-serif; font-size: 12px; fill: rgb(42, 63, 95); fill-opacity: 1; white-space: pre; text-shadow: white 1px 1px 1px, white -1px -1px 1px, white 1px -1px 1px, white -1px 1px 1px;">Indicadores rendimiento</text></g><g class="sankey-node" transform="translate(520.000,304.942)" style="opacity: 1;"><rect class="node-rect" width="20" height="15.058139534883708" style="stroke-width: 0.5; stroke: rgb(0, 0, 0); stroke-opacity: 1; fill: rgb(0, 0, 255); fill-opacity: 1;"/><text class="node-label" data-notex="1" x="0" y="0" text-anchor="end" transform="translate(-3.25,11.729069767441853)" style="cursor: default; font-family: 'Open Sans', verdana, arial, sans-serif; font-size: 12px; fill: rgb(42, 63, 95); fill-opacity: 1; white-space: pre; text-shadow: white 1px 1px 1px, white -1px -1px 1px, white 1px -1px 1px, white -1px 1px 1px;">OD matrix</text></g><g class="sankey-node" transform="translate(520.000,169.651)" style="opacity: 1;"><rect class="node-rect" width="20" height="29.399224806201516" style="stroke-width: 0.5; stroke: rgb(0, 0, 0); stroke-opacity: 1; fill: rgb(0, 0, 255); fill-opacity: 1;"/><text class="node-label" data-notex="1" x="0" y="0" text-anchor="end" transform="translate(-3.25,18.899612403100758)" style="cursor: default; font-family: 'Open Sans', verdana, arial, sans-serif; font-size: 12px; fill: rgb(42, 63, 95); fill-opacity: 1; white-space: pre; text-shadow: white 1px 1px 1px, white -1px -1px 1px, white 1px -1px 1px, white -1px 1px 1px;">Other</text></g><g class="sankey-node" transform="translate(520.000,214.050)" style="opacity: 1;"><rect class="node-rect" width="20" height="11.47286821705427" style="stroke-width: 0.5; stroke: rgb(0, 0, 0); stroke-opacity: 1; fill: rgb(0, 0, 255); fill-opacity: 1;"/><text class="node-label" data-notex="1" x="0" y="0" text-anchor="end" transform="translate(-3.25,9.936434108527134)" style="cursor: default; font-family: 'Open Sans', verdana, arial, sans-serif; font-size: 12px; fill: rgb(42, 63, 95); fill-opacity: 1; white-space: pre; text-shadow: white 1px 1px 1px, white -1px -1px 1px, white 1px -1px 1px, white -1px 1px 1px;">Path planning/finding</text></g><g class="sankey-node" transform="translate(520.000,143.178)" style="opacity: 1;"><rect class="node-rect" width="20" height="11.47286821705427" style="stroke-width: 0.5; stroke: rgb(0, 0, 0); stroke-opacity: 1; fill: rgb(0, 0, 255); fill-opacity: 1;"/><text class="node-label" data-notex="1" x="0" y="0" text-anchor="end" transform="translate(-3.25,9.936434108527134)" style="cursor: default; font-family: 'Open Sans', verdana, arial, sans-serif; font-size: 12px; fill: rgb(42, 63, 95); fill-opacity: 1; white-space: pre; text-shadow: white 1px 1px 1px, white -1px -1px 1px, white 1px -1px 1px, white -1px 1px 1px;">Prediccion demanda</text></g></g></g><defs id="topdefs-dab43a"><g class="clips"/></defs><g class="layer-above"><g class="imagelayer"/><g class="shapelayer"/></g><g class="infolayer"><g class="g-gtitle"><text class="gtitle" x="35" y="50" text-anchor="start" dy="0em" style="font-family: 'Open Sans', verdana, arial, sans-serif; font-size: 17px; fill: rgb(42, 63, 95); opacity: 1; font-weight: normal; white-space: pre;">Basic Sankey Diagram</text></g><g class="first-render"/></g></svg>