<svg class="main-svg" xmlns="http://www.w3.org/2000/svg" xmlns:xlink="http://www.w3.org/1999/xlink" width="700" height="500" style="" viewBox="0 0 700 500"><rect x="0" y="0" width="700" height="500" style="fill: rgb(255, 255, 255); fill-opacity: 1;"/><defs id="defs-4b34e3"><g class="clips"/><g class="gradients"/><g class="patterns"/></defs><g class="bglayer"/><g class="layer-below"><g class="imagelayer"/><g class="shapelayer"/></g><g class="cartesianlayer"/><g class="polarlayer"/><g class="smithlayer"/><g class="ternarylayer"/><g class="geolayer"/><g class="funnelarealayer"/><g class="pielayer"/><g class="iciclelayer"/><g class="treemaplayer"/><g class="sunburstlayer"/><g class="glimages"/><g class="sankey" transform="translate(80,100)matrix(1 0 0 1 0 0)" style="box-sizing: content-box; position: absolute; left: 0px; shape-rendering: geometricprecision; pointer-events: none;"><g class="sankey-links" style="fill: none;"><path class="sankey-link" d="M20,218.96887159533074C140,218.96887159533074 140,180.81712062256815 260,180.81712062256815L260,181.53696498054478C140,181.53696498054478 140,219.68871595330737 20,219.68871595330737Z" style="stroke: rgb(0, 0, 0); stroke-opacity: 0.2; fill: rgb(0, 0, 0); fill-opacity: 0.2; stroke-width: 1; opacity: 1;"/><path class="sankey-link" d="M20,317.1206225680934C140,317.1206225680934 140,153.57976653696517 260,153.57976653696517L260,154.2996108949418C140,154.2996108949418 140,317.84046692607 20,317.84046692607Z" style="stroke: rgb(0, 0, 0); stroke-opacity: 0.2; fill: rgb(0, 0, 0); fill-opacity: 0.2; stroke-width: 1; opacity: 1;"/><path class="sankey-link" d="M20,317.84046692607C140,317.84046692607 140,228.21011673151762 260,228.21011673151762L260,228.92996108949424C140,228.92996108949424 140,318.56031128404663 20,318.56031128404663Z" style="stroke: rgb(0, 0, 0); stroke-opacity: 0.2; fill: rgb(0, 0, 0); fill-opacity: 0.2; stroke-width: 1; opacity: 1;"/><path class="sankey-link" d="M20,176.01167315175095C140,176.01167315175095 140,218.8521400778211 260,218.8521400778211L260,219.57198443579773C140,219.57198443579773 140,176.73151750972758 20,176.73151750972758Z" style="stroke: rgb(0, 0, 0); stroke-opacity: 0.2; fill: rgb(0, 0, 0); fill-opacity: 0.2; stroke-width: 1; opacity: 1;"/><path class="sankey-link" d="M20,156.69260700389108C140,156.69260700389108 140,313.5214007782101 260,313.5214007782101L260,314.2412451361867C140,314.2412451361867 140,157.4124513618677 20,157.4124513618677Z" style="stroke: rgb(0, 0, 0); stroke-opacity: 0.2; fill: rgb(0, 0, 0); fill-opacity: 0.2; stroke-width: 1; opacity: 1;"/><path class="sankey-link" d="M20,295.64202334630346C140,295.64202334630346 140,258.3268482490272 260,258.3268482490272L260,259.0466926070038C140,259.0466926070038 140,296.3618677042801 20,296.3618677042801Z" style="stroke: rgb(0, 0, 0); stroke-opacity: 0.2; fill: rgb(0, 0, 0); fill-opacity: 0.2; stroke-width: 1; opacity: 1;"/><path class="sankey-link" d="M20,218.24902723735408C140,218.24902723735408 140,151.4202334630352 260,151.4202334630352L260,152.14007782101183C140,152.14007782101183 140,218.9688715953307 20,218.9688715953307Z" style="stroke: rgb(0, 0, 0); stroke-opacity: 0.2; fill: rgb(0, 0, 0); fill-opacity: 0.2; stroke-width: 1; opacity: 1;"/><path class="sankey-link" d="M20,292.7626459143969C140,292.7626459143969 140,183.69649805447477 260,183.69649805447477L260,184.4163424124514C140,184.4163424124514 140,293.4824902723735 20,293.4824902723735Z" style="stroke: rgb(0, 0, 0); stroke-opacity: 0.2; fill: rgb(0, 0, 0); fill-opacity: 0.2; stroke-width: 1; opacity: 1;"/><path class="sankey-link" d="M20,41.750972762645866C140,41.750972762645866 140,308.4824902723735 260,308.4824902723735L260,309.20233463035015C140,309.20233463035015 140,42.47081712062252 20,42.47081712062252Z" style="stroke: rgb(0, 0, 0); stroke-opacity: 0.2; fill: rgb(0, 0, 0); fill-opacity: 0.2; stroke-width: 1; opacity: 1;"/><path class="sankey-link" d="M20,33.112840466926016C140,33.112840466926016 140,143.501945525292 260,143.501945525292L260,144.22178988326863C140,144.22178988326863 140,33.83268482490267 20,33.83268482490267Z" style="stroke: rgb(0, 0, 0); stroke-opacity: 0.2; fill: rgb(0, 0, 0); fill-opacity: 0.2; stroke-width: 1; opacity: 1;"/><path class="sankey-link" d="M20,296.3618677042801C140,296.3618677042801 140,292.7626459143968 260,292.7626459143968L260,293.4824902723734C140,293.4824902723734 140,297.0817120622567 20,297.0817120622567Z" style="stroke: rgb(0, 0, 0); stroke-opacity: 0.2; fill: rgb(0, 0, 0); fill-opacity: 0.2; stroke-width: 1; opacity: 1;"/><path class="sankey-link" d="M20,223.28793774319067C140,223.28793774319067 140,314.2412451361867 260,314.2412451361867L260,314.96108949416333C140,314.96108949416333 140,224.0077821011673 20,224.0077821011673Z" style="stroke: rgb(0, 0, 0); stroke-opacity: 0.2; fill: rgb(0, 0, 0); fill-opacity: 0.2; stroke-width: 1; opacity: 1;"/><path class="sankey-link" d="M20,272.00389105058355C140,272.00389105058355 140,292.04280155642016 260,292.04280155642016L260,292.7626459143968C140,292.7626459143968 140,272.7237354085602 20,272.7237354085602Z" style="stroke: rgb(0, 0, 0); stroke-opacity: 0.2; fill: rgb(0, 0, 0); fill-opacity: 0.2; stroke-width: 1; opacity: 1;"/><path class="sankey-link" d="M20,271.2840466926069C140,271.2840466926069 140,257.60700389105057 260,257.60700389105057L260,258.3268482490272C140,258.3268482490272 140,272.00389105058355 20,272.00389105058355Z" style="stroke: rgb(0, 0, 0); stroke-opacity: 0.2; fill: rgb(0, 0, 0); fill-opacity: 0.2; stroke-width: 1; opacity: 1;"/><path class="sankey-link" d="M20,239.00778210116732C140,239.00778210116732 140,52.315175097276224 260,52.315175097276224L260,53.03501945525288C140,53.03501945525288 140,239.72762645914395 20,239.72762645914395Z" style="stroke: rgb(0, 0, 0); stroke-opacity: 0.2; fill: rgb(0, 0, 0); fill-opacity: 0.2; stroke-width: 1; opacity: 1;"/><path class="sankey-link" d="M20,249.80544747081714C140,249.80544747081714 140,314.96108949416333 260,314.96108949416333L260,315.68093385213996C140,315.68093385213996 140,250.52529182879377 20,250.52529182879377Z" style="stroke: rgb(0, 0, 0); stroke-opacity: 0.2; fill: rgb(0, 0, 0); fill-opacity: 0.2; stroke-width: 1; opacity: 1;"/><path class="sankey-link" d="M20,241.88715953307394C140,241.88715953307394 140,152.14007782101186 260,152.14007782101186L260,152.85992217898848C140,152.85992217898848 140,242.60700389105057 20,242.60700389105057Z" style="stroke: rgb(0, 0, 0); stroke-opacity: 0.2; fill: rgb(0, 0, 0); fill-opacity: 0.2; stroke-width: 1; opacity: 1;"/><path class="sankey-link" d="M20,272.7237354085602C140,272.7237354085602 140,315.68093385213996 260,315.68093385213996L260,316.4007782101166C140,316.4007782101166 140,273.4435797665368 20,273.4435797665368Z" style="stroke: rgb(0, 0, 0); stroke-opacity: 0.2; fill: rgb(0, 0, 0); fill-opacity: 0.2; stroke-width: 1; opacity: 1;"/><path class="sankey-link" d="M20,38.87159533073925C140,38.87159533073925 140,243.92996108949416 260,243.92996108949416L260,244.64980544747078C140,244.64980544747078 140,39.5914396887159 20,39.5914396887159Z" style="stroke: rgb(0, 0, 0); stroke-opacity: 0.2; fill: rgb(0, 0, 0); fill-opacity: 0.2; stroke-width: 1; opacity: 1;"/><path class="sankey-link" d="M20,266.96498054474705C140,266.96498054474705 140,152.8599221789885 260,152.8599221789885L260,153.57976653696514C140,153.57976653696514 140,267.6848249027237 20,267.6848249027237Z" style="stroke: rgb(0, 0, 0); stroke-opacity: 0.2; fill: rgb(0, 0, 0); fill-opacity: 0.2; stroke-width: 1; opacity: 1;"/><path class="sankey-link" d="M20,219.6887159533074C140,219.6887159533074 140,221.01167315175107 260,221.01167315175107L260,222.45136186770438C140,222.45136186770438 140,221.1284046692607 20,221.1284046692607Z" style="stroke: rgb(68, 68, 68); stroke-opacity: 1; fill: rgb(0, 0, 0); fill-opacity: 0.2; stroke-width: 0; opacity: 1;"/><path class="sankey-link" d="M20,198.92996108949416C140,198.92996108949416 140,285.5642023346303 260,285.5642023346303L260,287.00389105058355C140,287.00389105058355 140,200.36964980544747 20,200.36964980544747Z" style="stroke: rgb(68, 68, 68); stroke-opacity: 1; fill: rgb(0, 0, 0); fill-opacity: 0.2; stroke-width: 0; opacity: 1;"/><path class="sankey-link" d="M20,318.56031128404663C140,318.56031128404663 140,318.5603112840465 260,318.5603112840465L260,319.9999999999998C140,319.9999999999998 140,319.9999999999999 20,319.9999999999999Z" style="stroke: rgb(68, 68, 68); stroke-opacity: 1; fill: rgb(0, 0, 0); fill-opacity: 0.2; stroke-width: 0; opacity: 1;"/><path class="sankey-link" d="M20,314.24124513618676C140,314.24124513618676 140,54.47470817120619 260,54.47470817120619L260,55.9143968871595C140,55.9143968871595 140,315.68093385214 20,315.68093385214Z" style="stroke: rgb(68, 68, 68); stroke-opacity: 1; fill: rgb(0, 0, 0); fill-opacity: 0.2; stroke-width: 0; opacity: 1;"/><path class="sankey-link" d="M20,315.6809338521401C140,315.6809338521401 140,127.06225680933854 260,127.06225680933854L260,128.50194552529183C140,128.50194552529183 140,317.1206225680933 20,317.1206225680933Z" style="stroke: rgb(68, 68, 68); stroke-opacity: 1; fill: rgb(0, 0, 0); fill-opacity: 0.2; stroke-width: 0; opacity: 1;"/><path class="sankey-link" d="M20,176.7315175097276C140,176.7315175097276 140,284.124513618677 260,284.124513618677L260,285.56420233463024C140,285.56420233463024 140,178.17120622568092 20,178.17120622568092Z" style="stroke: rgb(68, 68, 68); stroke-opacity: 1; fill: rgb(0, 0, 0); fill-opacity: 0.2; stroke-width: 0; opacity: 1;"/><path class="sankey-link" d="M20,195.33073929961088C140,195.33073929961088 140,219.57198443579776 260,219.57198443579776L260,221.01167315175107C140,221.01167315175107 140,196.7704280155642 20,196.7704280155642Z" style="stroke: rgb(68, 68, 68); stroke-opacity: 1; fill: rgb(0, 0, 0); fill-opacity: 0.2; stroke-width: 0; opacity: 1;"/><path class="sankey-link" d="M20,269.8443579766536C140,269.8443579766536 140,224.61089494163434 260,224.61089494163434L260,226.05058365758765C140,226.05058365758765 140,271.28404669260686 20,271.28404669260686Z" style="stroke: rgb(68, 68, 68); stroke-opacity: 1; fill: rgb(0, 0, 0); fill-opacity: 0.2; stroke-width: 0; opacity: 1;"/><path class="sankey-link" d="M20,288.44357976653697C140,288.44357976653697 140,53.03501945525288 260,53.03501945525288L260,54.47470817120619C140,54.47470817120619 140,289.8832684824902 20,289.8832684824902Z" style="stroke: rgb(68, 68, 68); stroke-opacity: 1; fill: rgb(0, 0, 0); fill-opacity: 0.2; stroke-width: 0; opacity: 1;"/><path class="sankey-link" d="M20,265.52529182879374C140,265.52529182879374 140,122.74319066147861 260,122.74319066147861L260,124.18287937743192C140,124.18287937743192 140,266.964980544747 20,266.964980544747Z" style="stroke: rgb(68, 68, 68); stroke-opacity: 1; fill: rgb(0, 0, 0); fill-opacity: 0.2; stroke-width: 0; opacity: 1;"/><path class="sankey-link" d="M20,33.83268482490267C140,33.83268482490267 140,169.29961089494168 260,169.29961089494168L260,170.739299610895C140,170.739299610895 140,35.27237354085598 20,35.27237354085598Z" style="stroke: rgb(68, 68, 68); stroke-opacity: 1; fill: rgb(0, 0, 0); fill-opacity: 0.2; stroke-width: 0; opacity: 1;"/><path class="sankey-link" d="M20,172.41245136186768C140,172.41245136186768 140,50.875486381322915 260,50.875486381322915L260,52.315175097276224C140,52.315175097276224 140,173.852140077821 20,173.852140077821Z" style="stroke: rgb(68, 68, 68); stroke-opacity: 1; fill: rgb(0, 0, 0); fill-opacity: 0.2; stroke-width: 0; opacity: 1;"/><path class="sankey-link" d="M20,130.05836575875486C140,130.05836575875486 140,149.26070038910524 260,149.26070038910524L260,151.42023346303517C140,151.42023346303517 140,132.2178988326848 20,132.2178988326848Z" style="stroke: rgb(68, 68, 68); stroke-opacity: 1; fill: rgb(0, 0, 0); fill-opacity: 0.2; stroke-width: 0; opacity: 1;"/><path class="sankey-link" d="M20,196.7704280155642C140,196.7704280155642 140,253.28793774319067 260,253.28793774319067L260,255.4474708171206C140,255.4474708171206 140,198.92996108949413 20,198.92996108949413Z" style="stroke: rgb(68, 68, 68); stroke-opacity: 1; fill: rgb(0, 0, 0); fill-opacity: 0.2; stroke-width: 0; opacity: 1;"/><path class="sankey-link" d="M20,193.17120622568092C140,193.17120622568092 140,115.54474708171206 260,115.54474708171206L260,117.70428015564202C140,117.70428015564202 140,195.33073929961085 20,195.33073929961085Z" style="stroke: rgb(68, 68, 68); stroke-opacity: 1; fill: rgb(0, 0, 0); fill-opacity: 0.2; stroke-width: 0; opacity: 1;"/><path class="sankey-link" d="M20,267.6848249027237C140,267.6848249027237 140,181.5369649805448 260,181.5369649805448L260,183.69649805447474C140,183.69649805447474 140,269.84435797665367 20,269.84435797665367Z" style="stroke: rgb(68, 68, 68); stroke-opacity: 1; fill: rgb(0, 0, 0); fill-opacity: 0.2; stroke-width: 0; opacity: 1;"/><path class="sankey-link" d="M20,239.72762645914398C140,239.72762645914398 140,120.58365758754864 260,120.58365758754864L260,122.74319066147861C140,122.74319066147861 140,241.8871595330739 20,241.8871595330739Z" style="stroke: rgb(68, 68, 68); stroke-opacity: 1; fill: rgb(0, 0, 0); fill-opacity: 0.2; stroke-width: 0; opacity: 1;"/><path class="sankey-link" d="M20,173.852140077821C140,173.852140077821 140,113.3852140077821 260,113.3852140077821L260,115.54474708171206C140,115.54474708171206 140,176.01167315175093 20,176.01167315175093Z" style="stroke: rgb(68, 68, 68); stroke-opacity: 1; fill: rgb(0, 0, 0); fill-opacity: 0.2; stroke-width: 0; opacity: 1;"/><path class="sankey-link" d="M20,242.6070038910506C140,242.6070038910506 140,222.45136186770438 260,222.45136186770438L260,224.6108949416343C140,224.6108949416343 140,244.76653696498053 20,244.76653696498053Z" style="stroke: rgb(68, 68, 68); stroke-opacity: 1; fill: rgb(0, 0, 0); fill-opacity: 0.2; stroke-width: 0; opacity: 1;"/><path class="sankey-link" d="M20,297.0817120622567C140,297.0817120622567 140,316.4007782101166 260,316.4007782101166L260,318.5603112840466C140,318.5603112840466 140,299.2412451361867 20,299.2412451361867Z" style="stroke: rgb(68, 68, 68); stroke-opacity: 1; fill: rgb(0, 0, 0); fill-opacity: 0.2; stroke-width: 0; opacity: 1;"/><path class="sankey-link" d="M20,293.4824902723735C140,293.4824902723735 140,226.05058365758765 260,226.05058365758765L260,228.2101167315176C140,228.2101167315176 140,295.6420233463035 20,295.6420233463035Z" style="stroke: rgb(68, 68, 68); stroke-opacity: 1; fill: rgb(0, 0, 0); fill-opacity: 0.2; stroke-width: 0; opacity: 1;"/><path class="sankey-link" d="M20,221.1284046692607C140,221.1284046692607 140,255.44747081712066 260,255.44747081712066L260,257.6070038910506C140,257.6070038910506 140,223.28793774319064 20,223.28793774319064Z" style="stroke: rgb(68, 68, 68); stroke-opacity: 1; fill: rgb(0, 0, 0); fill-opacity: 0.2; stroke-width: 0; opacity: 1;"/><path class="sankey-link" d="M20,39.5914396887159C140,39.5914396887159 140,274.0466926070039 260,274.0466926070039L260,276.20622568093387C140,276.20622568093387 140,41.750972762645866 20,41.750972762645866Z" style="stroke: rgb(68, 68, 68); stroke-opacity: 1; fill: rgb(0, 0, 0); fill-opacity: 0.2; stroke-width: 0; opacity: 1;"/><path class="sankey-link" d="M20,215.36964980544747C140,215.36964980544747 140,117.70428015564202 260,117.70428015564202L260,120.58365758754864C140,120.58365758754864 140,218.24902723735408 20,218.24902723735408Z" style="stroke: rgb(68, 68, 68); stroke-opacity: 1; fill: rgb(0, 0, 0); fill-opacity: 0.2; stroke-width: 0; opacity: 1;"/><path class="sankey-link" d="M20,117.82101167315174C140,117.82101167315174 140,47.9961089494163 260,47.9961089494163L260,50.87548638132292C140,50.87548638132292 140,120.70038910505836 20,120.70038910505836Z" style="stroke: rgb(68, 68, 68); stroke-opacity: 1; fill: rgb(0, 0, 0); fill-opacity: 0.2; stroke-width: 0; opacity: 1;"/><path class="sankey-link" d="M20,57.47081712062253C140,57.47081712062253 140,45.11673151750969 260,45.11673151750969L260,47.99610894941631C140,47.99610894941631 140,60.350194552529146 20,60.350194552529146Z" style="stroke: rgb(68, 68, 68); stroke-opacity: 1; fill: rgb(0, 0, 0); fill-opacity: 0.2; stroke-width: 0; opacity: 1;"/><path class="sankey-link" d="M20,289.8832684824903C140,289.8832684824903 140,124.18287937743192 260,124.18287937743192L260,127.06225680933854C140,127.06225680933854 140,292.7626459143969 20,292.7626459143969Z" style="stroke: rgb(68, 68, 68); stroke-opacity: 1; fill: rgb(0, 0, 0); fill-opacity: 0.2; stroke-width: 0; opacity: 1;"/><path class="sankey-link" d="M20,35.27237354085598C140,35.27237354085598 140,199.41634241245143 260,199.41634241245143L260,203.01556420233467C140,203.01556420233467 140,38.871595330739254 20,38.871595330739254Z" style="stroke: rgb(68, 68, 68); stroke-opacity: 1; fill: rgb(0, 0, 0); fill-opacity: 0.2; stroke-width: 0; opacity: 1;"/><path class="sankey-link" d="M20,91.30350194552524C140,91.30350194552524 140,244.6498054474708 260,244.6498054474708L260,248.24902723735406C140,248.24902723735406 140,94.90272373540851 20,94.90272373540851Z" style="stroke: rgb(68, 68, 68); stroke-opacity: 1; fill: rgb(0, 0, 0); fill-opacity: 0.2; stroke-width: 0; opacity: 1;"/><path class="sankey-link" d="M20,94.90272373540851C140,94.90272373540851 140,276.2062256809338 260,276.2062256809338L260,279.80544747081706C140,279.80544747081706 140,98.50194552529179 20,98.50194552529179Z" style="stroke: rgb(68, 68, 68); stroke-opacity: 1; fill: rgb(0, 0, 0); fill-opacity: 0.2; stroke-width: 0; opacity: 1;"/><path class="sankey-link" d="M20,80.50583657587543C140,80.50583657587543 140,170.739299610895 260,170.739299610895L260,175.05836575875492C140,175.05836575875492 140,84.82490272373536 20,84.82490272373536Z" style="stroke: rgb(68, 68, 68); stroke-opacity: 1; fill: rgb(0, 0, 0); fill-opacity: 0.2; stroke-width: 0; opacity: 1;"/><path class="sankey-link" d="M20,98.50194552529179C140,98.50194552529179 140,309.20233463035015 260,309.20233463035015L260,313.52140077821C140,313.52140077821 140,102.82101167315172 20,102.82101167315172Z" style="stroke: rgb(68, 68, 68); stroke-opacity: 1; fill: rgb(0, 0, 0); fill-opacity: 0.2; stroke-width: 0; opacity: 1;"/><path class="sankey-link" d="M20,152.37354085603116C140,152.37354085603116 140,279.80544747081706 260,279.80544747081706L260,284.12451361867693C140,284.12451361867693 140,156.69260700389108 20,156.69260700389108Z" style="stroke: rgb(68, 68, 68); stroke-opacity: 1; fill: rgb(0, 0, 0); fill-opacity: 0.2; stroke-width: 0; opacity: 1;"/><path class="sankey-link" d="M20,244.76653696498056C140,244.76653696498056 140,287.0038910505836 260,287.0038910505836L260,292.0428015564202C140,292.0428015564202 140,249.8054474708171 20,249.8054474708171Z" style="stroke: rgb(68, 68, 68); stroke-opacity: 1; fill: rgb(0, 0, 0); fill-opacity: 0.2; stroke-width: 0; opacity: 1;"/><path class="sankey-link" d="M20,147.33463035019457C140,147.33463035019457 140,248.24902723735408 260,248.24902723735408L260,253.28793774319064C140,253.28793774319064 140,152.37354085603113 20,152.37354085603113Z" style="stroke: rgb(68, 68, 68); stroke-opacity: 1; fill: rgb(0, 0, 0); fill-opacity: 0.2; stroke-width: 0; opacity: 1;"/><path class="sankey-link" d="M20,75.46692607003887C140,75.46692607003887 140,144.22178988326866 260,144.22178988326866L260,149.2607003891052C140,149.2607003891052 140,80.50583657587545 20,80.50583657587545Z" style="stroke: rgb(68, 68, 68); stroke-opacity: 1; fill: rgb(0, 0, 0); fill-opacity: 0.2; stroke-width: 0; opacity: 1;"/><path class="sankey-link" d="M20,132.21789883268482C140,132.21789883268482 140,175.05836575875492 260,175.05836575875492L260,180.81712062256815C140,180.81712062256815 140,137.97665369649806 20,137.97665369649806Z" style="stroke: rgb(68, 68, 68); stroke-opacity: 1; fill: rgb(0, 0, 0); fill-opacity: 0.2; stroke-width: 0; opacity: 1;"/><path class="sankey-link" d="M20,84.82490272373536C140,84.82490272373536 140,203.0155642023347 260,203.0155642023347L260,209.49416342412457C140,209.49416342412457 140,91.30350194552526 20,91.30350194552526Z" style="stroke: rgb(68, 68, 68); stroke-opacity: 1; fill: rgb(0, 0, 0); fill-opacity: 0.2; stroke-width: 0; opacity: 1;"/><path class="sankey-link" d="M20,137.97665369649806C140,137.97665369649806 140,209.4941634241246 260,209.4941634241246L260,218.85214007782108C140,218.85214007782108 140,147.33463035019454 20,147.33463035019454Z" style="stroke: rgb(68, 68, 68); stroke-opacity: 1; fill: rgb(0, 0, 0); fill-opacity: 0.2; stroke-width: 0; opacity: 1;"/><path class="sankey-link" d="M20,120.70038910505836C140,120.70038910505836 140,104.0272373540856 260,104.0272373540856L260,113.38521400778211C140,113.38521400778211 140,130.05836575875486 20,130.05836575875486Z" style="stroke: rgb(68, 68, 68); stroke-opacity: 1; fill: rgb(0, 0, 0); fill-opacity: 0.2; stroke-width: 0; opacity: 1;"/><path class="sankey-link" d="M20,60.350194552529146C140,60.350194552529146 140,88.91050583657588 260,88.91050583657588L260,104.0272373540856C140,104.0272373540856 140,75.46692607003887 20,75.46692607003887Z" style="stroke: rgb(68, 68, 68); stroke-opacity: 1; fill: rgb(0, 0, 0); fill-opacity: 0.2; stroke-width: 0; opacity: 1;"/><path class="sankey-link" d="M20,-5.684341886080802e-14C140,-5.684341886080802e-14 140,29.999999999999968 260,29.999999999999968L260,45.11673151750969C140,45.11673151750969 140,15.11673151750967 20,15.11673151750967Z" style="stroke: rgb(68, 68, 68); stroke-opacity: 1; fill: rgb(0, 0, 0); fill-opacity: 0.2; stroke-width: 0; opacity: 1;"/><path class="sankey-link" d="M20,15.116731517509669C140,15.116731517509669 140,70.91439688715954 260,70.91439688715954L260,88.91050583657588C140,88.91050583657588 140,33.11284046692601 20,33.11284046692601Z" style="stroke: rgb(68, 68, 68); stroke-opacity: 1; fill: rgb(0, 0, 0); fill-opacity: 0.2; stroke-width: 0; opacity: 1;"/><path class="sankey-link" d="M280,213.81322957198452C400,213.81322957198452 400,316.4007782101167 520,316.4007782101167L520,317.1206225680933C400,317.1206225680933 400,214.53307392996115 280,214.53307392996115Z" style="stroke: rgb(0, 0, 0); stroke-opacity: 0.2; fill: rgb(0, 0, 0); fill-opacity: 0.2; stroke-width: 1; opacity: 1;"/><path class="sankey-link" d="M280,148.54085603112858C400,148.54085603112858 400,266.96498054474694 520,266.96498054474694L520,267.68482490272356C400,267.68482490272356 400,149.2607003891052 280,149.2607003891052Z" style="stroke: rgb(0, 0, 0); stroke-opacity: 0.2; fill: rgb(0, 0, 0); fill-opacity: 0.2; stroke-width: 1; opacity: 1;"/><path class="sankey-link" d="M280,143.501945525292C400,143.501945525292 400,109.29961089494151 520,109.29961089494151L520,110.01945525291816C400,110.01945525291816 400,144.22178988326863 280,144.22178988326863Z" style="stroke: rgb(0, 0, 0); stroke-opacity: 0.2; fill: rgb(0, 0, 0); fill-opacity: 0.2; stroke-width: 1; opacity: 1;"/><path class="sankey-link" d="M280,248.24902723735408C400,248.24902723735408 400,274.1634241245134 520,274.1634241245134L520,274.88326848249005C400,274.88326848249005 400,248.9688715953307 280,248.9688715953307Z" style="stroke: rgb(0, 0, 0); stroke-opacity: 0.2; fill: rgb(0, 0, 0); fill-opacity: 0.2; stroke-width: 1; opacity: 1;"/><path class="sankey-link" d="M280,248.96887159533074C400,248.96887159533074 400,317.1206225680933 520,317.1206225680933L520,317.84046692606995C400,317.84046692606995 400,249.68871595330737 280,249.68871595330737Z" style="stroke: rgb(0, 0, 0); stroke-opacity: 0.2; fill: rgb(0, 0, 0); fill-opacity: 0.2; stroke-width: 1; opacity: 1;"/><path class="sankey-link" d="M280,172.1789883268483C400,172.1789883268483 400,168.09338521400764 520,168.09338521400764L520,168.81322957198427C400,168.81322957198427 400,172.89883268482492 280,172.89883268482492Z" style="stroke: rgb(0, 0, 0); stroke-opacity: 0.2; fill: rgb(0, 0, 0); fill-opacity: 0.2; stroke-width: 1; opacity: 1;"/><path class="sankey-link" d="M280,144.22178988326866C400,144.22178988326866 400,137.25680933852126 520,137.25680933852126L520,137.9766536964979C400,137.9766536964979 400,144.94163424124528 280,144.94163424124528Z" style="stroke: rgb(0, 0, 0); stroke-opacity: 0.2; fill: rgb(0, 0, 0); fill-opacity: 0.2; stroke-width: 1; opacity: 1;"/><path class="sankey-link" d="M280,144.9416342412453C400,144.9416342412453 400,167.37354085603098 520,167.37354085603098L520,168.0933852140076C400,168.0933852140076 400,145.66147859922194 280,145.66147859922194Z" style="stroke: rgb(0, 0, 0); stroke-opacity: 0.2; fill: rgb(0, 0, 0); fill-opacity: 0.2; stroke-width: 1; opacity: 1;"/><path class="sankey-link" d="M280,172.89883268482495C400,172.89883268482495 400,195.33073929961068 520,195.33073929961068L520,196.0505836575873C400,196.0505836575873 400,173.61867704280158 280,173.61867704280158Z" style="stroke: rgb(0, 0, 0); stroke-opacity: 0.2; fill: rgb(0, 0, 0); fill-opacity: 0.2; stroke-width: 1; opacity: 1;"/><path class="sankey-link" d="M280,205.89494163424132C400,205.89494163424132 400,196.05058365758734 520,196.05058365758734L520,196.77042801556397C400,196.77042801556397 400,206.61478599221795 280,206.61478599221795Z" style="stroke: rgb(0, 0, 0); stroke-opacity: 0.2; fill: rgb(0, 0, 0); fill-opacity: 0.2; stroke-width: 1; opacity: 1;"/><path class="sankey-link" d="M280,274.0466926070039C400,274.0466926070039 400,113.61867704280144 520,113.61867704280144L520,114.33852140077809C400,114.33852140077809 400,274.7665369649805 280,274.7665369649805Z" style="stroke: rgb(0, 0, 0); stroke-opacity: 0.2; fill: rgb(0, 0, 0); fill-opacity: 0.2; stroke-width: 1; opacity: 1;"/><path class="sankey-link" d="M280,177.93774319066154C400,177.93774319066154 400,295.6420233463034 520,295.6420233463034L520,296.36186770428003C400,296.36186770428003 400,178.65758754863816 280,178.65758754863816Z" style="stroke: rgb(0, 0, 0); stroke-opacity: 0.2; fill: rgb(0, 0, 0); fill-opacity: 0.2; stroke-width: 1; opacity: 1;"/><path class="sankey-link" d="M280,311.3618677042801C400,311.3618677042801 400,299.24124513618665 520,299.24124513618665L520,299.9610894941633C400,299.9610894941633 400,312.0817120622567 280,312.0817120622567Z" style="stroke: rgb(0, 0, 0); stroke-opacity: 0.2; fill: rgb(0, 0, 0); fill-opacity: 0.2; stroke-width: 1; opacity: 1;"/><path class="sankey-link" d="M280,169.29961089494168C400,169.29961089494168 400,110.01945525291816 520,110.01945525291816L520,110.73929961089482C400,110.73929961089482 400,170.0194552529183 280,170.0194552529183Z" style="stroke: rgb(0, 0, 0); stroke-opacity: 0.2; fill: rgb(0, 0, 0); fill-opacity: 0.2; stroke-width: 1; opacity: 1;"/><path class="sankey-link" d="M280,38.63813229571982C400,38.63813229571982 400,241.16731517509703 520,241.16731517509703L520,241.88715953307366C400,241.88715953307366 400,39.357976653696475 280,39.357976653696475Z" style="stroke: rgb(0, 0, 0); stroke-opacity: 0.2; fill: rgb(0, 0, 0); fill-opacity: 0.2; stroke-width: 1; opacity: 1;"/><path class="sankey-link" d="M280,175.05836575875492C400,175.05836575875492 400,244.04669260700365 520,244.04669260700365L520,244.76653696498028C400,244.76653696498028 400,175.77821011673154 280,175.77821011673154Z" style="stroke: rgb(0, 0, 0); stroke-opacity: 0.2; fill: rgb(0, 0, 0); fill-opacity: 0.2; stroke-width: 1; opacity: 1;"/><path class="sankey-link" d="M280,246.80933852140078C400,246.80933852140078 400,223.28793774319047 520,223.28793774319047L520,224.0077821011671C400,224.0077821011671 400,247.5291828793774 280,247.5291828793774Z" style="stroke: rgb(0, 0, 0); stroke-opacity: 0.2; fill: rgb(0, 0, 0); fill-opacity: 0.2; stroke-width: 1; opacity: 1;"/><path class="sankey-link" d="M280,247.52918287937743C400,247.52918287937743 400,244.7665369649803 520,244.7665369649803L520,245.48638132295693C400,245.48638132295693 400,248.24902723735406 280,248.24902723735406Z" style="stroke: rgb(0, 0, 0); stroke-opacity: 0.2; fill: rgb(0, 0, 0); fill-opacity: 0.2; stroke-width: 1; opacity: 1;"/><path class="sankey-link" d="M280,37.918287937743166C400,37.918287937743166 400,214.6498054474706 520,214.6498054474706L520,215.36964980544724C400,215.36964980544724 400,38.63813229571982 280,38.63813229571982Z" style="stroke: rgb(0, 0, 0); stroke-opacity: 0.2; fill: rgb(0, 0, 0); fill-opacity: 0.2; stroke-width: 1; opacity: 1;"/><path class="sankey-link" d="M280,308.4824902723735C400,308.4824902723735 400,225.44747081712043 520,225.44747081712043L520,226.16731517509706C400,226.16731517509706 400,309.20233463035015 280,309.20233463035015Z" style="stroke: rgb(0, 0, 0); stroke-opacity: 0.2; fill: rgb(0, 0, 0); fill-opacity: 0.2; stroke-width: 1; opacity: 1;"/><path class="sankey-link" d="M280,243.92996108949416C400,243.92996108949416 400,112.17898832684813 520,112.17898832684813L520,113.61867704280144C400,113.61867704280144 400,245.36964980544747 280,245.36964980544747Z" style="stroke: rgb(68, 68, 68); stroke-opacity: 1; fill: rgb(0, 0, 0); fill-opacity: 0.2; stroke-width: 0; opacity: 1;"/><path class="sankey-link" d="M280,199.41634241245143C400,199.41634241245143 400,110.73929961089482 520,110.73929961089482L520,112.17898832684813C400,112.17898832684813 400,200.85603112840474 280,200.85603112840474Z" style="stroke: rgb(68, 68, 68); stroke-opacity: 1; fill: rgb(0, 0, 0); fill-opacity: 0.2; stroke-width: 0; opacity: 1;"/><path class="sankey-link" d="M280,34.31906614785989C400,34.31906614785989 400,160.8949416342411 520,160.8949416342411L520,162.3346303501944C400,162.3346303501944 400,35.7587548638132 280,35.7587548638132Z" style="stroke: rgb(68, 68, 68); stroke-opacity: 1; fill: rgb(0, 0, 0); fill-opacity: 0.2; stroke-width: 0; opacity: 1;"/><path class="sankey-link" d="M280,99.7081712062257C400,99.7081712062257 400,314.9610894941634 520,314.9610894941634L520,316.40077821011664C400,316.40077821011664 400,101.14785992217901 280,101.14785992217901Z" style="stroke: rgb(68, 68, 68); stroke-opacity: 1; fill: rgb(0, 0, 0); fill-opacity: 0.2; stroke-width: 0; opacity: 1;"/><path class="sankey-link" d="M280,145.66147859922197C400,145.66147859922197 400,193.89105058365737 520,193.89105058365737L520,195.33073929961068C400,195.33073929961068 400,147.10116731517527 280,147.10116731517527Z" style="stroke: rgb(68, 68, 68); stroke-opacity: 1; fill: rgb(0, 0, 0); fill-opacity: 0.2; stroke-width: 0; opacity: 1;"/><path class="sankey-link" d="M280,282.6848249027237C400,282.6848249027237 400,224.00778210116712 520,224.00778210116712L520,225.44747081712043C400,225.44747081712043 400,284.12451361867693 280,284.12451361867693Z" style="stroke: rgb(68, 68, 68); stroke-opacity: 1; fill: rgb(0, 0, 0); fill-opacity: 0.2; stroke-width: 0; opacity: 1;"/><path class="sankey-link" d="M280,206.61478599221797C400,206.61478599221797 400,221.84824902723716 520,221.84824902723716L520,223.28793774319047C400,223.28793774319047 400,208.05447470817128 280,208.05447470817128Z" style="stroke: rgb(68, 68, 68); stroke-opacity: 1; fill: rgb(0, 0, 0); fill-opacity: 0.2; stroke-width: 0; opacity: 1;"/><path class="sankey-link" d="M280,212.3735408560312C400,212.3735408560312 400,296.36186770428003 520,296.36186770428003L520,297.8015564202333C400,297.8015564202333 400,213.81322957198452 280,213.81322957198452Z" style="stroke: rgb(68, 68, 68); stroke-opacity: 1; fill: rgb(0, 0, 0); fill-opacity: 0.2; stroke-width: 0; opacity: 1;"/><path class="sankey-link" d="M280,286.2840466926069C400,286.2840466926069 400,297.80155642023334 520,297.80155642023334L520,299.2412451361866C400,299.2412451361866 400,287.7237354085602 280,287.7237354085602Z" style="stroke: rgb(68, 68, 68); stroke-opacity: 1; fill: rgb(0, 0, 0); fill-opacity: 0.2; stroke-width: 0; opacity: 1;"/><path class="sankey-link" d="M280,147.10116731517527C400,147.10116731517527 400,218.96887159533054 520,218.96887159533054L520,220.40856031128385C400,220.40856031128385 400,148.54085603112858 280,148.54085603112858Z" style="stroke: rgb(68, 68, 68); stroke-opacity: 1; fill: rgb(0, 0, 0); fill-opacity: 0.2; stroke-width: 0; opacity: 1;"/><path class="sankey-link" d="M280,245.36964980544747C400,245.36964980544747 400,142.29571984435785 520,142.29571984435785L520,143.73540856031116C400,143.73540856031116 400,246.80933852140078 280,246.80933852140078Z" style="stroke: rgb(68, 68, 68); stroke-opacity: 1; fill: rgb(0, 0, 0); fill-opacity: 0.2; stroke-width: 0; opacity: 1;"/><path class="sankey-link" d="M280,173.6186770428016C400,173.6186770428016 400,220.40856031128385 520,220.40856031128385L520,221.84824902723716C400,221.84824902723716 400,175.05836575875492 280,175.05836575875492Z" style="stroke: rgb(68, 68, 68); stroke-opacity: 1; fill: rgb(0, 0, 0); fill-opacity: 0.2; stroke-width: 0; opacity: 1;"/><path class="sankey-link" d="M280,86.03112840466926C400,86.03112840466926 400,191.7315175097274 520,191.7315175097274L520,193.89105058365735C400,193.89105058365735 400,88.19066147859922 280,88.19066147859922Z" style="stroke: rgb(68, 68, 68); stroke-opacity: 1; fill: rgb(0, 0, 0); fill-opacity: 0.2; stroke-width: 0; opacity: 1;"/><path class="sankey-link" d="M280,35.7587548638132C400,35.7587548638132 400,189.57198443579745 520,189.57198443579745L520,191.73151750972738C400,191.73151750972738 400,37.918287937743166 280,37.918287937743166Z" style="stroke: rgb(68, 68, 68); stroke-opacity: 1; fill: rgb(0, 0, 0); fill-opacity: 0.2; stroke-width: 0; opacity: 1;"/><path class="sankey-link" d="M280,287.72373540856023C400,287.72373540856023 400,317.84046692606995 520,317.84046692606995L520,319.99999999999994C400,319.99999999999994 400,289.8832684824902 280,289.8832684824902Z" style="stroke: rgb(68, 68, 68); stroke-opacity: 1; fill: rgb(0, 0, 0); fill-opacity: 0.2; stroke-width: 0; opacity: 1;"/><path class="sankey-link" d="M280,91.7898832684825C400,91.7898832684825 400,241.88715953307369 520,241.88715953307369L520,244.04669260700362C400,244.04669260700362 400,93.94941634241246 280,93.94941634241246Z" style="stroke: rgb(68, 68, 68); stroke-opacity: 1; fill: rgb(0, 0, 0); fill-opacity: 0.2; stroke-width: 0; opacity: 1;"/><path class="sankey-link" d="M280,274.7665369649805C400,274.7665369649805 400,143.73540856031116 520,143.73540856031116L520,145.8949416342411C400,145.8949416342411 400,276.9260700389105 280,276.9260700389105Z" style="stroke: rgb(68, 68, 68); stroke-opacity: 1; fill: rgb(0, 0, 0); fill-opacity: 0.2; stroke-width: 0; opacity: 1;"/><path class="sankey-link" d="M280,284.124513618677C400,284.124513618677 400,245.48638132295696 520,245.48638132295696L520,247.6459143968869C400,247.6459143968869 400,286.284046692607 280,286.284046692607Z" style="stroke: rgb(68, 68, 68); stroke-opacity: 1; fill: rgb(0, 0, 0); fill-opacity: 0.2; stroke-width: 0; opacity: 1;"/><path class="sankey-link" d="M280,32.15953307392993C400,32.15953307392993 400,129.33852140077806 520,129.33852140077806L520,131.498054474708C400,131.498054474708 400,34.31906614785989 280,34.31906614785989Z" style="stroke: rgb(68, 68, 68); stroke-opacity: 1; fill: rgb(0, 0, 0); fill-opacity: 0.2; stroke-width: 0; opacity: 1;"/><path class="sankey-link" d="M280,170.01945525291833C400,170.01945525291833 400,137.97665369649792 520,137.97665369649792L520,140.13618677042786C400,140.13618677042786 400,172.17898832684827 280,172.17898832684827Z" style="stroke: rgb(68, 68, 68); stroke-opacity: 1; fill: rgb(0, 0, 0); fill-opacity: 0.2; stroke-width: 0; opacity: 1;"/><path class="sankey-link" d="M280,29.999999999999964C400,29.999999999999964 400,102.82101167315162 520,102.82101167315162L520,104.98054474708158C400,104.98054474708158 400,32.15953307392993 280,32.15953307392993Z" style="stroke: rgb(68, 68, 68); stroke-opacity: 1; fill: rgb(0, 0, 0); fill-opacity: 0.2; stroke-width: 0; opacity: 1;"/><path class="sankey-link" d="M280,200.85603112840474C400,200.85603112840474 400,140.13618677042788 520,140.13618677042788L520,142.29571984435782C400,142.29571984435782 400,203.01556420233467 280,203.01556420233467Z" style="stroke: rgb(68, 68, 68); stroke-opacity: 1; fill: rgb(0, 0, 0); fill-opacity: 0.2; stroke-width: 0; opacity: 1;"/><path class="sankey-link" d="M280,175.77821011673157C400,175.77821011673157 400,267.68482490272356 520,267.68482490272356L520,269.84435797665355C400,269.84435797665355 400,177.9377431906615 280,177.9377431906615Z" style="stroke: rgb(68, 68, 68); stroke-opacity: 1; fill: rgb(0, 0, 0); fill-opacity: 0.2; stroke-width: 0; opacity: 1;"/><path class="sankey-link" d="M280,93.94941634241246C400,93.94941634241246 400,264.805447470817 520,264.805447470817L520,266.964980544747C400,266.964980544747 400,96.10894941634243 280,96.10894941634243Z" style="stroke: rgb(68, 68, 68); stroke-opacity: 1; fill: rgb(0, 0, 0); fill-opacity: 0.2; stroke-width: 0; opacity: 1;"/><path class="sankey-link" d="M280,39.357976653696475C400,39.357976653696475 400,262.64591439688706 520,262.64591439688706L520,264.80544747081706C400,264.80544747081706 400,41.51750972762644 280,41.51750972762644Z" style="stroke: rgb(68, 68, 68); stroke-opacity: 1; fill: rgb(0, 0, 0); fill-opacity: 0.2; stroke-width: 0; opacity: 1;"/><path class="sankey-link" d="M280,309.20233463035015C400,309.20233463035015 400,274.88326848249005 520,274.88326848249005L520,277.04280155642005C400,277.04280155642005 400,311.36186770428014 280,311.36186770428014Z" style="stroke: rgb(68, 68, 68); stroke-opacity: 1; fill: rgb(0, 0, 0); fill-opacity: 0.2; stroke-width: 0; opacity: 1;"/><path class="sankey-link" d="M280,203.0155642023347C400,203.0155642023347 400,168.8132295719843 520,168.8132295719843L520,171.6926070038909C400,171.6926070038909 400,205.89494163424132 280,205.89494163424132Z" style="stroke: rgb(68, 68, 68); stroke-opacity: 1; fill: rgb(0, 0, 0); fill-opacity: 0.2; stroke-width: 0; opacity: 1;"/><path class="sankey-link" d="M280,279.80544747081706C400,279.80544747081706 400,196.770428015564 520,196.770428015564L520,199.6498054474706C400,199.6498054474706 400,282.6848249027237 280,282.6848249027237Z" style="stroke: rgb(68, 68, 68); stroke-opacity: 1; fill: rgb(0, 0, 0); fill-opacity: 0.2; stroke-width: 0; opacity: 1;"/><path class="sankey-link" d="M280,276.92607003891044C400,276.92607003891044 400,171.6926070038909 520,171.6926070038909L520,174.57198443579753C400,174.57198443579753 400,279.80544747081706 280,279.80544747081706Z" style="stroke: rgb(68, 68, 68); stroke-opacity: 1; fill: rgb(0, 0, 0); fill-opacity: 0.2; stroke-width: 0; opacity: 1;"/><path class="sankey-link" d="M280,96.10894941634243C400,96.10894941634243 400,292.04280155642016 520,292.04280155642016L520,295.6420233463034C400,295.6420233463034 400,99.7081712062257 280,99.7081712062257Z" style="stroke: rgb(68, 68, 68); stroke-opacity: 1; fill: rgb(0, 0, 0); fill-opacity: 0.2; stroke-width: 0; opacity: 1;"/><path class="sankey-link" d="M280,88.19066147859922C400,88.19066147859922 400,215.36964980544727 520,215.36964980544727L520,218.9688715953305C400,218.9688715953305 400,91.7898832684825 280,91.7898832684825Z" style="stroke: rgb(68, 68, 68); stroke-opacity: 1; fill: rgb(0, 0, 0); fill-opacity: 0.2; stroke-width: 0; opacity: 1;"/><path class="sankey-link" d="M280,208.05447470817128C400,208.05447470817128 400,269.8443579766535 520,269.8443579766535L520,274.16342412451337C400,274.16342412451337 400,212.3735408560312 280,212.3735408560312Z" style="stroke: rgb(68, 68, 68); stroke-opacity: 1; fill: rgb(0, 0, 0); fill-opacity: 0.2; stroke-width: 0; opacity: 1;"/><path class="sankey-link" d="M280,70.91439688715954C400,70.91439688715954 400,104.98054474708158 520,104.98054474708158L520,109.29961089494151C400,109.29961089494151 400,75.23346303501947 280,75.23346303501947Z" style="stroke: rgb(68, 68, 68); stroke-opacity: 1; fill: rgb(0, 0, 0); fill-opacity: 0.2; stroke-width: 0; opacity: 1;"/><path class="sankey-link" d="M280,80.99221789883269C400,80.99221789883269 400,162.3346303501944 520,162.3346303501944L520,167.37354085603096C400,167.37354085603096 400,86.03112840466927 280,86.03112840466927Z" style="stroke: rgb(68, 68, 68); stroke-opacity: 1; fill: rgb(0, 0, 0); fill-opacity: 0.2; stroke-width: 0; opacity: 1;"/><path class="sankey-link" d="M280,75.23346303501947C400,75.23346303501947 400,131.49805447470803 520,131.49805447470803L520,137.25680933852126C400,137.25680933852126 400,80.9922178988327 280,80.9922178988327Z" style="stroke: rgb(68, 68, 68); stroke-opacity: 1; fill: rgb(0, 0, 0); fill-opacity: 0.2; stroke-width: 0; opacity: 1;"/></g><g class="sankey-node-set" style="cursor: move;"><g class="sankey-node" transform="translate(0.000,239.008)" style="opacity: 1;"><rect class="node-rect" width="20" height="11.517509727626418" style="stroke-width: 0.5; stroke: rgb(0, 0, 0); stroke-opacity: 1; fill: rgb(0, 0, 255); fill-opacity: 1;"/><text class="node-label" data-notex="1" x="0" y="0" text-anchor="start" transform="translate(23.25,9.958754863813208)" style="cursor: default; font-family: 'Open Sans', verdana, arial, sans-serif; font-size: 12px; fill: rgb(42, 63, 95); fill-opacity: 1; white-space: pre; text-shadow: white 1px 1px 1px, white -1px -1px 1px, white 1px -1px 1px, white -1px 1px 1px;">Classification</text></g><g class="sankey-node" transform="translate(0.000,-0.000)" style="opacity: 1;"><rect class="node-rect" width="20" height="42.470817120622584" style="stroke-width: 0.5; stroke: rgb(0, 0, 0); stroke-opacity: 1; fill: rgb(0, 0, 255); fill-opacity: 1;"/><text class="node-label" data-notex="1" x="0" y="0" text-anchor="start" transform="translate(23.25,25.43540856031129)" style="cursor: default; font-family: 'Open Sans', verdana, arial, sans-serif; font-size: 12px; fill: rgb(42, 63, 95); fill-opacity: 1; white-space: pre; text-shadow: white 1px 1px 1px, white -1px -1px 1px, white 1px -1px 1px, white -1px 1px 1px;">Clustering</text></g><g class="sankey-node" transform="translate(0.000,288.444)" style="opacity: 1;"><rect class="node-rect" width="20" height="10.797665369649792" style="stroke-width: 0.5; stroke: rgb(0, 0, 0); stroke-opacity: 1; fill: rgb(0, 0, 255); fill-opacity: 1;"/><text class="node-label" data-notex="1" x="0" y="0" text-anchor="start" transform="translate(23.25,9.598832684824895)" style="cursor: default; font-family: 'Open Sans', verdana, arial, sans-serif; font-size: 12px; fill: rgb(42, 63, 95); fill-opacity: 1; white-space: pre; text-shadow: white 1px 1px 1px, white -1px -1px 1px, white 1px -1px 1px, white -1px 1px 1px;">Deep learning</text></g><g class="sankey-node" transform="translate(0.000,172.412)" style="opacity: 1;"><rect class="node-rect" width="20" height="5.7587548638132375" style="stroke-width: 0.5; stroke: rgb(0, 0, 0); stroke-opacity: 1; fill: rgb(0, 0, 255); fill-opacity: 1;"/><text class="node-label" data-notex="1" x="0" y="0" text-anchor="start" transform="translate(23.25,7.079377431906618)" style="cursor: default; font-family: 'Open Sans', verdana, arial, sans-serif; font-size: 12px; fill: rgb(42, 63, 95); fill-opacity: 1; white-space: pre; text-shadow: white 1px 1px 1px, white -1px -1px 1px, white 1px -1px 1px, white -1px 1px 1px;">Descriptive statistics</text></g><g class="sankey-node" transform="translate(0.000,314.241)" style="opacity: 1;"><rect class="node-rect" width="20" height="5.7587548638132375" style="stroke-width: 0.5; stroke: rgb(0, 0, 0); stroke-opacity: 1; fill: rgb(0, 0, 255); fill-opacity: 1;"/><text class="node-label" data-notex="1" x="0" y="0" text-anchor="start" transform="translate(23.25,7.079377431906618)" style="cursor: default; font-family: 'Open Sans', verdana, arial, sans-serif; font-size: 12px; fill: rgb(42, 63, 95); fill-opacity: 1; white-space: pre; text-shadow: white 1px 1px 1px, white -1px -1px 1px, white 1px -1px 1px, white -1px 1px 1px;">Language model</text></g><g class="sankey-node" transform="translate(0.000,215.370)" style="opacity: 1;"><rect class="node-rect" width="20" height="8.638132295719856" style="stroke-width: 0.5; stroke: rgb(0, 0, 0); stroke-opacity: 1; fill: rgb(0, 0, 255); fill-opacity: 1;"/><text class="node-label" data-notex="1" x="0" y="0" text-anchor="start" transform="translate(23.25,8.519066147859927)" style="cursor: default; font-family: 'Open Sans', verdana, arial, sans-serif; font-size: 12px; fill: rgb(42, 63, 95); fill-opacity: 1; white-space: pre; text-shadow: white 1px 1px 1px, white -1px -1px 1px, white 1px -1px 1px, white -1px 1px 1px;">Modelo propio</text></g><g class="sankey-node" transform="translate(0.000,193.171)" style="opacity: 1;"><rect class="node-rect" width="20" height="7.198443579766547" style="stroke-width: 0.5; stroke: rgb(0, 0, 0); stroke-opacity: 1; fill: rgb(0, 0, 255); fill-opacity: 1;"/><text class="node-label" data-notex="1" x="0" y="0" text-anchor="start" transform="translate(23.25,7.799221789883273)" style="cursor: default; font-family: 'Open Sans', verdana, arial, sans-serif; font-size: 12px; fill: rgb(42, 63, 95); fill-opacity: 1; white-space: pre; text-shadow: white 1px 1px 1px, white -1px -1px 1px, white 1px -1px 1px, white -1px 1px 1px;">OD matrix</text></g><g class="sankey-node" transform="translate(0.000,265.525)" style="opacity: 1;"><rect class="node-rect" width="20" height="7.91828793774323" style="stroke-width: 0.5; stroke: rgb(0, 0, 0); stroke-opacity: 1; fill: rgb(0, 0, 255); fill-opacity: 1;"/><text class="node-label" data-notex="1" x="0" y="0" text-anchor="start" transform="translate(23.25,8.159143968871614)" style="cursor: default; font-family: 'Open Sans', verdana, arial, sans-serif; font-size: 12px; fill: rgb(42, 63, 95); fill-opacity: 1; white-space: pre; text-shadow: white 1px 1px 1px, white -1px -1px 1px, white 1px -1px 1px, white -1px 1px 1px;">Probability model</text></g><g class="sankey-node" transform="translate(0.000,57.471)" style="opacity: 1;"><rect class="node-rect" width="20" height="45.35019455252922" style="stroke-width: 0.5; stroke: rgb(0, 0, 0); stroke-opacity: 1; fill: rgb(0, 0, 255); fill-opacity: 1;"/><text class="node-label" data-notex="1" x="0" y="0" text-anchor="start" transform="translate(23.25,26.875097276264608)" style="cursor: default; font-family: 'Open Sans', verdana, arial, sans-serif; font-size: 12px; fill: rgb(42, 63, 95); fill-opacity: 1; white-space: pre; text-shadow: white 1px 1px 1px, white -1px -1px 1px, white 1px -1px 1px, white -1px 1px 1px;">Regression</text></g><g class="sankey-node" transform="translate(0.000,117.821)" style="opacity: 1;"><rect class="node-rect" width="20" height="39.59143968871594" style="stroke-width: 0.5; stroke: rgb(0, 0, 0); stroke-opacity: 1; fill: rgb(0, 0, 255); fill-opacity: 1;"/><text class="node-label" data-notex="1" x="0" y="0" text-anchor="start" transform="translate(23.25,23.995719844357968)" style="cursor: default; font-family: 'Open Sans', verdana, arial, sans-serif; font-size: 12px; fill: rgb(42, 63, 95); fill-opacity: 1; white-space: pre; text-shadow: white 1px 1px 1px, white -1px -1px 1px, white 1px -1px 1px, white -1px 1px 1px;">Other</text></g><g class="sankey-node" transform="translate(260.000,70.914)" style="opacity: 1;"><rect class="node-rect" width="20" height="57.58754863813246" style="stroke-width: 0.5; stroke: rgb(0, 0, 0); stroke-opacity: 1; fill: rgb(0, 0, 255); fill-opacity: 1;"/><text class="node-label" data-notex="1" x="0" y="0" text-anchor="start" transform="translate(23.25,32.99377431906623)" style="cursor: default; font-family: 'Open Sans', verdana, arial, sans-serif; font-size: 12px; fill: rgb(42, 63, 95); fill-opacity: 1; white-space: pre; text-shadow: white 1px 1px 1px, white -1px -1px 1px, white 1px -1px 1px, white -1px 1px 1px;">Analisis de patrones</text></g><g class="sankey-node" transform="translate(260.000,30.000)" style="opacity: 1;"><rect class="node-rect" width="20" height="25.914396887159576" style="stroke-width: 0.5; stroke: rgb(0, 0, 0); stroke-opacity: 1; fill: rgb(0, 0, 255); fill-opacity: 1;"/><text class="node-label" data-notex="1" x="0" y="0" text-anchor="start" transform="translate(23.25,17.157198443579787)" style="cursor: default; font-family: 'Open Sans', verdana, arial, sans-serif; font-size: 12px; fill: rgb(42, 63, 95); fill-opacity: 1; white-space: pre; text-shadow: white 1px 1px 1px, white -1px -1px 1px, white 1px -1px 1px, white -1px 1px 1px;">Clasificación</text></g><g class="sankey-node" transform="translate(260.000,169.300)" style="opacity: 1;"><rect class="node-rect" width="20" height="15.116731517509749" style="stroke-width: 0.5; stroke: rgb(0, 0, 0); stroke-opacity: 1; fill: rgb(0, 0, 255); fill-opacity: 1;"/><text class="node-label" data-notex="1" x="0" y="0" text-anchor="start" transform="translate(23.25,11.758365758754874)" style="cursor: default; font-family: 'Open Sans', verdana, arial, sans-serif; font-size: 12px; fill: rgb(42, 63, 95); fill-opacity: 1; white-space: pre; text-shadow: white 1px 1px 1px, white -1px -1px 1px, white 1px -1px 1px, white -1px 1px 1px;">Flujo de pasajeros</text></g><g class="sankey-node" transform="translate(260.000,274.047)" style="opacity: 1;"><rect class="node-rect" width="20" height="19.43579766536965" style="stroke-width: 0.5; stroke: rgb(0, 0, 0); stroke-opacity: 1; fill: rgb(0, 0, 255); fill-opacity: 1;"/><text class="node-label" data-notex="1" x="0" y="0" text-anchor="start" transform="translate(23.25,13.917898832684823)" style="cursor: default; font-family: 'Open Sans', verdana, arial, sans-serif; font-size: 12px; fill: rgb(42, 63, 95); fill-opacity: 1; white-space: pre; text-shadow: white 1px 1px 1px, white -1px -1px 1px, white 1px -1px 1px, white -1px 1px 1px;">Indicadores rendimiento</text></g><g class="sankey-node" transform="translate(260.000,243.930)" style="opacity: 1;"><rect class="node-rect" width="20" height="15.11673151750972" style="stroke-width: 0.5; stroke: rgb(0, 0, 0); stroke-opacity: 1; fill: rgb(0, 0, 255); fill-opacity: 1;"/><text class="node-label" data-notex="1" x="0" y="0" text-anchor="start" transform="translate(23.25,11.75836575875486)" style="cursor: default; font-family: 'Open Sans', verdana, arial, sans-serif; font-size: 12px; fill: rgb(42, 63, 95); fill-opacity: 1; white-space: pre; text-shadow: white 1px 1px 1px, white -1px -1px 1px, white 1px -1px 1px, white -1px 1px 1px;">OD matrix</text></g><g class="sankey-node" transform="translate(260.000,199.416)" style="opacity: 1;"><rect class="node-rect" width="20" height="29.513618677042757" style="stroke-width: 0.5; stroke: rgb(0, 0, 0); stroke-opacity: 1; fill: rgb(0, 0, 255); fill-opacity: 1;"/><text class="node-label" data-notex="1" x="0" y="0" text-anchor="start" transform="translate(23.25,18.956809338521378)" style="cursor: default; font-family: 'Open Sans', verdana, arial, sans-serif; font-size: 12px; fill: rgb(42, 63, 95); fill-opacity: 1; white-space: pre; text-shadow: white 1px 1px 1px, white -1px -1px 1px, white 1px -1px 1px, white -1px 1px 1px;">Other</text></g><g class="sankey-node" transform="translate(260.000,143.502)" style="opacity: 1;"><rect class="node-rect" width="20" height="10.797665369649678" style="stroke-width: 0.5; stroke: rgb(0, 0, 0); stroke-opacity: 1; fill: rgb(0, 0, 255); fill-opacity: 1;"/><text class="node-label" data-notex="1" x="0" y="0" text-anchor="start" transform="translate(23.25,9.598832684824838)" style="cursor: default; font-family: 'Open Sans', verdana, arial, sans-serif; font-size: 12px; fill: rgb(42, 63, 95); fill-opacity: 1; white-space: pre; text-shadow: white 1px 1px 1px, white -1px -1px 1px, white 1px -1px 1px, white -1px 1px 1px;">Path planning/finding</text></g><g class="sankey-node" transform="translate(260.000,308.482)" style="opacity: 1;"><rect class="node-rect" width="20" height="11.517509727626475" style="stroke-width: 0.5; stroke: rgb(0, 0, 0); stroke-opacity: 1; fill: rgb(0, 0, 255); fill-opacity: 1;"/><text class="node-label" data-notex="1" x="0" y="0" text-anchor="start" transform="translate(23.25,9.958754863813237)" style="cursor: default; font-family: 'Open Sans', verdana, arial, sans-serif; font-size: 12px; fill: rgb(42, 63, 95); fill-opacity: 1; white-space: pre; text-shadow: white 1px 1px 1px, white -1px -1px 1px, white 1px -1px 1px, white -1px 1px 1px;">Prediccion demanda</text></g><g class="sankey-node" transform="translate(520.000,241.167)" style="opacity: 1;"><rect class="node-rect" width="20" height="6.478599221790034" style="stroke-width: 0.5; stroke: rgb(0, 0, 0); stroke-opacity: 1; fill: rgb(0, 0, 255); fill-opacity: 1;"/><text class="node-label" data-notex="1" x="0" y="0" text-anchor="end" transform="translate(-3.25,7.4392996108950165)" style="cursor: default; font-family: 'Open Sans', verdana, arial, sans-serif; font-size: 12px; fill: rgb(42, 63, 95); fill-opacity: 1; white-space: pre; text-shadow: white 1px 1px 1px, white -1px -1px 1px, white 1px -1px 1px, white -1px 1px 1px;">Land use</text></g><g class="sankey-node" transform="translate(520.000,214.650)" style="opacity: 1;"><rect class="node-rect" width="20" height="11.517509727626418" style="stroke-width: 0.5; stroke: rgb(0, 0, 0); stroke-opacity: 1; fill: rgb(0, 0, 255); fill-opacity: 1;"/><text class="node-label" data-notex="1" x="0" y="0" text-anchor="end" transform="translate(-3.25,9.958754863813208)" style="cursor: default; font-family: 'Open Sans', verdana, arial, sans-serif; font-size: 12px; fill: rgb(42, 63, 95); fill-opacity: 1; white-space: pre; text-shadow: white 1px 1px 1px, white -1px -1px 1px, white 1px -1px 1px, white -1px 1px 1px;">Layers</text></g><g class="sankey-node" transform="translate(520.000,292.043)" style="opacity: 1;"><rect class="node-rect" width="20" height="7.91828793774323" style="stroke-width: 0.5; stroke: rgb(0, 0, 0); stroke-opacity: 1; fill: rgb(0, 0, 255); fill-opacity: 1;"/><text class="node-label" data-notex="1" x="0" y="0" text-anchor="end" transform="translate(-3.25,8.159143968871614)" style="cursor: default; font-family: 'Open Sans', verdana, arial, sans-serif; font-size: 12px; fill: rgb(42, 63, 95); fill-opacity: 1; white-space: pre; text-shadow: white 1px 1px 1px, white -1px -1px 1px, white 1px -1px 1px, white -1px 1px 1px;">Meteorological</text></g><g class="sankey-node" transform="translate(520.000,129.339)" style="opacity: 1;"><rect class="node-rect" width="20" height="16.55642023346303" style="stroke-width: 0.5; stroke: rgb(0, 0, 0); stroke-opacity: 1; fill: rgb(0, 0, 255); fill-opacity: 1;"/><text class="node-label" data-notex="1" x="0" y="0" text-anchor="end" transform="translate(-3.25,12.478210116731514)" style="cursor: default; font-family: 'Open Sans', verdana, arial, sans-serif; font-size: 12px; fill: rgb(42, 63, 95); fill-opacity: 1; white-space: pre; text-shadow: white 1px 1px 1px, white -1px -1px 1px, white 1px -1px 1px, white -1px 1px 1px;">Network</text></g><g class="sankey-node" transform="translate(520.000,102.821)" style="opacity: 1;"><rect class="node-rect" width="20" height="11.51750972762646" style="stroke-width: 0.5; stroke: rgb(0, 0, 0); stroke-opacity: 1; fill: rgb(0, 0, 255); fill-opacity: 1;"/><text class="node-label" data-notex="1" x="0" y="0" text-anchor="end" transform="translate(-3.25,9.95875486381323)" style="cursor: default; font-family: 'Open Sans', verdana, arial, sans-serif; font-size: 12px; fill: rgb(42, 63, 95); fill-opacity: 1; white-space: pre; text-shadow: white 1px 1px 1px, white -1px -1px 1px, white 1px -1px 1px, white -1px 1px 1px;">POI</text></g><g class="sankey-node" transform="translate(520.000,160.895)" style="opacity: 1;"><rect class="node-rect" width="20" height="13.677042801556354" style="stroke-width: 0.5; stroke: rgb(0, 0, 0); stroke-opacity: 1; fill: rgb(0, 0, 255); fill-opacity: 1;"/><text class="node-label" data-notex="1" x="0" y="0" text-anchor="end" transform="translate(-3.25,11.038521400778176)" style="cursor: default; font-family: 'Open Sans', verdana, arial, sans-serif; font-size: 12px; fill: rgb(42, 63, 95); fill-opacity: 1; white-space: pre; text-shadow: white 1px 1px 1px, white -1px -1px 1px, white 1px -1px 1px, white -1px 1px 1px;">Social/Demographic/Economic</text></g><g class="sankey-node" transform="translate(520.000,189.572)" style="opacity: 1;"><rect class="node-rect" width="20" height="10.077821011673166" style="stroke-width: 0.5; stroke: rgb(0, 0, 0); stroke-opacity: 1; fill: rgb(0, 0, 255); fill-opacity: 1;"/><text class="node-label" data-notex="1" x="0" y="0" text-anchor="end" transform="translate(-3.25,9.238910505836582)" style="cursor: default; font-family: 'Open Sans', verdana, arial, sans-serif; font-size: 12px; fill: rgb(42, 63, 95); fill-opacity: 1; white-space: pre; text-shadow: white 1px 1px 1px, white -1px -1px 1px, white 1px -1px 1px, white -1px 1px 1px;">Transit Feed</text></g><g class="sankey-node" transform="translate(520.000,314.961)" style="opacity: 1;"><rect class="node-rect" width="20" height="5.038910505836611" style="stroke-width: 0.5; stroke: rgb(0, 0, 0); stroke-opacity: 1; fill: rgb(0, 0, 255); fill-opacity: 1;"/><text class="node-label" data-notex="1" x="0" y="0" text-anchor="end" transform="translate(-3.25,6.719455252918305)" style="cursor: default; font-family: 'Open Sans', verdana, arial, sans-serif; font-size: 12px; fill: rgb(42, 63, 95); fill-opacity: 1; white-space: pre; text-shadow: white 1px 1px 1px, white -1px -1px 1px, white 1px -1px 1px, white -1px 1px 1px;">Travel data</text></g><g class="sankey-node" transform="translate(520.000,262.646)" style="opacity: 1;"><rect class="node-rect" width="20" height="14.396887159533094" style="stroke-width: 0.5; stroke: rgb(0, 0, 0); stroke-opacity: 1; fill: rgb(0, 0, 255); fill-opacity: 1;"/><text class="node-label" data-notex="1" x="0" y="0" text-anchor="end" transform="translate(-3.25,11.398443579766546)" style="cursor: default; font-family: 'Open Sans', verdana, arial, sans-serif; font-size: 12px; fill: rgb(42, 63, 95); fill-opacity: 1; white-space: pre; text-shadow: white 1px 1px 1px, white -1px -1px 1px, white 1px -1px 1px, white -1px 1px 1px;">Other</text></g></g></g><defs id="topdefs-4b34e3"><g class="clips"/></defs><g class="layer-above"><g class="imagelayer"/><g class="shapelayer"/></g><g class="infolayer"><g class="g-gtitle"><text class="gtitle" x="35" y="50" text-anchor="start" dy="0em" style="font-family: 'Open Sans', verdana, arial, sans-serif; font-size: 17px; fill: rgb(42, 63, 95); opacity: 1; font-weight: normal; white-space: pre;">Basic Sankey Diagram</text></g><g class="first-render"/></g></svg>