<svg class="main-svg" xmlns="http://www.w3.org/2000/svg" xmlns:xlink="http://www.w3.org/1999/xlink" width="700" height="500" style="" viewBox="0 0 700 500"><rect x="0" y="0" width="700" height="500" style="fill: rgb(255, 255, 255); fill-opacity: 1;"/><defs id="defs-d75cfd"><g class="clips"/><g class="gradients"/><g class="patterns"/></defs><g class="bglayer"/><g class="layer-below"><g class="imagelayer"/><g class="shapelayer"/></g><g class="cartesianlayer"/><g class="polarlayer"/><g class="smithlayer"/><g class="ternarylayer"/><g class="geolayer"/><g class="funnelarealayer"/><g class="pielayer"/><g class="iciclelayer"/><g class="treemaplayer"/><g class="sunburstlayer"/><g class="glimages"/><g class="sankey" transform="translate(80,100)matrix(1 0 0 1 0 0)" style="box-sizing: content-box; position: absolute; left: 0px; shape-rendering: geometricprecision; pointer-events: none;"><g class="sankey-links" style="fill: none;"><path class="sankey-link" d="M20,245.4863813229572C270,245.4863813229572 270,252.56809338521404 520,252.56809338521404L520,253.28793774319067C270,253.28793774319067 270,246.2062256809338 20,246.2062256809338Z" style="stroke: rgb(0, 0, 0); stroke-opacity: 0.2; fill: rgb(0, 0, 0); fill-opacity: 0.2; stroke-width: 1; opacity: 1;"/><path class="sankey-link" d="M20,61.78988326848267C270,61.78988326848267 270,170.73929961089496 520,170.73929961089496L520,171.4591439688716C270,171.4591439688716 270,62.50972762645932 20,62.50972762645932Z" style="stroke: rgb(0, 0, 0); stroke-opacity: 0.2; fill: rgb(0, 0, 0); fill-opacity: 0.2; stroke-width: 1; opacity: 1;"/><path class="sankey-link" d="M20,62.50972762645932C270,62.50972762645932 270,199.41634241245137 520,199.41634241245137L520,200.136186770428C270,200.136186770428 270,63.22957198443598 20,63.22957198443598Z" style="stroke: rgb(0, 0, 0); stroke-opacity: 0.2; fill: rgb(0, 0, 0); fill-opacity: 0.2; stroke-width: 1; opacity: 1;"/><path class="sankey-link" d="M20,81.82879377431925C270,81.82879377431925 270,200.13618677042803 520,200.13618677042803L520,200.85603112840465C270,200.85603112840465 270,82.5486381322959 20,82.5486381322959Z" style="stroke: rgb(0, 0, 0); stroke-opacity: 0.2; fill: rgb(0, 0, 0); fill-opacity: 0.2; stroke-width: 1; opacity: 1;"/><path class="sankey-link" d="M20,197.37354085603127C270,197.37354085603127 270,152.1400778210117 520,152.1400778210117L520,152.8599221789883C270,152.8599221789883 270,198.0933852140079 20,198.0933852140079Z" style="stroke: rgb(0, 0, 0); stroke-opacity: 0.2; fill: rgb(0, 0, 0); fill-opacity: 0.2; stroke-width: 1; opacity: 1;"/><path class="sankey-link" d="M20,169.41634241245146C270,169.41634241245146 270,309.20233463035015 520,309.20233463035015L520,309.9221789883268C270,309.9221789883268 270,170.13618677042808 20,170.13618677042808Z" style="stroke: rgb(0, 0, 0); stroke-opacity: 0.2; fill: rgb(0, 0, 0); fill-opacity: 0.2; stroke-width: 1; opacity: 1;"/><path class="sankey-link" d="M20,243.32684824902722C270,243.32684824902722 270,178.65758754863816 520,178.65758754863816L520,179.3774319066148C270,179.3774319066148 270,244.04669260700385 20,244.04669260700385Z" style="stroke: rgb(0, 0, 0); stroke-opacity: 0.2; fill: rgb(0, 0, 0); fill-opacity: 0.2; stroke-width: 1; opacity: 1;"/><path class="sankey-link" d="M20,167.97665369649815C270,167.97665369649815 270,246.08949416342415 520,246.08949416342415L520,246.80933852140078C270,246.80933852140078 270,168.69649805447477 20,168.69649805447477Z" style="stroke: rgb(0, 0, 0); stroke-opacity: 0.2; fill: rgb(0, 0, 0); fill-opacity: 0.2; stroke-width: 1; opacity: 1;"/><path class="sankey-link" d="M20,33.11284046692626C270,33.11284046692626 270,143.50194552529183 520,143.50194552529183L520,144.22178988326846C270,144.22178988326846 270,33.83268482490291 20,33.83268482490291Z" style="stroke: rgb(0, 0, 0); stroke-opacity: 0.2; fill: rgb(0, 0, 0); fill-opacity: 0.2; stroke-width: 1; opacity: 1;"/><path class="sankey-link" d="M20,33.83268482490291C270,33.83268482490291 270,170.0194552529183 520,170.0194552529183L520,170.73929961089493C270,170.73929961089493 270,34.55252918287957 20,34.55252918287957Z" style="stroke: rgb(0, 0, 0); stroke-opacity: 0.2; fill: rgb(0, 0, 0); fill-opacity: 0.2; stroke-width: 1; opacity: 1;"/><path class="sankey-link" d="M20,168.6964980544748C270,168.6964980544748 270,277.6459143968871 520,277.6459143968871L520,278.36575875486375C270,278.36575875486375 270,169.41634241245143 20,169.41634241245143Z" style="stroke: rgb(0, 0, 0); stroke-opacity: 0.2; fill: rgb(0, 0, 0); fill-opacity: 0.2; stroke-width: 1; opacity: 1;"/><path class="sankey-link" d="M20,242.60700389105057C270,242.60700389105057 270,152.85992217898834 520,152.85992217898834L520,153.57976653696497C270,153.57976653696497 270,243.3268482490272 20,243.3268482490272Z" style="stroke: rgb(0, 0, 0); stroke-opacity: 0.2; fill: rgb(0, 0, 0); fill-opacity: 0.2; stroke-width: 1; opacity: 1;"/><path class="sankey-link" d="M20,296.3618677042801C270,296.3618677042801 270,287.72373540856023 520,287.72373540856023L520,288.44357976653686C270,288.44357976653686 270,297.0817120622567 20,297.0817120622567Z" style="stroke: rgb(0, 0, 0); stroke-opacity: 0.2; fill: rgb(0, 0, 0); fill-opacity: 0.2; stroke-width: 1; opacity: 1;"/><path class="sankey-link" d="M20,297.0817120622567C270,297.0817120622567 270,317.12062256809327 520,317.12062256809327L520,317.8404669260699C270,317.8404669260699 270,297.80155642023334 20,297.80155642023334Z" style="stroke: rgb(0, 0, 0); stroke-opacity: 0.2; fill: rgb(0, 0, 0); fill-opacity: 0.2; stroke-width: 1; opacity: 1;"/><path class="sankey-link" d="M20,263.3657587548638C270,263.3657587548638 270,55.194552529183 520,55.194552529183L520,55.914396887159654C270,55.914396887159654 270,264.08560311284043 20,264.08560311284043Z" style="stroke: rgb(0, 0, 0); stroke-opacity: 0.2; fill: rgb(0, 0, 0); fill-opacity: 0.2; stroke-width: 1; opacity: 1;"/><path class="sankey-link" d="M20,266.24513618677037C270,266.24513618677037 270,153.579766536965 520,153.579766536965L520,154.29961089494162C270,154.29961089494162 270,266.964980544747 20,266.964980544747Z" style="stroke: rgb(0, 0, 0); stroke-opacity: 0.2; fill: rgb(0, 0, 0); fill-opacity: 0.2; stroke-width: 1; opacity: 1;"/><path class="sankey-link" d="M20,266.964980544747C270,266.964980544747 270,179.37743190661482 520,179.37743190661482L520,180.09727626459144C270,180.09727626459144 270,267.6848249027236 20,267.6848249027236Z" style="stroke: rgb(0, 0, 0); stroke-opacity: 0.2; fill: rgb(0, 0, 0); fill-opacity: 0.2; stroke-width: 1; opacity: 1;"/><path class="sankey-link" d="M20,291.3229571984436C270,291.3229571984436 270,154.29961089494165 520,154.29961089494165L520,155.01945525291828C270,155.01945525291828 270,292.0428015564202 20,292.0428015564202Z" style="stroke: rgb(0, 0, 0); stroke-opacity: 0.2; fill: rgb(0, 0, 0); fill-opacity: 0.2; stroke-width: 1; opacity: 1;"/><path class="sankey-link" d="M20,41.75097276264611C270,41.75097276264611 270,304.8832684824903 520,304.8832684824903L520,305.6031128404669C270,305.6031128404669 270,42.47081712062276 20,42.47081712062276Z" style="stroke: rgb(0, 0, 0); stroke-opacity: 0.2; fill: rgb(0, 0, 0); fill-opacity: 0.2; stroke-width: 1; opacity: 1;"/><path class="sankey-link" d="M20,292.0428015564202C270,292.0428015564202 270,180.09727626459147 520,180.09727626459147L520,180.8171206225681C270,180.8171206225681 270,292.76264591439684 20,292.76264591439684Z" style="stroke: rgb(0, 0, 0); stroke-opacity: 0.2; fill: rgb(0, 0, 0); fill-opacity: 0.2; stroke-width: 1; opacity: 1;"/><path class="sankey-link" d="M20,244.04669260700388C270,244.04669260700388 270,218.85214007782105 520,218.85214007782105L520,220.29182879377436C270,220.29182879377436 270,245.4863813229572 20,245.4863813229572Z" style="stroke: rgb(68, 68, 68); stroke-opacity: 1; fill: rgb(0, 0, 0); fill-opacity: 0.2; stroke-width: 0; opacity: 1;"/><path class="sankey-link" d="M20,316.40077821011675C270,316.40077821011675 270,288.44357976653686 520,288.44357976653686L520,289.8832684824901C270,289.8832684824901 270,317.84046692607 20,317.84046692607Z" style="stroke: rgb(68, 68, 68); stroke-opacity: 1; fill: rgb(0, 0, 0); fill-opacity: 0.2; stroke-width: 0; opacity: 1;"/><path class="sankey-link" d="M20,60.35019455252936C270,60.35019455252936 270,144.22178988326849 520,144.22178988326849L520,145.6614785992218C270,145.6614785992218 270,61.78988326848267 20,61.78988326848267Z" style="stroke: rgb(68, 68, 68); stroke-opacity: 1; fill: rgb(0, 0, 0); fill-opacity: 0.2; stroke-width: 0; opacity: 1;"/><path class="sankey-link" d="M20,57.47081712062274C270,57.47081712062274 270,45.11673151750985 520,45.11673151750985L520,46.55642023346316C270,46.55642023346316 270,58.91050583657605 20,58.91050583657605Z" style="stroke: rgb(68, 68, 68); stroke-opacity: 1; fill: rgb(0, 0, 0); fill-opacity: 0.2; stroke-width: 0; opacity: 1;"/><path class="sankey-link" d="M20,58.91050583657605C270,58.91050583657605 270,88.91050583657596 520,88.91050583657596L520,90.35019455252927C270,90.35019455252927 270,60.35019455252936 20,60.35019455252936Z" style="stroke: rgb(68, 68, 68); stroke-opacity: 1; fill: rgb(0, 0, 0); fill-opacity: 0.2; stroke-width: 0; opacity: 1;"/><path class="sankey-link" d="M20,82.5486381322959C270,82.5486381322959 270,272.60700389105057 520,272.60700389105057L520,274.0466926070038C270,274.0466926070038 270,83.98832684824922 20,83.98832684824922Z" style="stroke: rgb(68, 68, 68); stroke-opacity: 1; fill: rgb(0, 0, 0); fill-opacity: 0.2; stroke-width: 0; opacity: 1;"/><path class="sankey-link" d="M20,314.96108949416345C270,314.96108949416345 270,223.89105058365763 520,223.89105058365763L520,225.33073929961094C270,225.33073929961094 270,316.4007782101167 20,316.4007782101167Z" style="stroke: rgb(68, 68, 68); stroke-opacity: 1; fill: rgb(0, 0, 0); fill-opacity: 0.2; stroke-width: 0; opacity: 1;"/><path class="sankey-link" d="M20,292.76264591439684C270,292.76264591439684 270,222.45136186770432 520,222.45136186770432L520,223.89105058365763C270,223.89105058365763 270,294.2023346303501 20,294.2023346303501Z" style="stroke: rgb(68, 68, 68); stroke-opacity: 1; fill: rgb(0, 0, 0); fill-opacity: 0.2; stroke-width: 0; opacity: 1;"/><path class="sankey-link" d="M20,159.3385214007783C270,159.3385214007783 270,50.87548638132308 520,50.87548638132308L520,52.31517509727639C270,52.31517509727639 270,160.7782101167316 20,160.7782101167316Z" style="stroke: rgb(68, 68, 68); stroke-opacity: 1; fill: rgb(0, 0, 0); fill-opacity: 0.2; stroke-width: 0; opacity: 1;"/><path class="sankey-link" d="M20,289.8832684824903C270,289.8832684824903 270,124.90272373540866 520,124.90272373540866L520,126.34241245136197C270,126.34241245136197 270,291.32295719844353 20,291.32295719844353Z" style="stroke: rgb(68, 68, 68); stroke-opacity: 1; fill: rgb(0, 0, 0); fill-opacity: 0.2; stroke-width: 0; opacity: 1;"/><path class="sankey-link" d="M20,38.151750972762834C270,38.151750972762834 270,240.3307392996109 520,240.3307392996109L520,241.77042801556422C270,241.77042801556422 270,39.59143968871614 20,39.59143968871614Z" style="stroke: rgb(68, 68, 68); stroke-opacity: 1; fill: rgb(0, 0, 0); fill-opacity: 0.2; stroke-width: 0; opacity: 1;"/><path class="sankey-link" d="M20,78.22957198443598C270,78.22957198443598 270,46.55642023346316 520,46.55642023346316L520,47.99610894941647C270,47.99610894941647 270,79.66926070038929 20,79.66926070038929Z" style="stroke: rgb(68, 68, 68); stroke-opacity: 1; fill: rgb(0, 0, 0); fill-opacity: 0.2; stroke-width: 0; opacity: 1;"/><path class="sankey-link" d="M20,198.09338521400792C270,198.09338521400792 270,176.4980544747082 520,176.4980544747082L520,178.65758754863813C270,178.65758754863813 270,200.25291828793786 20,200.25291828793786Z" style="stroke: rgb(68, 68, 68); stroke-opacity: 1; fill: rgb(0, 0, 0); fill-opacity: 0.2; stroke-width: 0; opacity: 1;"/><path class="sankey-link" d="M20,317.84046692607006C270,317.84046692607006 270,317.8404669260699 520,317.8404669260699L520,319.9999999999999C270,319.9999999999999 270,320.00000000000006 20,320.00000000000006Z" style="stroke: rgb(68, 68, 68); stroke-opacity: 1; fill: rgb(0, 0, 0); fill-opacity: 0.2; stroke-width: 0; opacity: 1;"/><path class="sankey-link" d="M20,312.8015564202335C270,312.8015564202335 270,126.34241245136197 520,126.34241245136197L520,128.50194552529192C270,128.50194552529192 270,314.9610894941635 20,314.9610894941635Z" style="stroke: rgb(68, 68, 68); stroke-opacity: 1; fill: rgb(0, 0, 0); fill-opacity: 0.2; stroke-width: 0; opacity: 1;"/><path class="sankey-link" d="M20,294.20233463035015C270,294.20233463035015 270,253.2879377431907 520,253.2879377431907L520,255.44747081712063C270,255.44747081712063 270,296.36186770428014 20,296.36186770428014Z" style="stroke: rgb(68, 68, 68); stroke-opacity: 1; fill: rgb(0, 0, 0); fill-opacity: 0.2; stroke-width: 0; opacity: 1;"/><path class="sankey-link" d="M20,264.08560311284043C270,264.08560311284043 270,122.74319066147869 520,122.74319066147869L520,124.90272373540866C270,124.90272373540866 270,266.2451361867704 20,266.2451361867704Z" style="stroke: rgb(68, 68, 68); stroke-opacity: 1; fill: rgb(0, 0, 0); fill-opacity: 0.2; stroke-width: 0; opacity: 1;"/><path class="sankey-link" d="M20,79.66926070038929C270,79.66926070038929 270,90.35019455252927 520,90.35019455252927L520,92.50972762645924C270,92.50972762645924 270,81.82879377431925 20,81.82879377431925Z" style="stroke: rgb(68, 68, 68); stroke-opacity: 1; fill: rgb(0, 0, 0); fill-opacity: 0.2; stroke-width: 0; opacity: 1;"/><path class="sankey-link" d="M20,267.6848249027236C270,267.6848249027236 270,220.29182879377436 520,220.29182879377436L520,222.4513618677043C270,222.4513618677043 270,269.8443579766536 20,269.8443579766536Z" style="stroke: rgb(68, 68, 68); stroke-opacity: 1; fill: rgb(0, 0, 0); fill-opacity: 0.2; stroke-width: 0; opacity: 1;"/><path class="sankey-link" d="M20,163.65758754863822C270,163.65758754863822 270,149.98054474708172 520,149.98054474708172L520,152.14007782101166C270,152.14007782101166 270,165.81712062256815 20,165.81712062256815Z" style="stroke: rgb(68, 68, 68); stroke-opacity: 1; fill: rgb(0, 0, 0); fill-opacity: 0.2; stroke-width: 0; opacity: 1;"/><path class="sankey-link" d="M20,165.81712062256818C270,165.81712062256818 270,207.33463035019457 520,207.33463035019457L520,209.4941634241245C270,209.4941634241245 270,167.97665369649812 20,167.97665369649812Z" style="stroke: rgb(68, 68, 68); stroke-opacity: 1; fill: rgb(0, 0, 0); fill-opacity: 0.2; stroke-width: 0; opacity: 1;"/><path class="sankey-link" d="M20,246.20622568093384C270,246.20622568093384 270,314.96108949416333 520,314.96108949416333L520,317.1206225680933C270,317.1206225680933 270,248.36575875486378 20,248.36575875486378Z" style="stroke: rgb(68, 68, 68); stroke-opacity: 1; fill: rgb(0, 0, 0); fill-opacity: 0.2; stroke-width: 0; opacity: 1;"/><path class="sankey-link" d="M20,39.59143968871614C270,39.59143968871614 270,270.44747081712063 520,270.44747081712063L520,272.6070038910506C270,272.6070038910506 270,41.75097276264611 20,41.75097276264611Z" style="stroke: rgb(68, 68, 68); stroke-opacity: 1; fill: rgb(0, 0, 0); fill-opacity: 0.2; stroke-width: 0; opacity: 1;"/><path class="sankey-link" d="M20,239.72762645914395C270,239.72762645914395 270,119.86381322957207 520,119.86381322957207L520,122.74319066147869C270,122.74319066147869 270,242.60700389105057 20,242.60700389105057Z" style="stroke: rgb(68, 68, 68); stroke-opacity: 1; fill: rgb(0, 0, 0); fill-opacity: 0.2; stroke-width: 0; opacity: 1;"/><path class="sankey-link" d="M20,185.13618677042814C270,185.13618677042814 270,52.31517509727639 520,52.31517509727639L520,55.19455252918301C270,55.19455252918301 270,188.01556420233476 20,188.01556420233476Z" style="stroke: rgb(68, 68, 68); stroke-opacity: 1; fill: rgb(0, 0, 0); fill-opacity: 0.2; stroke-width: 0; opacity: 1;"/><path class="sankey-link" d="M20,98.98832684824919C270,98.98832684824919 270,47.99610894941647 520,47.99610894941647L520,50.875486381323086C270,50.875486381323086 270,101.8677042801558 20,101.8677042801558Z" style="stroke: rgb(68, 68, 68); stroke-opacity: 1; fill: rgb(0, 0, 0); fill-opacity: 0.2; stroke-width: 0; opacity: 1;"/><path class="sankey-link" d="M20,160.7782101167316C270,160.7782101167316 270,107.62645914396896 520,107.62645914396896L520,110.50583657587558C270,110.50583657587558 270,163.65758754863822 20,163.65758754863822Z" style="stroke: rgb(68, 68, 68); stroke-opacity: 1; fill: rgb(0, 0, 0); fill-opacity: 0.2; stroke-width: 0; opacity: 1;"/><path class="sankey-link" d="M20,34.55252918287957C270,34.55252918287957 270,195.8171206225681 520,195.8171206225681L520,199.41634241245134C270,199.41634241245134 270,38.15175097276284 20,38.15175097276284Z" style="stroke: rgb(68, 68, 68); stroke-opacity: 1; fill: rgb(0, 0, 0); fill-opacity: 0.2; stroke-width: 0; opacity: 1;"/><path class="sankey-link" d="M20,140.73929961089513C270,140.73929961089513 270,305.6031128404669 520,305.6031128404669L520,309.20233463035015C270,309.20233463035015 270,144.33852140077838 20,144.33852140077838Z" style="stroke: rgb(68, 68, 68); stroke-opacity: 1; fill: rgb(0, 0, 0); fill-opacity: 0.2; stroke-width: 0; opacity: 1;"/><path class="sankey-link" d="M20,137.14007782101186C270,137.14007782101186 270,274.0466926070039 520,274.0466926070039L520,277.6459143968871C270,277.6459143968871 270,140.7392996108951 20,140.7392996108951Z" style="stroke: rgb(68, 68, 68); stroke-opacity: 1; fill: rgb(0, 0, 0); fill-opacity: 0.2; stroke-width: 0; opacity: 1;"/><path class="sankey-link" d="M20,132.82101167315193C270,132.82101167315193 270,241.77042801556422 520,241.77042801556422L520,246.08949416342415C270,246.08949416342415 270,137.14007782101186 20,137.14007782101186Z" style="stroke: rgb(68, 68, 68); stroke-opacity: 1; fill: rgb(0, 0, 0); fill-opacity: 0.2; stroke-width: 0; opacity: 1;"/><path class="sankey-link" d="M20,116.98443579766553C270,116.98443579766553 270,145.6614785992218 520,145.6614785992218L520,149.98054474708172C270,149.98054474708172 270,121.30350194552545 20,121.30350194552545Z" style="stroke: rgb(68, 68, 68); stroke-opacity: 1; fill: rgb(0, 0, 0); fill-opacity: 0.2; stroke-width: 0; opacity: 1;"/><path class="sankey-link" d="M20,215.36964980544764C270,215.36964980544764 270,278.36575875486375 520,278.36575875486375L520,282.6848249027236C270,282.6848249027236 270,219.68871595330756 20,219.68871595330756Z" style="stroke: rgb(68, 68, 68); stroke-opacity: 1; fill: rgb(0, 0, 0); fill-opacity: 0.2; stroke-width: 0; opacity: 1;"/><path class="sankey-link" d="M20,269.84435797665355C270,269.84435797665355 270,282.6848249027237 520,282.6848249027237L520,287.7237354085603C270,287.7237354085603 270,274.88326848249017 20,274.88326848249017Z" style="stroke: rgb(68, 68, 68); stroke-opacity: 1; fill: rgb(0, 0, 0); fill-opacity: 0.2; stroke-width: 0; opacity: 1;"/><path class="sankey-link" d="M20,219.68871595330756C270,219.68871595330756 270,309.9221789883268 520,309.9221789883268L520,314.9610894941634C270,314.9610894941634 270,224.72762645914412 20,224.72762645914412Z" style="stroke: rgb(68, 68, 68); stroke-opacity: 1; fill: rgb(0, 0, 0); fill-opacity: 0.2; stroke-width: 0; opacity: 1;"/><path class="sankey-link" d="M20,121.30350194552545C270,121.30350194552545 270,171.45914396887162 520,171.45914396887162L520,176.49805447470817C270,176.49805447470817 270,126.34241245136204 20,126.34241245136204Z" style="stroke: rgb(68, 68, 68); stroke-opacity: 1; fill: rgb(0, 0, 0); fill-opacity: 0.2; stroke-width: 0; opacity: 1;"/><path class="sankey-link" d="M20,209.6108949416344C270,209.6108949416344 270,246.8093385214008 520,246.8093385214008L520,252.56809338521404C270,252.56809338521404 270,215.36964980544764 20,215.36964980544764Z" style="stroke: rgb(68, 68, 68); stroke-opacity: 1; fill: rgb(0, 0, 0); fill-opacity: 0.2; stroke-width: 0; opacity: 1;"/><path class="sankey-link" d="M20,126.34241245136202C270,126.34241245136202 270,200.85603112840468 520,200.85603112840468L520,207.33463035019454C270,207.33463035019454 270,132.8210116731519 20,132.8210116731519Z" style="stroke: rgb(68, 68, 68); stroke-opacity: 1; fill: rgb(0, 0, 0); fill-opacity: 0.2; stroke-width: 0; opacity: 1;"/><path class="sankey-link" d="M20,200.2529182879379C270,200.2529182879379 270,209.49416342412454 520,209.49416342412454L520,218.85214007782102C270,218.85214007782102 270,209.61089494163437 20,209.61089494163437Z" style="stroke: rgb(68, 68, 68); stroke-opacity: 1; fill: rgb(0, 0, 0); fill-opacity: 0.2; stroke-width: 0; opacity: 1;"/><path class="sankey-link" d="M20,188.01556420233476C270,188.01556420233476 270,110.50583657587558 520,110.50583657587558L520,119.86381322957209C270,119.86381322957209 270,197.37354085603124 20,197.37354085603124Z" style="stroke: rgb(68, 68, 68); stroke-opacity: 1; fill: rgb(0, 0, 0); fill-opacity: 0.2; stroke-width: 0; opacity: 1;"/><path class="sankey-link" d="M20,101.8677042801558C270,101.8677042801558 270,92.50972762645924 520,92.50972762645924L520,107.62645914396896C270,107.62645914396896 270,116.98443579766553 20,116.98443579766553Z" style="stroke: rgb(68, 68, 68); stroke-opacity: 1; fill: rgb(0, 0, 0); fill-opacity: 0.2; stroke-width: 0; opacity: 1;"/><path class="sankey-link" d="M20,1.9184653865522705e-13C270,1.9184653865522705e-13 270,30.000000000000124 520,30.000000000000124L520,45.11673151750985C270,45.11673151750985 270,15.116731517509919 20,15.116731517509919Z" style="stroke: rgb(68, 68, 68); stroke-opacity: 1; fill: rgb(0, 0, 0); fill-opacity: 0.2; stroke-width: 0; opacity: 1;"/><path class="sankey-link" d="M20,15.116731517509917C270,15.116731517509917 270,70.91439688715963 520,70.91439688715963L520,88.91050583657596C270,88.91050583657596 270,33.11284046692626 20,33.11284046692626Z" style="stroke: rgb(68, 68, 68); stroke-opacity: 1; fill: rgb(0, 0, 0); fill-opacity: 0.2; stroke-width: 0; opacity: 1;"/></g><g class="sankey-node-set" style="cursor: move;"><g class="sankey-node" transform="translate(0.000,263.366)" style="opacity: 1;"><rect class="node-rect" width="20" height="11.517509727626475" style="stroke-width: 0.5; stroke: rgb(0, 0, 0); stroke-opacity: 1; fill: rgb(0, 0, 255); fill-opacity: 1;"/><text class="node-label" data-notex="1" x="0" y="0" text-anchor="start" transform="translate(23.25,9.958754863813237)" style="cursor: default; font-family: 'Open Sans', verdana, arial, sans-serif; font-size: 12px; fill: rgb(42, 63, 95); fill-opacity: 1; white-space: pre; text-shadow: white 1px 1px 1px, white -1px -1px 1px, white 1px -1px 1px, white -1px 1px 1px;">Classification</text></g><g class="sankey-node" transform="translate(0.000,0.000)" style="opacity: 1;"><rect class="node-rect" width="20" height="42.47081712062255" style="stroke-width: 0.5; stroke: rgb(0, 0, 0); stroke-opacity: 1; fill: rgb(0, 0, 255); fill-opacity: 1;"/><text class="node-label" data-notex="1" x="0" y="0" text-anchor="start" transform="translate(23.25,25.435408560311274)" style="cursor: default; font-family: 'Open Sans', verdana, arial, sans-serif; font-size: 12px; fill: rgb(42, 63, 95); fill-opacity: 1; white-space: pre; text-shadow: white 1px 1px 1px, white -1px -1px 1px, white 1px -1px 1px, white -1px 1px 1px;">Clustering</text></g><g class="sankey-node" transform="translate(0.000,159.339)" style="opacity: 1;"><rect class="node-rect" width="20" height="10.797665369649849" style="stroke-width: 0.5; stroke: rgb(0, 0, 0); stroke-opacity: 1; fill: rgb(0, 0, 255); fill-opacity: 1;"/><text class="node-label" data-notex="1" x="0" y="0" text-anchor="start" transform="translate(23.25,9.598832684824924)" style="cursor: default; font-family: 'Open Sans', verdana, arial, sans-serif; font-size: 12px; fill: rgb(42, 63, 95); fill-opacity: 1; white-space: pre; text-shadow: white 1px 1px 1px, white -1px -1px 1px, white 1px -1px 1px, white -1px 1px 1px;">Deep learning</text></g><g class="sankey-node" transform="translate(0.000,78.230)" style="opacity: 1;"><rect class="node-rect" width="20" height="5.758754863813209" style="stroke-width: 0.5; stroke: rgb(0, 0, 0); stroke-opacity: 1; fill: rgb(0, 0, 255); fill-opacity: 1;"/><text class="node-label" data-notex="1" x="0" y="0" text-anchor="start" transform="translate(23.25,7.079377431906604)" style="cursor: default; font-family: 'Open Sans', verdana, arial, sans-serif; font-size: 12px; fill: rgb(42, 63, 95); fill-opacity: 1; white-space: pre; text-shadow: white 1px 1px 1px, white -1px -1px 1px, white 1px -1px 1px, white -1px 1px 1px;">Descriptive statistics</text></g><g class="sankey-node" transform="translate(0.000,57.471)" style="opacity: 1;"><rect class="node-rect" width="20" height="5.7587548638132375" style="stroke-width: 0.5; stroke: rgb(0, 0, 0); stroke-opacity: 1; fill: rgb(0, 0, 255); fill-opacity: 1;"/><text class="node-label" data-notex="1" x="0" y="0" text-anchor="start" transform="translate(23.25,7.079377431906618)" style="cursor: default; font-family: 'Open Sans', verdana, arial, sans-serif; font-size: 12px; fill: rgb(42, 63, 95); fill-opacity: 1; white-space: pre; text-shadow: white 1px 1px 1px, white -1px -1px 1px, white 1px -1px 1px, white -1px 1px 1px;">Language model</text></g><g class="sankey-node" transform="translate(0.000,239.728)" style="opacity: 1;"><rect class="node-rect" width="20" height="8.638132295719856" style="stroke-width: 0.5; stroke: rgb(0, 0, 0); stroke-opacity: 1; fill: rgb(0, 0, 255); fill-opacity: 1;"/><text class="node-label" data-notex="1" x="0" y="0" text-anchor="start" transform="translate(23.25,8.519066147859927)" style="cursor: default; font-family: 'Open Sans', verdana, arial, sans-serif; font-size: 12px; fill: rgb(42, 63, 95); fill-opacity: 1; white-space: pre; text-shadow: white 1px 1px 1px, white -1px -1px 1px, white 1px -1px 1px, white -1px 1px 1px;">Modelo propio</text></g><g class="sankey-node" transform="translate(0.000,312.802)" style="opacity: 1;"><rect class="node-rect" width="20" height="7.19844357976649" style="stroke-width: 0.5; stroke: rgb(0, 0, 0); stroke-opacity: 1; fill: rgb(0, 0, 255); fill-opacity: 1;"/><text class="node-label" data-notex="1" x="0" y="0" text-anchor="start" transform="translate(23.25,7.799221789883244)" style="cursor: default; font-family: 'Open Sans', verdana, arial, sans-serif; font-size: 12px; fill: rgb(42, 63, 95); fill-opacity: 1; white-space: pre; text-shadow: white 1px 1px 1px, white -1px -1px 1px, white 1px -1px 1px, white -1px 1px 1px;">OD matrix</text></g><g class="sankey-node" transform="translate(0.000,289.883)" style="opacity: 1;"><rect class="node-rect" width="20" height="7.91828793774323" style="stroke-width: 0.5; stroke: rgb(0, 0, 0); stroke-opacity: 1; fill: rgb(0, 0, 255); fill-opacity: 1;"/><text class="node-label" data-notex="1" x="0" y="0" text-anchor="start" transform="translate(23.25,8.159143968871614)" style="cursor: default; font-family: 'Open Sans', verdana, arial, sans-serif; font-size: 12px; fill: rgb(42, 63, 95); fill-opacity: 1; white-space: pre; text-shadow: white 1px 1px 1px, white -1px -1px 1px, white 1px -1px 1px, white -1px 1px 1px;">Probability model</text></g><g class="sankey-node" transform="translate(0.000,98.988)" style="opacity: 1;"><rect class="node-rect" width="20" height="45.3501945525291" style="stroke-width: 0.5; stroke: rgb(0, 0, 0); stroke-opacity: 1; fill: rgb(0, 0, 255); fill-opacity: 1;"/><text class="node-label" data-notex="1" x="0" y="0" text-anchor="start" transform="translate(23.25,26.87509727626455)" style="cursor: default; font-family: 'Open Sans', verdana, arial, sans-serif; font-size: 12px; fill: rgb(42, 63, 95); fill-opacity: 1; white-space: pre; text-shadow: white 1px 1px 1px, white -1px -1px 1px, white 1px -1px 1px, white -1px 1px 1px;">Regression</text></g><g class="sankey-node" transform="translate(0.000,185.136)" style="opacity: 1;"><rect class="node-rect" width="20" height="39.59143968871581" style="stroke-width: 0.5; stroke: rgb(0, 0, 0); stroke-opacity: 1; fill: rgb(0, 0, 255); fill-opacity: 1;"/><text class="node-label" data-notex="1" x="0" y="0" text-anchor="start" transform="translate(23.25,23.995719844357904)" style="cursor: default; font-family: 'Open Sans', verdana, arial, sans-serif; font-size: 12px; fill: rgb(42, 63, 95); fill-opacity: 1; white-space: pre; text-shadow: white 1px 1px 1px, white -1px -1px 1px, white 1px -1px 1px, white -1px 1px 1px;">Other</text></g><g class="sankey-node" transform="translate(520.000,70.914)" style="opacity: 1;"><rect class="node-rect" width="20" height="57.587548638132205" style="stroke-width: 0.5; stroke: rgb(0, 0, 0); stroke-opacity: 1; fill: rgb(0, 0, 255); fill-opacity: 1;"/><text class="node-label" data-notex="1" x="0" y="0" text-anchor="end" transform="translate(-3.25,32.993774319066105)" style="cursor: default; font-family: 'Open Sans', verdana, arial, sans-serif; font-size: 12px; fill: rgb(42, 63, 95); fill-opacity: 1; white-space: pre; text-shadow: white 1px 1px 1px, white -1px -1px 1px, white 1px -1px 1px, white -1px 1px 1px;">Analisis de patrones</text></g><g class="sankey-node" transform="translate(520.000,30.000)" style="opacity: 1;"><rect class="node-rect" width="20" height="25.914396887159505" style="stroke-width: 0.5; stroke: rgb(0, 0, 0); stroke-opacity: 1; fill: rgb(0, 0, 255); fill-opacity: 1;"/><text class="node-label" data-notex="1" x="0" y="0" text-anchor="end" transform="translate(-3.25,17.15719844357975)" style="cursor: default; font-family: 'Open Sans', verdana, arial, sans-serif; font-size: 12px; fill: rgb(42, 63, 95); fill-opacity: 1; white-space: pre; text-shadow: white 1px 1px 1px, white -1px -1px 1px, white 1px -1px 1px, white -1px 1px 1px;">Clasificación</text></g><g class="sankey-node" transform="translate(520.000,240.331)" style="opacity: 1;"><rect class="node-rect" width="20" height="15.11673151750972" style="stroke-width: 0.5; stroke: rgb(0, 0, 0); stroke-opacity: 1; fill: rgb(0, 0, 255); fill-opacity: 1;"/><text class="node-label" data-notex="1" x="0" y="0" text-anchor="end" transform="translate(-3.25,11.75836575875486)" style="cursor: default; font-family: 'Open Sans', verdana, arial, sans-serif; font-size: 12px; fill: rgb(42, 63, 95); fill-opacity: 1; white-space: pre; text-shadow: white 1px 1px 1px, white -1px -1px 1px, white 1px -1px 1px, white -1px 1px 1px;">Flujo de pasajeros</text></g><g class="sankey-node" transform="translate(520.000,270.447)" style="opacity: 1;"><rect class="node-rect" width="20" height="19.43579766536965" style="stroke-width: 0.5; stroke: rgb(0, 0, 0); stroke-opacity: 1; fill: rgb(0, 0, 255); fill-opacity: 1;"/><text class="node-label" data-notex="1" x="0" y="0" text-anchor="end" transform="translate(-3.25,13.917898832684823)" style="cursor: default; font-family: 'Open Sans', verdana, arial, sans-serif; font-size: 12px; fill: rgb(42, 63, 95); fill-opacity: 1; white-space: pre; text-shadow: white 1px 1px 1px, white -1px -1px 1px, white 1px -1px 1px, white -1px 1px 1px;">Indicadores rendimiento</text></g><g class="sankey-node" transform="translate(520.000,304.883)" style="opacity: 1;"><rect class="node-rect" width="20" height="15.11673151750972" style="stroke-width: 0.5; stroke: rgb(0, 0, 0); stroke-opacity: 1; fill: rgb(0, 0, 255); fill-opacity: 1;"/><text class="node-label" data-notex="1" x="0" y="0" text-anchor="end" transform="translate(-3.25,11.75836575875486)" style="cursor: default; font-family: 'Open Sans', verdana, arial, sans-serif; font-size: 12px; fill: rgb(42, 63, 95); fill-opacity: 1; white-space: pre; text-shadow: white 1px 1px 1px, white -1px -1px 1px, white 1px -1px 1px, white -1px 1px 1px;">OD matrix</text></g><g class="sankey-node" transform="translate(520.000,195.817)" style="opacity: 1;"><rect class="node-rect" width="20" height="29.513618677042814" style="stroke-width: 0.5; stroke: rgb(0, 0, 0); stroke-opacity: 1; fill: rgb(0, 0, 255); fill-opacity: 1;"/><text class="node-label" data-notex="1" x="0" y="0" text-anchor="end" transform="translate(-3.25,18.956809338521406)" style="cursor: default; font-family: 'Open Sans', verdana, arial, sans-serif; font-size: 12px; fill: rgb(42, 63, 95); fill-opacity: 1; white-space: pre; text-shadow: white 1px 1px 1px, white -1px -1px 1px, white 1px -1px 1px, white -1px 1px 1px;">Other</text></g><g class="sankey-node" transform="translate(520.000,170.019)" style="opacity: 1;"><rect class="node-rect" width="20" height="10.797665369649792" style="stroke-width: 0.5; stroke: rgb(0, 0, 0); stroke-opacity: 1; fill: rgb(0, 0, 255); fill-opacity: 1;"/><text class="node-label" data-notex="1" x="0" y="0" text-anchor="end" transform="translate(-3.25,9.598832684824895)" style="cursor: default; font-family: 'Open Sans', verdana, arial, sans-serif; font-size: 12px; fill: rgb(42, 63, 95); fill-opacity: 1; white-space: pre; text-shadow: white 1px 1px 1px, white -1px -1px 1px, white 1px -1px 1px, white -1px 1px 1px;">Path planning/finding</text></g><g class="sankey-node" transform="translate(520.000,143.502)" style="opacity: 1;"><rect class="node-rect" width="20" height="11.517509727626475" style="stroke-width: 0.5; stroke: rgb(0, 0, 0); stroke-opacity: 1; fill: rgb(0, 0, 255); fill-opacity: 1;"/><text class="node-label" data-notex="1" x="0" y="0" text-anchor="end" transform="translate(-3.25,9.958754863813237)" style="cursor: default; font-family: 'Open Sans', verdana, arial, sans-serif; font-size: 12px; fill: rgb(42, 63, 95); fill-opacity: 1; white-space: pre; text-shadow: white 1px 1px 1px, white -1px -1px 1px, white 1px -1px 1px, white -1px 1px 1px;">Prediccion demanda</text></g></g></g><defs id="topdefs-d75cfd"><g class="clips"/></defs><g class="layer-above"><g class="imagelayer"/><g class="shapelayer"/></g><g class="infolayer"><g class="g-gtitle"><text class="gtitle" x="35" y="50" text-anchor="start" dy="0em" style="font-family: 'Open Sans', verdana, arial, sans-serif; font-size: 17px; fill: rgb(42, 63, 95); opacity: 1; font-weight: normal; white-space: pre;">Basic Sankey Diagram</text></g><g class="first-render"/></g></svg>