<?xml version="1.0" encoding="utf-8" standalone="no"?>
<!DOCTYPE svg PUBLIC "-//W3C//DTD SVG 1.1//EN"
  "http://www.w3.org/Graphics/SVG/1.1/DTD/svg11.dtd">
<svg xmlns:xlink="http://www.w3.org/1999/xlink" width="720pt" height="576pt" viewBox="0 0 720 576" xmlns="http://www.w3.org/2000/svg" version="1.1">
 <metadata>
  <rdf:RDF xmlns:dc="http://purl.org/dc/elements/1.1/" xmlns:cc="http://creativecommons.org/ns#" xmlns:rdf="http://www.w3.org/1999/02/22-rdf-syntax-ns#">
   <cc:Work>
    <dc:type rdf:resource="http://purl.org/dc/dcmitype/StillImage"/>
    <dc:date>2023-07-31T12:31:24.635672</dc:date>
    <dc:format>image/svg+xml</dc:format>
    <dc:creator>
     <cc:Agent>
      <dc:title>Matplotlib v3.7.1, https://matplotlib.org/</dc:title>
     </cc:Agent>
    </dc:creator>
   </cc:Work>
  </rdf:RDF>
 </metadata>
 <defs>
  <style type="text/css">*{stroke-linejoin: round; stroke-linecap: butt}</style>
 </defs>
 <g id="figure_1">
  <g id="patch_1">
   <path d="M 0 576 
L 720 576 
L 720 0 
L 0 0 
z
" style="fill: #ffffff"/>
  </g>
  <g id="axes_1">
   <g id="patch_2">
    <path d="M 90 414.72 
L 648 414.72 
L 648 69.12 
L 90 69.12 
z
" style="fill: #ffffff"/>
   </g>
   <g id="patch_3">
    <path d="M 115.363636 414.72 
L 156.773655 414.72 
L 156.773655 85.577143 
L 115.363636 85.577143 
z
" clip-path="url(#p076070dd71)" style="fill: #1f77b4"/>
   </g>
   <g id="patch_4">
    <path d="M 167.12616 414.72 
L 208.536178 414.72 
L 208.536178 167.862857 
L 167.12616 167.862857 
z
" clip-path="url(#p076070dd71)" style="fill: #1f77b4"/>
   </g>
   <g id="patch_5">
    <path d="M 218.888683 414.72 
L 260.298701 414.72 
L 260.298701 233.691429 
L 218.888683 233.691429 
z
" clip-path="url(#p076070dd71)" style="fill: #1f77b4"/>
   </g>
   <g id="patch_6">
    <path d="M 270.651206 414.72 
L 312.061224 414.72 
L 312.061224 283.062857 
L 270.651206 283.062857 
z
" clip-path="url(#p076070dd71)" style="fill: #1f77b4"/>
   </g>
   <g id="patch_7">
    <path d="M 322.413729 414.72 
L 363.823748 414.72 
L 363.823748 315.977143 
L 322.413729 315.977143 
z
" clip-path="url(#p076070dd71)" style="fill: #1f77b4"/>
   </g>
   <g id="patch_8">
    <path d="M 374.176252 414.72 
L 415.586271 414.72 
L 415.586271 348.891429 
L 374.176252 348.891429 
z
" clip-path="url(#p076070dd71)" style="fill: #1f77b4"/>
   </g>
   <g id="patch_9">
    <path d="M 425.938776 414.72 
L 467.348794 414.72 
L 467.348794 348.891429 
L 425.938776 348.891429 
z
" clip-path="url(#p076070dd71)" style="fill: #1f77b4"/>
   </g>
   <g id="patch_10">
    <path d="M 477.701299 414.72 
L 519.111317 414.72 
L 519.111317 348.891429 
L 477.701299 348.891429 
z
" clip-path="url(#p076070dd71)" style="fill: #1f77b4"/>
   </g>
   <g id="patch_11">
    <path d="M 529.463822 414.72 
L 570.87384 414.72 
L 570.87384 348.891429 
L 529.463822 348.891429 
z
" clip-path="url(#p076070dd71)" style="fill: #1f77b4"/>
   </g>
   <g id="patch_12">
    <path d="M 581.226345 414.72 
L 622.636364 414.72 
L 622.636364 365.348571 
L 581.226345 365.348571 
z
" clip-path="url(#p076070dd71)" style="fill: #1f77b4"/>
   </g>
   <g id="matplotlib.axis_1">
    <g id="xtick_1">
     <g id="line2d_1">
      <defs>
       <path id="m3b747f303e" d="M 0 0 
L 0 3.5 
" style="stroke: #000000; stroke-width: 0.8"/>
      </defs>
      <g>
       <use xlink:href="#m3b747f303e" x="136.068646" y="414.72" style="stroke: #000000; stroke-width: 0.8"/>
      </g>
     </g>
     <g id="text_1">
      <!-- TRANSPORTATION RESEARCH PART C-EMERGING TECHNOLOGIES -->
      <g transform="translate(-94.311163 656.002154) rotate(-45) scale(0.1 -0.1)">
       <defs>
        <path id="DejaVuSans-54" d="M -19 4666 
L 3928 4666 
L 3928 4134 
L 2272 4134 
L 2272 0 
L 1638 0 
L 1638 4134 
L -19 4134 
L -19 4666 
z
" transform="scale(0.015625)"/>
        <path id="DejaVuSans-52" d="M 2841 2188 
Q 3044 2119 3236 1894 
Q 3428 1669 3622 1275 
L 4263 0 
L 3584 0 
L 2988 1197 
Q 2756 1666 2539 1819 
Q 2322 1972 1947 1972 
L 1259 1972 
L 1259 0 
L 628 0 
L 628 4666 
L 2053 4666 
Q 2853 4666 3247 4331 
Q 3641 3997 3641 3322 
Q 3641 2881 3436 2590 
Q 3231 2300 2841 2188 
z
M 1259 4147 
L 1259 2491 
L 2053 2491 
Q 2509 2491 2742 2702 
Q 2975 2913 2975 3322 
Q 2975 3731 2742 3939 
Q 2509 4147 2053 4147 
L 1259 4147 
z
" transform="scale(0.015625)"/>
        <path id="DejaVuSans-41" d="M 2188 4044 
L 1331 1722 
L 3047 1722 
L 2188 4044 
z
M 1831 4666 
L 2547 4666 
L 4325 0 
L 3669 0 
L 3244 1197 
L 1141 1197 
L 716 0 
L 50 0 
L 1831 4666 
z
" transform="scale(0.015625)"/>
        <path id="DejaVuSans-4e" d="M 628 4666 
L 1478 4666 
L 3547 763 
L 3547 4666 
L 4159 4666 
L 4159 0 
L 3309 0 
L 1241 3903 
L 1241 0 
L 628 0 
L 628 4666 
z
" transform="scale(0.015625)"/>
        <path id="DejaVuSans-53" d="M 3425 4513 
L 3425 3897 
Q 3066 4069 2747 4153 
Q 2428 4238 2131 4238 
Q 1616 4238 1336 4038 
Q 1056 3838 1056 3469 
Q 1056 3159 1242 3001 
Q 1428 2844 1947 2747 
L 2328 2669 
Q 3034 2534 3370 2195 
Q 3706 1856 3706 1288 
Q 3706 609 3251 259 
Q 2797 -91 1919 -91 
Q 1588 -91 1214 -16 
Q 841 59 441 206 
L 441 856 
Q 825 641 1194 531 
Q 1563 422 1919 422 
Q 2459 422 2753 634 
Q 3047 847 3047 1241 
Q 3047 1584 2836 1778 
Q 2625 1972 2144 2069 
L 1759 2144 
Q 1053 2284 737 2584 
Q 422 2884 422 3419 
Q 422 4038 858 4394 
Q 1294 4750 2059 4750 
Q 2388 4750 2728 4690 
Q 3069 4631 3425 4513 
z
" transform="scale(0.015625)"/>
        <path id="DejaVuSans-50" d="M 1259 4147 
L 1259 2394 
L 2053 2394 
Q 2494 2394 2734 2622 
Q 2975 2850 2975 3272 
Q 2975 3691 2734 3919 
Q 2494 4147 2053 4147 
L 1259 4147 
z
M 628 4666 
L 2053 4666 
Q 2838 4666 3239 4311 
Q 3641 3956 3641 3272 
Q 3641 2581 3239 2228 
Q 2838 1875 2053 1875 
L 1259 1875 
L 1259 0 
L 628 0 
L 628 4666 
z
" transform="scale(0.015625)"/>
        <path id="DejaVuSans-4f" d="M 2522 4238 
Q 1834 4238 1429 3725 
Q 1025 3213 1025 2328 
Q 1025 1447 1429 934 
Q 1834 422 2522 422 
Q 3209 422 3611 934 
Q 4013 1447 4013 2328 
Q 4013 3213 3611 3725 
Q 3209 4238 2522 4238 
z
M 2522 4750 
Q 3503 4750 4090 4092 
Q 4678 3434 4678 2328 
Q 4678 1225 4090 567 
Q 3503 -91 2522 -91 
Q 1538 -91 948 565 
Q 359 1222 359 2328 
Q 359 3434 948 4092 
Q 1538 4750 2522 4750 
z
" transform="scale(0.015625)"/>
        <path id="DejaVuSans-49" d="M 628 4666 
L 1259 4666 
L 1259 0 
L 628 0 
L 628 4666 
z
" transform="scale(0.015625)"/>
        <path id="DejaVuSans-20" transform="scale(0.015625)"/>
        <path id="DejaVuSans-45" d="M 628 4666 
L 3578 4666 
L 3578 4134 
L 1259 4134 
L 1259 2753 
L 3481 2753 
L 3481 2222 
L 1259 2222 
L 1259 531 
L 3634 531 
L 3634 0 
L 628 0 
L 628 4666 
z
" transform="scale(0.015625)"/>
        <path id="DejaVuSans-43" d="M 4122 4306 
L 4122 3641 
Q 3803 3938 3442 4084 
Q 3081 4231 2675 4231 
Q 1875 4231 1450 3742 
Q 1025 3253 1025 2328 
Q 1025 1406 1450 917 
Q 1875 428 2675 428 
Q 3081 428 3442 575 
Q 3803 722 4122 1019 
L 4122 359 
Q 3791 134 3420 21 
Q 3050 -91 2638 -91 
Q 1578 -91 968 557 
Q 359 1206 359 2328 
Q 359 3453 968 4101 
Q 1578 4750 2638 4750 
Q 3056 4750 3426 4639 
Q 3797 4528 4122 4306 
z
" transform="scale(0.015625)"/>
        <path id="DejaVuSans-48" d="M 628 4666 
L 1259 4666 
L 1259 2753 
L 3553 2753 
L 3553 4666 
L 4184 4666 
L 4184 0 
L 3553 0 
L 3553 2222 
L 1259 2222 
L 1259 0 
L 628 0 
L 628 4666 
z
" transform="scale(0.015625)"/>
        <path id="DejaVuSans-2d" d="M 313 2009 
L 1997 2009 
L 1997 1497 
L 313 1497 
L 313 2009 
z
" transform="scale(0.015625)"/>
        <path id="DejaVuSans-4d" d="M 628 4666 
L 1569 4666 
L 2759 1491 
L 3956 4666 
L 4897 4666 
L 4897 0 
L 4281 0 
L 4281 4097 
L 3078 897 
L 2444 897 
L 1241 4097 
L 1241 0 
L 628 0 
L 628 4666 
z
" transform="scale(0.015625)"/>
        <path id="DejaVuSans-47" d="M 3809 666 
L 3809 1919 
L 2778 1919 
L 2778 2438 
L 4434 2438 
L 4434 434 
Q 4069 175 3628 42 
Q 3188 -91 2688 -91 
Q 1594 -91 976 548 
Q 359 1188 359 2328 
Q 359 3472 976 4111 
Q 1594 4750 2688 4750 
Q 3144 4750 3555 4637 
Q 3966 4525 4313 4306 
L 4313 3634 
Q 3963 3931 3569 4081 
Q 3175 4231 2741 4231 
Q 1884 4231 1454 3753 
Q 1025 3275 1025 2328 
Q 1025 1384 1454 906 
Q 1884 428 2741 428 
Q 3075 428 3337 486 
Q 3600 544 3809 666 
z
" transform="scale(0.015625)"/>
        <path id="DejaVuSans-4c" d="M 628 4666 
L 1259 4666 
L 1259 531 
L 3531 531 
L 3531 0 
L 628 0 
L 628 4666 
z
" transform="scale(0.015625)"/>
       </defs>
       <use xlink:href="#DejaVuSans-54"/>
       <use xlink:href="#DejaVuSans-52" x="61.083984"/>
       <use xlink:href="#DejaVuSans-41" x="126.566406"/>
       <use xlink:href="#DejaVuSans-4e" x="194.974609"/>
       <use xlink:href="#DejaVuSans-53" x="269.779297"/>
       <use xlink:href="#DejaVuSans-50" x="333.255859"/>
       <use xlink:href="#DejaVuSans-4f" x="393.558594"/>
       <use xlink:href="#DejaVuSans-52" x="472.269531"/>
       <use xlink:href="#DejaVuSans-54" x="534.501953"/>
       <use xlink:href="#DejaVuSans-41" x="587.835938"/>
       <use xlink:href="#DejaVuSans-54" x="648.494141"/>
       <use xlink:href="#DejaVuSans-49" x="709.578125"/>
       <use xlink:href="#DejaVuSans-4f" x="739.070312"/>
       <use xlink:href="#DejaVuSans-4e" x="817.78125"/>
       <use xlink:href="#DejaVuSans-20" x="892.585938"/>
       <use xlink:href="#DejaVuSans-52" x="924.373047"/>
       <use xlink:href="#DejaVuSans-45" x="993.855469"/>
       <use xlink:href="#DejaVuSans-53" x="1057.039062"/>
       <use xlink:href="#DejaVuSans-45" x="1120.515625"/>
       <use xlink:href="#DejaVuSans-41" x="1183.699219"/>
       <use xlink:href="#DejaVuSans-52" x="1252.107422"/>
       <use xlink:href="#DejaVuSans-43" x="1316.589844"/>
       <use xlink:href="#DejaVuSans-48" x="1386.414062"/>
       <use xlink:href="#DejaVuSans-20" x="1461.609375"/>
       <use xlink:href="#DejaVuSans-50" x="1493.396484"/>
       <use xlink:href="#DejaVuSans-41" x="1547.324219"/>
       <use xlink:href="#DejaVuSans-52" x="1615.732422"/>
       <use xlink:href="#DejaVuSans-54" x="1677.964844"/>
       <use xlink:href="#DejaVuSans-20" x="1739.048828"/>
       <use xlink:href="#DejaVuSans-43" x="1770.835938"/>
       <use xlink:href="#DejaVuSans-2d" x="1840.660156"/>
       <use xlink:href="#DejaVuSans-45" x="1876.744141"/>
       <use xlink:href="#DejaVuSans-4d" x="1939.927734"/>
       <use xlink:href="#DejaVuSans-45" x="2026.207031"/>
       <use xlink:href="#DejaVuSans-52" x="2089.390625"/>
       <use xlink:href="#DejaVuSans-47" x="2158.873047"/>
       <use xlink:href="#DejaVuSans-49" x="2236.363281"/>
       <use xlink:href="#DejaVuSans-4e" x="2265.855469"/>
       <use xlink:href="#DejaVuSans-47" x="2340.660156"/>
       <use xlink:href="#DejaVuSans-20" x="2418.150391"/>
       <use xlink:href="#DejaVuSans-54" x="2449.9375"/>
       <use xlink:href="#DejaVuSans-45" x="2511.021484"/>
       <use xlink:href="#DejaVuSans-43" x="2574.205078"/>
       <use xlink:href="#DejaVuSans-48" x="2644.029297"/>
       <use xlink:href="#DejaVuSans-4e" x="2719.224609"/>
       <use xlink:href="#DejaVuSans-4f" x="2794.029297"/>
       <use xlink:href="#DejaVuSans-4c" x="2872.740234"/>
       <use xlink:href="#DejaVuSans-4f" x="2924.828125"/>
       <use xlink:href="#DejaVuSans-47" x="3003.539062"/>
       <use xlink:href="#DejaVuSans-49" x="3081.029297"/>
       <use xlink:href="#DejaVuSans-45" x="3110.521484"/>
       <use xlink:href="#DejaVuSans-53" x="3173.705078"/>
      </g>
     </g>
    </g>
    <g id="xtick_2">
     <g id="line2d_2">
      <g>
       <use xlink:href="#m3b747f303e" x="187.831169" y="414.72" style="stroke: #000000; stroke-width: 0.8"/>
      </g>
     </g>
     <g id="text_2">
      <!-- JOURNAL OF TRANSPORT GEOGRAPHY -->
      <g transform="translate(51.70317 561.750345) rotate(-45) scale(0.1 -0.1)">
       <defs>
        <path id="DejaVuSans-4a" d="M 628 4666 
L 1259 4666 
L 1259 325 
Q 1259 -519 939 -900 
Q 619 -1281 -91 -1281 
L -331 -1281 
L -331 -750 
L -134 -750 
Q 284 -750 456 -515 
Q 628 -281 628 325 
L 628 4666 
z
" transform="scale(0.015625)"/>
        <path id="DejaVuSans-55" d="M 556 4666 
L 1191 4666 
L 1191 1831 
Q 1191 1081 1462 751 
Q 1734 422 2344 422 
Q 2950 422 3222 751 
Q 3494 1081 3494 1831 
L 3494 4666 
L 4128 4666 
L 4128 1753 
Q 4128 841 3676 375 
Q 3225 -91 2344 -91 
Q 1459 -91 1007 375 
Q 556 841 556 1753 
L 556 4666 
z
" transform="scale(0.015625)"/>
        <path id="DejaVuSans-46" d="M 628 4666 
L 3309 4666 
L 3309 4134 
L 1259 4134 
L 1259 2759 
L 3109 2759 
L 3109 2228 
L 1259 2228 
L 1259 0 
L 628 0 
L 628 4666 
z
" transform="scale(0.015625)"/>
        <path id="DejaVuSans-59" d="M -13 4666 
L 666 4666 
L 1959 2747 
L 3244 4666 
L 3922 4666 
L 2272 2222 
L 2272 0 
L 1638 0 
L 1638 2222 
L -13 4666 
z
" transform="scale(0.015625)"/>
       </defs>
       <use xlink:href="#DejaVuSans-4a"/>
       <use xlink:href="#DejaVuSans-4f" x="29.492188"/>
       <use xlink:href="#DejaVuSans-55" x="108.203125"/>
       <use xlink:href="#DejaVuSans-52" x="181.396484"/>
       <use xlink:href="#DejaVuSans-4e" x="250.878906"/>
       <use xlink:href="#DejaVuSans-41" x="325.683594"/>
       <use xlink:href="#DejaVuSans-4c" x="394.091797"/>
       <use xlink:href="#DejaVuSans-20" x="449.804688"/>
       <use xlink:href="#DejaVuSans-4f" x="481.591797"/>
       <use xlink:href="#DejaVuSans-46" x="560.302734"/>
       <use xlink:href="#DejaVuSans-20" x="617.822266"/>
       <use xlink:href="#DejaVuSans-54" x="649.609375"/>
       <use xlink:href="#DejaVuSans-52" x="710.693359"/>
       <use xlink:href="#DejaVuSans-41" x="776.175781"/>
       <use xlink:href="#DejaVuSans-4e" x="844.583984"/>
       <use xlink:href="#DejaVuSans-53" x="919.388672"/>
       <use xlink:href="#DejaVuSans-50" x="982.865234"/>
       <use xlink:href="#DejaVuSans-4f" x="1043.167969"/>
       <use xlink:href="#DejaVuSans-52" x="1121.878906"/>
       <use xlink:href="#DejaVuSans-54" x="1184.111328"/>
       <use xlink:href="#DejaVuSans-20" x="1245.195312"/>
       <use xlink:href="#DejaVuSans-47" x="1276.982422"/>
       <use xlink:href="#DejaVuSans-45" x="1354.472656"/>
       <use xlink:href="#DejaVuSans-4f" x="1417.65625"/>
       <use xlink:href="#DejaVuSans-47" x="1496.367188"/>
       <use xlink:href="#DejaVuSans-52" x="1573.857422"/>
       <use xlink:href="#DejaVuSans-41" x="1639.339844"/>
       <use xlink:href="#DejaVuSans-50" x="1707.748047"/>
       <use xlink:href="#DejaVuSans-48" x="1768.050781"/>
       <use xlink:href="#DejaVuSans-59" x="1843.246094"/>
      </g>
     </g>
    </g>
    <g id="xtick_3">
     <g id="line2d_3">
      <g>
       <use xlink:href="#m3b747f303e" x="239.593692" y="414.72" style="stroke: #000000; stroke-width: 0.8"/>
      </g>
     </g>
     <g id="text_3">
      <!-- IEEE TRANSACTIONS ON INTELLIGENT TRANSPORTATION SYSTEMS -->
      <g transform="translate(3.965825 661.250212) rotate(-45) scale(0.1 -0.1)">
       <use xlink:href="#DejaVuSans-49"/>
       <use xlink:href="#DejaVuSans-45" x="29.492188"/>
       <use xlink:href="#DejaVuSans-45" x="92.675781"/>
       <use xlink:href="#DejaVuSans-45" x="155.859375"/>
       <use xlink:href="#DejaVuSans-20" x="219.042969"/>
       <use xlink:href="#DejaVuSans-54" x="250.830078"/>
       <use xlink:href="#DejaVuSans-52" x="311.914062"/>
       <use xlink:href="#DejaVuSans-41" x="377.396484"/>
       <use xlink:href="#DejaVuSans-4e" x="445.804688"/>
       <use xlink:href="#DejaVuSans-53" x="520.609375"/>
       <use xlink:href="#DejaVuSans-41" x="585.960938"/>
       <use xlink:href="#DejaVuSans-43" x="652.619141"/>
       <use xlink:href="#DejaVuSans-54" x="722.443359"/>
       <use xlink:href="#DejaVuSans-49" x="783.527344"/>
       <use xlink:href="#DejaVuSans-4f" x="813.019531"/>
       <use xlink:href="#DejaVuSans-4e" x="891.730469"/>
       <use xlink:href="#DejaVuSans-53" x="966.535156"/>
       <use xlink:href="#DejaVuSans-20" x="1030.011719"/>
       <use xlink:href="#DejaVuSans-4f" x="1061.798828"/>
       <use xlink:href="#DejaVuSans-4e" x="1140.509766"/>
       <use xlink:href="#DejaVuSans-20" x="1215.314453"/>
       <use xlink:href="#DejaVuSans-49" x="1247.101562"/>
       <use xlink:href="#DejaVuSans-4e" x="1276.59375"/>
       <use xlink:href="#DejaVuSans-54" x="1351.398438"/>
       <use xlink:href="#DejaVuSans-45" x="1412.482422"/>
       <use xlink:href="#DejaVuSans-4c" x="1475.666016"/>
       <use xlink:href="#DejaVuSans-4c" x="1531.378906"/>
       <use xlink:href="#DejaVuSans-49" x="1587.091797"/>
       <use xlink:href="#DejaVuSans-47" x="1616.583984"/>
       <use xlink:href="#DejaVuSans-45" x="1694.074219"/>
       <use xlink:href="#DejaVuSans-4e" x="1757.257812"/>
       <use xlink:href="#DejaVuSans-54" x="1832.0625"/>
       <use xlink:href="#DejaVuSans-20" x="1893.146484"/>
       <use xlink:href="#DejaVuSans-54" x="1924.933594"/>
       <use xlink:href="#DejaVuSans-52" x="1986.017578"/>
       <use xlink:href="#DejaVuSans-41" x="2051.5"/>
       <use xlink:href="#DejaVuSans-4e" x="2119.908203"/>
       <use xlink:href="#DejaVuSans-53" x="2194.712891"/>
       <use xlink:href="#DejaVuSans-50" x="2258.189453"/>
       <use xlink:href="#DejaVuSans-4f" x="2318.492188"/>
       <use xlink:href="#DejaVuSans-52" x="2397.203125"/>
       <use xlink:href="#DejaVuSans-54" x="2459.435547"/>
       <use xlink:href="#DejaVuSans-41" x="2512.769531"/>
       <use xlink:href="#DejaVuSans-54" x="2573.427734"/>
       <use xlink:href="#DejaVuSans-49" x="2634.511719"/>
       <use xlink:href="#DejaVuSans-4f" x="2664.003906"/>
       <use xlink:href="#DejaVuSans-4e" x="2742.714844"/>
       <use xlink:href="#DejaVuSans-20" x="2817.519531"/>
       <use xlink:href="#DejaVuSans-53" x="2849.306641"/>
       <use xlink:href="#DejaVuSans-59" x="2912.783203"/>
       <use xlink:href="#DejaVuSans-53" x="2973.867188"/>
       <use xlink:href="#DejaVuSans-54" x="3037.34375"/>
       <use xlink:href="#DejaVuSans-45" x="3098.427734"/>
       <use xlink:href="#DejaVuSans-4d" x="3161.611328"/>
       <use xlink:href="#DejaVuSans-53" x="3247.890625"/>
      </g>
     </g>
    </g>
    <g id="xtick_4">
     <g id="line2d_4">
      <g>
       <use xlink:href="#m3b747f303e" x="291.356215" y="414.72" style="stroke: #000000; stroke-width: 0.8"/>
      </g>
     </g>
     <g id="text_4">
      <!-- TRANSPORTATION RESEARCH RECORD -->
      <g transform="translate(154.040498 562.938063) rotate(-45) scale(0.1 -0.1)">
       <defs>
        <path id="DejaVuSans-44" d="M 1259 4147 
L 1259 519 
L 2022 519 
Q 2988 519 3436 956 
Q 3884 1394 3884 2338 
Q 3884 3275 3436 3711 
Q 2988 4147 2022 4147 
L 1259 4147 
z
M 628 4666 
L 1925 4666 
Q 3281 4666 3915 4102 
Q 4550 3538 4550 2338 
Q 4550 1131 3912 565 
Q 3275 0 1925 0 
L 628 0 
L 628 4666 
z
" transform="scale(0.015625)"/>
       </defs>
       <use xlink:href="#DejaVuSans-54"/>
       <use xlink:href="#DejaVuSans-52" x="61.083984"/>
       <use xlink:href="#DejaVuSans-41" x="126.566406"/>
       <use xlink:href="#DejaVuSans-4e" x="194.974609"/>
       <use xlink:href="#DejaVuSans-53" x="269.779297"/>
       <use xlink:href="#DejaVuSans-50" x="333.255859"/>
       <use xlink:href="#DejaVuSans-4f" x="393.558594"/>
       <use xlink:href="#DejaVuSans-52" x="472.269531"/>
       <use xlink:href="#DejaVuSans-54" x="534.501953"/>
       <use xlink:href="#DejaVuSans-41" x="587.835938"/>
       <use xlink:href="#DejaVuSans-54" x="648.494141"/>
       <use xlink:href="#DejaVuSans-49" x="709.578125"/>
       <use xlink:href="#DejaVuSans-4f" x="739.070312"/>
       <use xlink:href="#DejaVuSans-4e" x="817.78125"/>
       <use xlink:href="#DejaVuSans-20" x="892.585938"/>
       <use xlink:href="#DejaVuSans-52" x="924.373047"/>
       <use xlink:href="#DejaVuSans-45" x="993.855469"/>
       <use xlink:href="#DejaVuSans-53" x="1057.039062"/>
       <use xlink:href="#DejaVuSans-45" x="1120.515625"/>
       <use xlink:href="#DejaVuSans-41" x="1183.699219"/>
       <use xlink:href="#DejaVuSans-52" x="1252.107422"/>
       <use xlink:href="#DejaVuSans-43" x="1316.589844"/>
       <use xlink:href="#DejaVuSans-48" x="1386.414062"/>
       <use xlink:href="#DejaVuSans-20" x="1461.609375"/>
       <use xlink:href="#DejaVuSans-52" x="1493.396484"/>
       <use xlink:href="#DejaVuSans-45" x="1562.878906"/>
       <use xlink:href="#DejaVuSans-43" x="1626.0625"/>
       <use xlink:href="#DejaVuSans-4f" x="1695.886719"/>
       <use xlink:href="#DejaVuSans-52" x="1774.597656"/>
       <use xlink:href="#DejaVuSans-44" x="1844.080078"/>
      </g>
     </g>
    </g>
    <g id="xtick_5">
     <g id="line2d_5">
      <g>
       <use xlink:href="#m3b747f303e" x="343.118738" y="414.72" style="stroke: #000000; stroke-width: 0.8"/>
      </g>
     </g>
     <g id="text_5">
      <!-- TRANSPORTATION RESEARCH PART A-POLICY AND PRACTICE -->
      <g transform="translate(129.790147 638.950937) rotate(-45) scale(0.1 -0.1)">
       <use xlink:href="#DejaVuSans-54"/>
       <use xlink:href="#DejaVuSans-52" x="61.083984"/>
       <use xlink:href="#DejaVuSans-41" x="126.566406"/>
       <use xlink:href="#DejaVuSans-4e" x="194.974609"/>
       <use xlink:href="#DejaVuSans-53" x="269.779297"/>
       <use xlink:href="#DejaVuSans-50" x="333.255859"/>
       <use xlink:href="#DejaVuSans-4f" x="393.558594"/>
       <use xlink:href="#DejaVuSans-52" x="472.269531"/>
       <use xlink:href="#DejaVuSans-54" x="534.501953"/>
       <use xlink:href="#DejaVuSans-41" x="587.835938"/>
       <use xlink:href="#DejaVuSans-54" x="648.494141"/>
       <use xlink:href="#DejaVuSans-49" x="709.578125"/>
       <use xlink:href="#DejaVuSans-4f" x="739.070312"/>
       <use xlink:href="#DejaVuSans-4e" x="817.78125"/>
       <use xlink:href="#DejaVuSans-20" x="892.585938"/>
       <use xlink:href="#DejaVuSans-52" x="924.373047"/>
       <use xlink:href="#DejaVuSans-45" x="993.855469"/>
       <use xlink:href="#DejaVuSans-53" x="1057.039062"/>
       <use xlink:href="#DejaVuSans-45" x="1120.515625"/>
       <use xlink:href="#DejaVuSans-41" x="1183.699219"/>
       <use xlink:href="#DejaVuSans-52" x="1252.107422"/>
       <use xlink:href="#DejaVuSans-43" x="1316.589844"/>
       <use xlink:href="#DejaVuSans-48" x="1386.414062"/>
       <use xlink:href="#DejaVuSans-20" x="1461.609375"/>
       <use xlink:href="#DejaVuSans-50" x="1493.396484"/>
       <use xlink:href="#DejaVuSans-41" x="1547.324219"/>
       <use xlink:href="#DejaVuSans-52" x="1615.732422"/>
       <use xlink:href="#DejaVuSans-54" x="1677.964844"/>
       <use xlink:href="#DejaVuSans-20" x="1739.048828"/>
       <use xlink:href="#DejaVuSans-41" x="1770.835938"/>
       <use xlink:href="#DejaVuSans-2d" x="1836.994141"/>
       <use xlink:href="#DejaVuSans-50" x="1873.078125"/>
       <use xlink:href="#DejaVuSans-4f" x="1933.380859"/>
       <use xlink:href="#DejaVuSans-4c" x="2012.091797"/>
       <use xlink:href="#DejaVuSans-49" x="2067.804688"/>
       <use xlink:href="#DejaVuSans-43" x="2097.296875"/>
       <use xlink:href="#DejaVuSans-59" x="2165.371094"/>
       <use xlink:href="#DejaVuSans-20" x="2226.455078"/>
       <use xlink:href="#DejaVuSans-41" x="2258.242188"/>
       <use xlink:href="#DejaVuSans-4e" x="2326.650391"/>
       <use xlink:href="#DejaVuSans-44" x="2401.455078"/>
       <use xlink:href="#DejaVuSans-20" x="2478.457031"/>
       <use xlink:href="#DejaVuSans-50" x="2510.244141"/>
       <use xlink:href="#DejaVuSans-52" x="2570.546875"/>
       <use xlink:href="#DejaVuSans-41" x="2636.029297"/>
       <use xlink:href="#DejaVuSans-43" x="2702.6875"/>
       <use xlink:href="#DejaVuSans-54" x="2772.511719"/>
       <use xlink:href="#DejaVuSans-49" x="2833.595703"/>
       <use xlink:href="#DejaVuSans-43" x="2863.087891"/>
       <use xlink:href="#DejaVuSans-45" x="2932.912109"/>
      </g>
     </g>
    </g>
    <g id="xtick_6">
     <g id="line2d_6">
      <g>
       <use xlink:href="#m3b747f303e" x="394.881262" y="414.72" style="stroke: #000000; stroke-width: 0.8"/>
      </g>
     </g>
     <g id="text_6">
      <!-- TRANSPORTATION -->
      <g transform="translate(330.293686 490.209921) rotate(-45) scale(0.1 -0.1)">
       <use xlink:href="#DejaVuSans-54"/>
       <use xlink:href="#DejaVuSans-52" x="61.083984"/>
       <use xlink:href="#DejaVuSans-41" x="126.566406"/>
       <use xlink:href="#DejaVuSans-4e" x="194.974609"/>
       <use xlink:href="#DejaVuSans-53" x="269.779297"/>
       <use xlink:href="#DejaVuSans-50" x="333.255859"/>
       <use xlink:href="#DejaVuSans-4f" x="393.558594"/>
       <use xlink:href="#DejaVuSans-52" x="472.269531"/>
       <use xlink:href="#DejaVuSans-54" x="534.501953"/>
       <use xlink:href="#DejaVuSans-41" x="587.835938"/>
       <use xlink:href="#DejaVuSans-54" x="648.494141"/>
       <use xlink:href="#DejaVuSans-49" x="709.578125"/>
       <use xlink:href="#DejaVuSans-4f" x="739.070312"/>
       <use xlink:href="#DejaVuSans-4e" x="817.78125"/>
      </g>
     </g>
    </g>
    <g id="xtick_7">
     <g id="line2d_7">
      <g>
       <use xlink:href="#m3b747f303e" x="446.643785" y="414.72" style="stroke: #000000; stroke-width: 0.8"/>
      </g>
     </g>
     <g id="text_7">
      <!-- JOURNAL OF TRANSPORTATION ENGINEERING PART A-SYSTEMS -->
      <g transform="translate(222.789246 649.476885) rotate(-45) scale(0.1 -0.1)">
       <use xlink:href="#DejaVuSans-4a"/>
       <use xlink:href="#DejaVuSans-4f" x="29.492188"/>
       <use xlink:href="#DejaVuSans-55" x="108.203125"/>
       <use xlink:href="#DejaVuSans-52" x="181.396484"/>
       <use xlink:href="#DejaVuSans-4e" x="250.878906"/>
       <use xlink:href="#DejaVuSans-41" x="325.683594"/>
       <use xlink:href="#DejaVuSans-4c" x="394.091797"/>
       <use xlink:href="#DejaVuSans-20" x="449.804688"/>
       <use xlink:href="#DejaVuSans-4f" x="481.591797"/>
       <use xlink:href="#DejaVuSans-46" x="560.302734"/>
       <use xlink:href="#DejaVuSans-20" x="617.822266"/>
       <use xlink:href="#DejaVuSans-54" x="649.609375"/>
       <use xlink:href="#DejaVuSans-52" x="710.693359"/>
       <use xlink:href="#DejaVuSans-41" x="776.175781"/>
       <use xlink:href="#DejaVuSans-4e" x="844.583984"/>
       <use xlink:href="#DejaVuSans-53" x="919.388672"/>
       <use xlink:href="#DejaVuSans-50" x="982.865234"/>
       <use xlink:href="#DejaVuSans-4f" x="1043.167969"/>
       <use xlink:href="#DejaVuSans-52" x="1121.878906"/>
       <use xlink:href="#DejaVuSans-54" x="1184.111328"/>
       <use xlink:href="#DejaVuSans-41" x="1237.445312"/>
       <use xlink:href="#DejaVuSans-54" x="1298.103516"/>
       <use xlink:href="#DejaVuSans-49" x="1359.1875"/>
       <use xlink:href="#DejaVuSans-4f" x="1388.679688"/>
       <use xlink:href="#DejaVuSans-4e" x="1467.390625"/>
       <use xlink:href="#DejaVuSans-20" x="1542.195312"/>
       <use xlink:href="#DejaVuSans-45" x="1573.982422"/>
       <use xlink:href="#DejaVuSans-4e" x="1637.166016"/>
       <use xlink:href="#DejaVuSans-47" x="1711.970703"/>
       <use xlink:href="#DejaVuSans-49" x="1789.460938"/>
       <use xlink:href="#DejaVuSans-4e" x="1818.953125"/>
       <use xlink:href="#DejaVuSans-45" x="1893.757812"/>
       <use xlink:href="#DejaVuSans-45" x="1956.941406"/>
       <use xlink:href="#DejaVuSans-52" x="2020.125"/>
       <use xlink:href="#DejaVuSans-49" x="2089.607422"/>
       <use xlink:href="#DejaVuSans-4e" x="2119.099609"/>
       <use xlink:href="#DejaVuSans-47" x="2193.904297"/>
       <use xlink:href="#DejaVuSans-20" x="2271.394531"/>
       <use xlink:href="#DejaVuSans-50" x="2303.181641"/>
       <use xlink:href="#DejaVuSans-41" x="2357.109375"/>
       <use xlink:href="#DejaVuSans-52" x="2425.517578"/>
       <use xlink:href="#DejaVuSans-54" x="2487.75"/>
       <use xlink:href="#DejaVuSans-20" x="2548.833984"/>
       <use xlink:href="#DejaVuSans-41" x="2580.621094"/>
       <use xlink:href="#DejaVuSans-2d" x="2646.779297"/>
       <use xlink:href="#DejaVuSans-53" x="2682.863281"/>
       <use xlink:href="#DejaVuSans-59" x="2746.339844"/>
       <use xlink:href="#DejaVuSans-53" x="2807.423828"/>
       <use xlink:href="#DejaVuSans-54" x="2870.900391"/>
       <use xlink:href="#DejaVuSans-45" x="2931.984375"/>
       <use xlink:href="#DejaVuSans-4d" x="2995.167969"/>
       <use xlink:href="#DejaVuSans-53" x="3081.447266"/>
      </g>
     </g>
    </g>
    <g id="xtick_8">
     <g id="line2d_8">
      <g>
       <use xlink:href="#m3b747f303e" x="498.406308" y="414.72" style="stroke: #000000; stroke-width: 0.8"/>
      </g>
     </g>
     <g id="text_8">
      <!-- JOURNAL OF ADVANCED TRANSPORTATION -->
      <g transform="translate(346.11429 577.914364) rotate(-45) scale(0.1 -0.1)">
       <defs>
        <path id="DejaVuSans-56" d="M 1831 0 
L 50 4666 
L 709 4666 
L 2188 738 
L 3669 4666 
L 4325 4666 
L 2547 0 
L 1831 0 
z
" transform="scale(0.015625)"/>
       </defs>
       <use xlink:href="#DejaVuSans-4a"/>
       <use xlink:href="#DejaVuSans-4f" x="29.492188"/>
       <use xlink:href="#DejaVuSans-55" x="108.203125"/>
       <use xlink:href="#DejaVuSans-52" x="181.396484"/>
       <use xlink:href="#DejaVuSans-4e" x="250.878906"/>
       <use xlink:href="#DejaVuSans-41" x="325.683594"/>
       <use xlink:href="#DejaVuSans-4c" x="394.091797"/>
       <use xlink:href="#DejaVuSans-20" x="449.804688"/>
       <use xlink:href="#DejaVuSans-4f" x="481.591797"/>
       <use xlink:href="#DejaVuSans-46" x="560.302734"/>
       <use xlink:href="#DejaVuSans-20" x="617.822266"/>
       <use xlink:href="#DejaVuSans-41" x="649.609375"/>
       <use xlink:href="#DejaVuSans-44" x="718.017578"/>
       <use xlink:href="#DejaVuSans-56" x="793.269531"/>
       <use xlink:href="#DejaVuSans-41" x="855.302734"/>
       <use xlink:href="#DejaVuSans-4e" x="923.710938"/>
       <use xlink:href="#DejaVuSans-43" x="998.515625"/>
       <use xlink:href="#DejaVuSans-45" x="1068.339844"/>
       <use xlink:href="#DejaVuSans-44" x="1131.523438"/>
       <use xlink:href="#DejaVuSans-20" x="1208.525391"/>
       <use xlink:href="#DejaVuSans-54" x="1240.3125"/>
       <use xlink:href="#DejaVuSans-52" x="1301.396484"/>
       <use xlink:href="#DejaVuSans-41" x="1366.878906"/>
       <use xlink:href="#DejaVuSans-4e" x="1435.287109"/>
       <use xlink:href="#DejaVuSans-53" x="1510.091797"/>
       <use xlink:href="#DejaVuSans-50" x="1573.568359"/>
       <use xlink:href="#DejaVuSans-4f" x="1633.871094"/>
       <use xlink:href="#DejaVuSans-52" x="1712.582031"/>
       <use xlink:href="#DejaVuSans-54" x="1774.814453"/>
       <use xlink:href="#DejaVuSans-41" x="1828.148438"/>
       <use xlink:href="#DejaVuSans-54" x="1888.806641"/>
       <use xlink:href="#DejaVuSans-49" x="1949.890625"/>
       <use xlink:href="#DejaVuSans-4f" x="1979.382812"/>
       <use xlink:href="#DejaVuSans-4e" x="2058.09375"/>
      </g>
     </g>
    </g>
    <g id="xtick_9">
     <g id="line2d_9">
      <g>
       <use xlink:href="#m3b747f303e" x="550.168831" y="414.72" style="stroke: #000000; stroke-width: 0.8"/>
      </g>
     </g>
     <g id="text_9">
      <!-- IEEE ACCESS -->
      <g transform="translate(502.926364 472.864813) rotate(-45) scale(0.1 -0.1)">
       <use xlink:href="#DejaVuSans-49"/>
       <use xlink:href="#DejaVuSans-45" x="29.492188"/>
       <use xlink:href="#DejaVuSans-45" x="92.675781"/>
       <use xlink:href="#DejaVuSans-45" x="155.859375"/>
       <use xlink:href="#DejaVuSans-20" x="219.042969"/>
       <use xlink:href="#DejaVuSans-41" x="250.830078"/>
       <use xlink:href="#DejaVuSans-43" x="317.488281"/>
       <use xlink:href="#DejaVuSans-43" x="387.3125"/>
       <use xlink:href="#DejaVuSans-45" x="457.136719"/>
       <use xlink:href="#DejaVuSans-53" x="520.320312"/>
       <use xlink:href="#DejaVuSans-53" x="583.796875"/>
      </g>
     </g>
    </g>
    <g id="xtick_10">
     <g id="line2d_10">
      <g>
       <use xlink:href="#m3b747f303e" x="601.931354" y="414.72" style="stroke: #000000; stroke-width: 0.8"/>
      </g>
     </g>
     <g id="text_10">
      <!-- COMPUTERS ENVIRONMENT AND URBAN SYSTEMS -->
      <g transform="translate(421.297613 606.256087) rotate(-45) scale(0.1 -0.1)">
       <defs>
        <path id="DejaVuSans-42" d="M 1259 2228 
L 1259 519 
L 2272 519 
Q 2781 519 3026 730 
Q 3272 941 3272 1375 
Q 3272 1813 3026 2020 
Q 2781 2228 2272 2228 
L 1259 2228 
z
M 1259 4147 
L 1259 2741 
L 2194 2741 
Q 2656 2741 2882 2914 
Q 3109 3088 3109 3444 
Q 3109 3797 2882 3972 
Q 2656 4147 2194 4147 
L 1259 4147 
z
M 628 4666 
L 2241 4666 
Q 2963 4666 3353 4366 
Q 3744 4066 3744 3513 
Q 3744 3084 3544 2831 
Q 3344 2578 2956 2516 
Q 3422 2416 3680 2098 
Q 3938 1781 3938 1306 
Q 3938 681 3513 340 
Q 3088 0 2303 0 
L 628 0 
L 628 4666 
z
" transform="scale(0.015625)"/>
       </defs>
       <use xlink:href="#DejaVuSans-43"/>
       <use xlink:href="#DejaVuSans-4f" x="69.824219"/>
       <use xlink:href="#DejaVuSans-4d" x="148.535156"/>
       <use xlink:href="#DejaVuSans-50" x="234.814453"/>
       <use xlink:href="#DejaVuSans-55" x="295.117188"/>
       <use xlink:href="#DejaVuSans-54" x="368.310547"/>
       <use xlink:href="#DejaVuSans-45" x="429.394531"/>
       <use xlink:href="#DejaVuSans-52" x="492.578125"/>
       <use xlink:href="#DejaVuSans-53" x="562.060547"/>
       <use xlink:href="#DejaVuSans-20" x="625.537109"/>
       <use xlink:href="#DejaVuSans-45" x="657.324219"/>
       <use xlink:href="#DejaVuSans-4e" x="720.507812"/>
       <use xlink:href="#DejaVuSans-56" x="795.3125"/>
       <use xlink:href="#DejaVuSans-49" x="863.720703"/>
       <use xlink:href="#DejaVuSans-52" x="893.212891"/>
       <use xlink:href="#DejaVuSans-4f" x="962.695312"/>
       <use xlink:href="#DejaVuSans-4e" x="1041.40625"/>
       <use xlink:href="#DejaVuSans-4d" x="1116.210938"/>
       <use xlink:href="#DejaVuSans-45" x="1202.490234"/>
       <use xlink:href="#DejaVuSans-4e" x="1265.673828"/>
       <use xlink:href="#DejaVuSans-54" x="1340.478516"/>
       <use xlink:href="#DejaVuSans-20" x="1401.5625"/>
       <use xlink:href="#DejaVuSans-41" x="1433.349609"/>
       <use xlink:href="#DejaVuSans-4e" x="1501.757812"/>
       <use xlink:href="#DejaVuSans-44" x="1576.5625"/>
       <use xlink:href="#DejaVuSans-20" x="1653.564453"/>
       <use xlink:href="#DejaVuSans-55" x="1685.351562"/>
       <use xlink:href="#DejaVuSans-52" x="1758.544922"/>
       <use xlink:href="#DejaVuSans-42" x="1828.027344"/>
       <use xlink:href="#DejaVuSans-41" x="1896.630859"/>
       <use xlink:href="#DejaVuSans-4e" x="1965.039062"/>
       <use xlink:href="#DejaVuSans-20" x="2039.84375"/>
       <use xlink:href="#DejaVuSans-53" x="2071.630859"/>
       <use xlink:href="#DejaVuSans-59" x="2135.107422"/>
       <use xlink:href="#DejaVuSans-53" x="2196.191406"/>
       <use xlink:href="#DejaVuSans-54" x="2259.667969"/>
       <use xlink:href="#DejaVuSans-45" x="2320.751953"/>
       <use xlink:href="#DejaVuSans-4d" x="2383.935547"/>
       <use xlink:href="#DejaVuSans-53" x="2470.214844"/>
      </g>
     </g>
    </g>
   </g>
   <g id="matplotlib.axis_2">
    <g id="ytick_1">
     <g id="line2d_11">
      <defs>
       <path id="mc004515578" d="M 0 0 
L -3.5 0 
" style="stroke: #000000; stroke-width: 0.8"/>
      </defs>
      <g>
       <use xlink:href="#mc004515578" x="90" y="414.72" style="stroke: #000000; stroke-width: 0.8"/>
      </g>
     </g>
     <g id="text_11">
      <!-- 0.0 -->
      <g transform="translate(67.096875 418.519219) scale(0.1 -0.1)">
       <defs>
        <path id="DejaVuSans-30" d="M 2034 4250 
Q 1547 4250 1301 3770 
Q 1056 3291 1056 2328 
Q 1056 1369 1301 889 
Q 1547 409 2034 409 
Q 2525 409 2770 889 
Q 3016 1369 3016 2328 
Q 3016 3291 2770 3770 
Q 2525 4250 2034 4250 
z
M 2034 4750 
Q 2819 4750 3233 4129 
Q 3647 3509 3647 2328 
Q 3647 1150 3233 529 
Q 2819 -91 2034 -91 
Q 1250 -91 836 529 
Q 422 1150 422 2328 
Q 422 3509 836 4129 
Q 1250 4750 2034 4750 
z
" transform="scale(0.015625)"/>
        <path id="DejaVuSans-2e" d="M 684 794 
L 1344 794 
L 1344 0 
L 684 0 
L 684 794 
z
" transform="scale(0.015625)"/>
       </defs>
       <use xlink:href="#DejaVuSans-30"/>
       <use xlink:href="#DejaVuSans-2e" x="63.623047"/>
       <use xlink:href="#DejaVuSans-30" x="95.410156"/>
      </g>
     </g>
    </g>
    <g id="ytick_2">
     <g id="line2d_12">
      <g>
       <use xlink:href="#mc004515578" x="90" y="373.577143" style="stroke: #000000; stroke-width: 0.8"/>
      </g>
     </g>
     <g id="text_12">
      <!-- 2.5 -->
      <g transform="translate(67.096875 377.376362) scale(0.1 -0.1)">
       <defs>
        <path id="DejaVuSans-32" d="M 1228 531 
L 3431 531 
L 3431 0 
L 469 0 
L 469 531 
Q 828 903 1448 1529 
Q 2069 2156 2228 2338 
Q 2531 2678 2651 2914 
Q 2772 3150 2772 3378 
Q 2772 3750 2511 3984 
Q 2250 4219 1831 4219 
Q 1534 4219 1204 4116 
Q 875 4013 500 3803 
L 500 4441 
Q 881 4594 1212 4672 
Q 1544 4750 1819 4750 
Q 2544 4750 2975 4387 
Q 3406 4025 3406 3419 
Q 3406 3131 3298 2873 
Q 3191 2616 2906 2266 
Q 2828 2175 2409 1742 
Q 1991 1309 1228 531 
z
" transform="scale(0.015625)"/>
        <path id="DejaVuSans-35" d="M 691 4666 
L 3169 4666 
L 3169 4134 
L 1269 4134 
L 1269 2991 
Q 1406 3038 1543 3061 
Q 1681 3084 1819 3084 
Q 2600 3084 3056 2656 
Q 3513 2228 3513 1497 
Q 3513 744 3044 326 
Q 2575 -91 1722 -91 
Q 1428 -91 1123 -41 
Q 819 9 494 109 
L 494 744 
Q 775 591 1075 516 
Q 1375 441 1709 441 
Q 2250 441 2565 725 
Q 2881 1009 2881 1497 
Q 2881 1984 2565 2268 
Q 2250 2553 1709 2553 
Q 1456 2553 1204 2497 
Q 953 2441 691 2322 
L 691 4666 
z
" transform="scale(0.015625)"/>
       </defs>
       <use xlink:href="#DejaVuSans-32"/>
       <use xlink:href="#DejaVuSans-2e" x="63.623047"/>
       <use xlink:href="#DejaVuSans-35" x="95.410156"/>
      </g>
     </g>
    </g>
    <g id="ytick_3">
     <g id="line2d_13">
      <g>
       <use xlink:href="#mc004515578" x="90" y="332.434286" style="stroke: #000000; stroke-width: 0.8"/>
      </g>
     </g>
     <g id="text_13">
      <!-- 5.0 -->
      <g transform="translate(67.096875 336.233504) scale(0.1 -0.1)">
       <use xlink:href="#DejaVuSans-35"/>
       <use xlink:href="#DejaVuSans-2e" x="63.623047"/>
       <use xlink:href="#DejaVuSans-30" x="95.410156"/>
      </g>
     </g>
    </g>
    <g id="ytick_4">
     <g id="line2d_14">
      <g>
       <use xlink:href="#mc004515578" x="90" y="291.291429" style="stroke: #000000; stroke-width: 0.8"/>
      </g>
     </g>
     <g id="text_14">
      <!-- 7.5 -->
      <g transform="translate(67.096875 295.090647) scale(0.1 -0.1)">
       <defs>
        <path id="DejaVuSans-37" d="M 525 4666 
L 3525 4666 
L 3525 4397 
L 1831 0 
L 1172 0 
L 2766 4134 
L 525 4134 
L 525 4666 
z
" transform="scale(0.015625)"/>
       </defs>
       <use xlink:href="#DejaVuSans-37"/>
       <use xlink:href="#DejaVuSans-2e" x="63.623047"/>
       <use xlink:href="#DejaVuSans-35" x="95.410156"/>
      </g>
     </g>
    </g>
    <g id="ytick_5">
     <g id="line2d_15">
      <g>
       <use xlink:href="#mc004515578" x="90" y="250.148571" style="stroke: #000000; stroke-width: 0.8"/>
      </g>
     </g>
     <g id="text_15">
      <!-- 10.0 -->
      <g transform="translate(60.734375 253.94779) scale(0.1 -0.1)">
       <defs>
        <path id="DejaVuSans-31" d="M 794 531 
L 1825 531 
L 1825 4091 
L 703 3866 
L 703 4441 
L 1819 4666 
L 2450 4666 
L 2450 531 
L 3481 531 
L 3481 0 
L 794 0 
L 794 531 
z
" transform="scale(0.015625)"/>
       </defs>
       <use xlink:href="#DejaVuSans-31"/>
       <use xlink:href="#DejaVuSans-30" x="63.623047"/>
       <use xlink:href="#DejaVuSans-2e" x="127.246094"/>
       <use xlink:href="#DejaVuSans-30" x="159.033203"/>
      </g>
     </g>
    </g>
    <g id="ytick_6">
     <g id="line2d_16">
      <g>
       <use xlink:href="#mc004515578" x="90" y="209.005714" style="stroke: #000000; stroke-width: 0.8"/>
      </g>
     </g>
     <g id="text_16">
      <!-- 12.5 -->
      <g transform="translate(60.734375 212.804933) scale(0.1 -0.1)">
       <use xlink:href="#DejaVuSans-31"/>
       <use xlink:href="#DejaVuSans-32" x="63.623047"/>
       <use xlink:href="#DejaVuSans-2e" x="127.246094"/>
       <use xlink:href="#DejaVuSans-35" x="159.033203"/>
      </g>
     </g>
    </g>
    <g id="ytick_7">
     <g id="line2d_17">
      <g>
       <use xlink:href="#mc004515578" x="90" y="167.862857" style="stroke: #000000; stroke-width: 0.8"/>
      </g>
     </g>
     <g id="text_17">
      <!-- 15.0 -->
      <g transform="translate(60.734375 171.662076) scale(0.1 -0.1)">
       <use xlink:href="#DejaVuSans-31"/>
       <use xlink:href="#DejaVuSans-35" x="63.623047"/>
       <use xlink:href="#DejaVuSans-2e" x="127.246094"/>
       <use xlink:href="#DejaVuSans-30" x="159.033203"/>
      </g>
     </g>
    </g>
    <g id="ytick_8">
     <g id="line2d_18">
      <g>
       <use xlink:href="#mc004515578" x="90" y="126.72" style="stroke: #000000; stroke-width: 0.8"/>
      </g>
     </g>
     <g id="text_18">
      <!-- 17.5 -->
      <g transform="translate(60.734375 130.519219) scale(0.1 -0.1)">
       <use xlink:href="#DejaVuSans-31"/>
       <use xlink:href="#DejaVuSans-37" x="63.623047"/>
       <use xlink:href="#DejaVuSans-2e" x="127.246094"/>
       <use xlink:href="#DejaVuSans-35" x="159.033203"/>
      </g>
     </g>
    </g>
    <g id="ytick_9">
     <g id="line2d_19">
      <g>
       <use xlink:href="#mc004515578" x="90" y="85.577143" style="stroke: #000000; stroke-width: 0.8"/>
      </g>
     </g>
     <g id="text_19">
      <!-- 20.0 -->
      <g transform="translate(60.734375 89.376362) scale(0.1 -0.1)">
       <use xlink:href="#DejaVuSans-32"/>
       <use xlink:href="#DejaVuSans-30" x="63.623047"/>
       <use xlink:href="#DejaVuSans-2e" x="127.246094"/>
       <use xlink:href="#DejaVuSans-30" x="159.033203"/>
      </g>
     </g>
    </g>
   </g>
   <g id="patch_13">
    <path d="M 90 414.72 
L 90 69.12 
" style="fill: none; stroke: #000000; stroke-width: 0.8; stroke-linejoin: miter; stroke-linecap: square"/>
   </g>
   <g id="patch_14">
    <path d="M 648 414.72 
L 648 69.12 
" style="fill: none; stroke: #000000; stroke-width: 0.8; stroke-linejoin: miter; stroke-linecap: square"/>
   </g>
   <g id="patch_15">
    <path d="M 90 414.72 
L 648 414.72 
" style="fill: none; stroke: #000000; stroke-width: 0.8; stroke-linejoin: miter; stroke-linecap: square"/>
   </g>
   <g id="patch_16">
    <path d="M 90 69.12 
L 648 69.12 
" style="fill: none; stroke: #000000; stroke-width: 0.8; stroke-linejoin: miter; stroke-linecap: square"/>
   </g>
  </g>
 </g>
 <defs>
  <clipPath id="p076070dd71">
   <rect x="90" y="69.12" width="558" height="345.6"/>
  </clipPath>
 </defs>
</svg>
